<?xml version="1.0" encoding="utf-8"?><svg viewBox="0 0 2000 1114.667" xmlns="http://www.w3.org/2000/svg" xmlns:xlink="http://www.w3.org/1999/xlink"><style>:root>svg{display:none}:root>svg:target{display:block}</style><svg id="2" viewBox="0 0 100 100" xmlns="http://www.w3.org/2000/svg"><style>.aast0{fill:#09f}</style><path class="aast0" d="m43.8 28.2-.1.7 1-.1.1-.7-.6-.4zm28.5-5.4.1-1-.8-.3-1.3.2-.9 1.5v.9h1.1z"/><path class="aast0" d="m73.6 22.2.1.8-1.1.2-.1 1.5h1.3l1.7-.1.9-1.1-.9-.4-.6-.6-.7-1.3-.4-1.8-1.5.3-.4.6v.8l.7.5zM47.1 27l-.3.7h-1.3v.7h.3v.3l.8-.1.5-.3.1-.6.6-.1.2-.5-.3-.1h-.6z"/><path class="aast0" d="M50 .8C23 .8 1.1 22.7 1.1 49.7S23 98.6 50 98.6s48.9-21.9 48.9-48.9S77 .8 50 .8zm38.5 34.7-2.3.2v1.4h-.7l-.8-.6-4-1V33l-5.1.4-1.6.9h-2l-1-.1-2.5 1.4V38l-5 3.6.4 1.6h1l-.3 1.5-.8.3v3.9l4.3 5H70l.1-.3h3.4l1-.9h1.9l1.1 1.1 2.9.3-.4 3.6 3.2 5.6-1.7 3.2.1 1.5 1.3 1.3v3.6l1.8 2.3v2.3C76.5 87.8 64 94.3 50 94.3c-23.1 0-42.1-17.5-44.4-40 0-.3-.1-.7-.1-1.1-.1-1.2-.1-2.3-.1-3.5v-2.4c0-.3 0-.6.1-.8v-.2c.4-5 1.6-9.7 3.5-14.1v2.4l1.9.9V39l1.8 3.1 1.5.2.2-1.1-1.8-2.7-.3-2.5h1l.4 2.7 2.5 3.7-.6 1.2 1.6 2.4 4 1v-.6l1.6.2-.2 1.1 1.2.2 1.9.5 2.7 3.1 3.5.3.3 2.8-2.2 1.7-.1 2.5-.3 1.6 3.4 4.3.3 1.5s1.2.3 1.4.3c.2 0 2.8 2 2.8 2v7.8l.9.3-.6 3.6 1.6 2.1-.4 3.6 2.1 3.7 2.7 2.4 2.7.1.3-.9-2-1.7.1-.8.4-1 .1-1h-1.3l-.7-.9 1.1-1.1.2-.8-1.3-.3.1-.8 1.8-.3 2.7-1.3.9-1.7 2.8-3.6-.7-3 .9-1.5 2.6.1 1.8-1.4.6-5.5 1.9-2.5.4-1.6-1.8-.5-1.2-1.9h-4L49 56.8l-.2-2.3-1.1-1.8-2.9-.1-1.6-2.6-1.5-.7-.1.8-2.6.2-1-1.4-2.8-.6-2.3 2.7-3.6-.6-.3-4.1-2.6-.4 1.1-2-.3-1.1-3.6 2.2-2.2-.3-.7-1.7.5-1.8 1.2-2.2 2.8-1.4h5.4v1.7l1.9.9-.2-2.8 1.4-1.4 2.8-1.8.2-1.3 2.8-2.9 3-1.7-.3-.3 2-1.9.7.2.3.4.8-.8.2-.1-.8-.1-.9-.3v-.8l.4-.4h1l.4.2.4.8.5-.1V25h.2l1.4-.2.2-.7.8.2v.7l-.7.5.1.8 2.5.8h.6l.1-1.1-2-.9-.1-.5 1.7-.5.1-1.6-1.7-1.1-.1-2.7-2.6 1.3h-.9l.2-2-3.2-.8-1.3 1v3.1l-2.4.7-1 2-1 .2v-2.6l-2.3-.3-1.1-.7-.4-1.7 4.1-2.4 2-.6.2 1.3 1.1-.1.1-.7 1.2-.2V16l-.5-.2-.1-.7 1.4-.1.9-.9.1-.1.3-.3 3-.4 1.3 1.1-3.5 1.8 4.4 1.1.6-1.5h1.9l.7-1.3-1.4-.3v-1.6l-4.3-1.9-2.9.3-1.9 1.1.1 2.1-1.7-.2-.3-1.2 1.7-1.5-3-.2-.9.3-.4 1 1.1.2-.2 1.1-1.9.1-.3.7-2.8.1s-.1-1.6-.2-1.6 2.2-.1 2.2-.1l1.7-1.6-.9-.3-1.2 1.2-2-.1-1.2-1.7h-2.6l-2.7 2H30l.2.7-.6.6 2.7.1.4 1-3.1-.1-.2-.7-1.9-.4-1-.6h-1.7C32 8 40.7 5.2 50 5.2c11.5 0 22.1 4.4 30 11.6l-1.6.6-.9 1 .2 1.1 1.1.2.7 1.6 1.9-.7.3 2.2H81l-1.5-.2-1.7.3-1.7 2.3-2.4.4-.3 2 1 .2-.3 1.2-2.3-.5-2.1.5-.5 1.2.4 2.5 1.2.6h2.1l1.4-.1.4-1.1 2.2-2.9 1.5.3 1.4-1.3.3 1 3.5 2.4-.4.6-1.5-.2.6.9 1 .2 1.1-.5v-1.4l.6-.2-.4-.4-2.4-1.3-.6-1.8h2l.6.6 1.7 1.5.1 1.8 1.8 1.9.7-2.6 1.2-.7.2 2.1 1.2 1.3h.5c.5 1.2.9 2.5 1.3 3.8h-2.1l-2.3-1.7z"/><path d="M50 99.5C22.6 99.5.2 77.2.2 49.8.2 22.3 22.6 0 50 0s49.7 22.3 49.7 49.7c.1 27.5-22.3 49.8-49.7 49.8zM50 5C25.3 5 5.3 25.1 5.3 49.7s20 44.8 44.7 44.8c24.7 0 44.7-20.1 44.7-44.7S74.7 5 50 5z" style="fill:#0038a4"/></svg><svg id="7" viewBox="0 0 100 100" xmlns="http://www.w3.org/2000/svg"><style>.abst0{fill:#09f}</style><path class="abst0" d="M95.3 47.6h-7.2l-2.4 1.8v12.5c0 4-3.2 7.1-7.1 7.1H59.2L56 71.4V75c0 2.6 2.1 4.7 4.7 4.7h18.9l13.3 13.1-2.3-13.1h4.7c2.6 0 4.7-2.1 4.7-4.7V52.3c0-2.6-2.1-4.7-4.7-4.7z"/><path d="M17.8 94.9c-.3 0-.6-.1-.9-.2-.8-.4-1.2-1.2-1.1-2L18 71.1H9.6c-5 0-9.2-4.1-9.2-9.2V14.3c0-5 4.1-9.2 9.2-9.2h69c5 0 9.2 4.1 9.2 9.2v47.6c0 5-4.1 9.2-9.2 9.2H42.5L19.2 94.3c-.4.4-.9.6-1.4.6zM9.6 9.2c-2.8 0-5.1 2.3-5.1 5.1v47.6c0 2.8 2.3 5.1 5.1 5.1h10.7c.6 0 1.1.2 1.5.7.4.4.6 1 .5 1.6l-1.9 18.2 19.9-19.8c.4-.4.9-.6 1.4-.6h36.9c2.8 0 5.1-2.3 5.1-5.1V14.3c0-2.8-2.3-5.1-5.1-5.1h-69z" style="fill:#0038a4"/><path class="abst0" d="M43.4 40.2c.4-.9.9-1.7 1.5-2.3l2.3-2.3c1.2-1.1 2.1-2 2.7-2.7.6-.8.9-1.7.9-2.8 0-1.5-.6-2.7-1.7-3.6-1.2-.9-2.7-1.3-4.8-1.3-3.5 0-6.2 1.2-8.1 3.6l-3.3-2.4c1.3-1.6 2.9-2.9 4.9-3.8 2-.9 4.3-1.3 6.9-1.3 3.3 0 5.9.7 7.9 2.2 1.9 1.4 2.9 3.4 2.9 5.9 0 1.2-.2 2.3-.6 3.3-.4 1-.9 1.7-1.5 2.4-.6.6-1.3 1.4-2.3 2.3-1.2 1.1-2.2 2.1-2.7 3-.6.8-.9 1.9-.9 3.1H43c-.3-1.3 0-2.4.4-3.3zM43 52.8c-.6-.6-.8-1.2-.8-2.1 0-.8.3-1.5.8-2.1.6-.6 1.3-.8 2.1-.8s1.5.3 2.1.8c.5.6.8 1.2.8 2.1 0 .8-.3 1.5-.8 2.1-.6.6-1.2.8-2.1.8-.9.1-1.6-.2-2.1-.8z"/></svg><svg viewBox="0 0 52 52" xml:space="preserve" id="I-06" xmlns="http://www.w3.org/2000/svg"><path d="M26 52C11.6 52 0 40.4 0 26S11.6 0 26 0s26 11.6 26 26-11.6 26-26 26zm0-50C12.7 2 2 12.7 2 26s10.7 24 24 24 24-10.7 24-24S39.3 2 26 2z"/><path d="m15.6 25.6 4.9 1.8 1.9 6.2c.1.3.4.5.7.4.1 0 .1-.1.2-.1l2.8-2.2c.3-.2.7-.2 1 0l5 3.6c.3.2.6.1.8-.1 0-.1.1-.1.1-.2l3.7-17.5c.1-.3-.1-.6-.4-.7H36l-20.3 7.8c-.3.1-.5.5-.3.8 0 0 .1.2.2.2zm6.6.9 9.7-6c.1 0 .2 0 .2.1v.2l-8 7.4c-.3.3-.5.6-.5 1l-.3 2c0 .1-.1.2-.2.2s-.2-.1-.2-.2l-1-3.7c-.2-.4 0-.8.3-1z"/></svg><svg viewBox="0 0 52 52" xml:space="preserve" id="I_skype" xmlns="http://www.w3.org/2000/svg"><path d="M26 52C11.6 52 0 40.4 0 26S11.6 0 26 0s26 11.6 26 26-11.6 26-26 26zm0-50C12.7 2 2 12.7 2 26s10.7 24 24 24 24-10.7 24-24S39.3 2 26 2z"/><path d="M36.1 27.6c.9-5.6-2.9-10.9-8.6-11.7-1.1-.2-2.1-.2-3.2 0-5.5-3.4-12 3-8.5 8.5-.8 5.6 3 10.9 8.6 11.7 1.1.2 2.1.2 3.2 0 5.6 3.5 11.9-3 8.5-8.5zM26 32.7c-5.7 0-6.7-5-4.2-5 1.9 0 .8 3 4.2 3 1.9 0 2.7-1 2.7-1.8 0-2-3-1.6-5.7-2.8-3.6-1.5-3.1-6.7 3-6.7 5.4 0 6 4.4 3.7 4.4-1.7 0-.9-2.5-3.9-2.5-1.1 0-2.4.5-2.4 1.5 0 2.2 6.1 1.2 7.7 4.2 1.1 1.9.2 5.7-5.1 5.7z"/></svg><svg viewBox="0 0 52 52" xml:space="preserve" id="I_vk" xmlns="http://www.w3.org/2000/svg"><path d="M26 52C11.6 52 0 40.4 0 26S11.6 0 26 0s26 11.6 26 26-11.6 26-26 26zm0-50C12.7 2 2 12.7 2 26s10.7 24 24 24 24-10.7 24-24S39.3 2 26 2z"/><path d="M13.9 18.5c-.8 0-.9.4-.9.8 0 .8.6 4.9 4.1 9.7 2.5 3.5 5.9 5.5 8.8 5.5 1.8 0 2-.5 2-1.2v-3.2c0-.9.2-1 .8-1 .4 0 1.2.3 2.8 2.1 1.8 2.2 2.2 3.2 3.2 3.2h2.8c.6 0 1-.3 1-.8 0-.1 0-.3-.1-.5-.2-.6-1.2-2.1-2.3-3.5-.7-.8-1.3-1.6-1.6-2-.2-.3-.3-.5-.3-.7 0-.2.1-.4.3-.6 0 0 3.6-5.1 3.9-6.8 0-.2.1-.3.1-.4 0-.4-.3-.7-.9-.7h-2.8c-.7 0-1 .4-1.2.9 0 0-1.7 3.6-3.7 5.9-.7.7-1 .7-1.3.7-.2 0-.7-.2-.7-.9v-5.5c0-.7-.2-1.1-.8-1.1h-5c-.4 0-.7.3-.7.7 0 .7 1 .9 1.1 2.9v3.9c0 .9-.2 1.1-.5 1.1-.9 0-2.8-3.2-4.1-7.4-.3-.8-.5-1.1-1.2-1.1h-2.8z"/></svg><svg viewBox="0 0 52 52" xml:space="preserve" id="I_youtube" xmlns="http://www.w3.org/2000/svg"><path d="M26 52C11.6 52 0 40.4 0 26S11.6 0 26 0s26 11.6 26 26-11.6 26-26 26zm0-50C12.7 2 2 12.7 2 26s10.7 24 24 24 24-10.7 24-24S39.3 2 26 2z"/><path d="M34.1 17.5H17.9c-2.3 0-4.1 1.9-4.1 4.2v8.7c0 2.3 1.9 4.1 4.1 4.2h16.2c2.3 0 4.1-1.9 4.2-4.2v-8.7c0-2.3-1.9-4.2-4.2-4.2zM27 27.9l-3.7 1.9v-7.5l3.7 1.9 3.7 1.9-3.7 1.8z"/></svg><svg viewBox="0 0 2084 813" xml:space="preserve" id="Logo" xmlns="http://www.w3.org/2000/svg"><path d="M30 1.6c-3 .8-7.3 2.5-9.5 3.9C14.7 8.9 7.3 17.2 4.2 23.8l-2.7 5.7v754l2.7 5.8c5.4 11.4 16.2 20 28.6 22.6 7.5 1.6 740.8 1.6 748.4 0 12.4-2.6 24.5-12.5 29.1-23.9l2.2-5.5.3-374c.2-339 .1-374.5-1.4-379.5-4-14-15.7-24.8-30.2-27.9-3.9-.8-105-1.1-375.5-1C83.1.1 34.8.3 30 1.6zm687.6 249.6-.1 153.3-153.7.3-153.8.2v308l-153.7-.2-153.8-.3-.3-153.8L102 405h308V98H717.7l-.1 153.2zM1961.4 110.7c2.5 17.4 10.5 27.6 25.4 32.4 9.5 3 28.8 3.1 38.2 0 8.3-2.6 15.1-7 19-12.4 3.5-4.8 7-15.1 7-20.8V106h-10.9c-12 0-11.2-.4-12.6 6.6-.8 4.3-6.1 10.3-10.9 12.5-5.4 2.5-15.7 2.5-21.1 0-5.6-2.5-10-7.9-11.5-14l-1.2-5.1h-22l.6 4.7zM980.6 119.2c-.2.7-1.1 22.4-2 48.3-2.1 60.3-4.3 79.3-11.3 94.7-4.8 10.7-15.2 17-25.3 15.4-3.5-.6-4-.4-4.4 1.6-.7 3-2.4 27.2-2.1 27.6.2.2 4.5 1.1 9.6 1.9 11.5 2 20.2.9 29.3-3.6 10.8-5.3 18.2-15.2 23.5-31.5 7.2-21.8 8.7-36.3 11.7-110.9l.6-14.7h74.8v159h34V118h-69c-54.4 0-69.1.3-69.4 1.2zM1169 235v72h30.5l39.5-47.2 39.5-47.3.3 47.3.2 47.2h34V163h-30.9l-39.2 46.7c-21.5 25.8-39.6 46.9-40 47.1-.5.2-.9-20.5-.9-46.7V163h-33v72zM1346 190.2c0 19.6.4 29.2 1.4 33.9 5.2 24.2 24.4 36.9 55.8 36.9 12.1 0 24.9-2.4 36.1-6.8l7.7-3V307h34l-.2-71.8-.3-71.7-16.7-.3-16.8-.2v63.1l-4.4 1.9c-9.5 4.3-16.6 5.5-31.1 5.5-13.8 0-14.1 0-19.5-3.1-6.5-3.7-10.5-9.4-12-17.3-.5-2.9-1-15.4-1-27.7V163h-33v27.2zM1526 235v72h34v-57h72.8v27.2c0 15 .1 27.9.1 28.5.1 1 4.1 1.3 16.6 1.3h16.5V163l-16.7.2-16.7.3.1 27.5c.1 15.1-.1 28.3-.4 29.2-.4 1.7-3 1.8-36.4 1.8H1560v-59h-34v72zM1711.9 163.5c0 .3-.1 32.2-.1 71s.1 70.9.1 71.5c.1 1.4 74.8 1.3 82.7-.1 20.6-3.6 34.6-13.5 40.5-28.6 3.3-8.6 3.9-25.8 1-35-5-16.5-18.1-27.2-37.3-30.2-6.7-1.1-25.3-2-43-2.1H1745v-47h-16.5c-9.1 0-16.5.2-16.6.5zm77.1 72.1c11.8 3.9 17.7 14.5 15.1 27.2-1.9 9.4-6.3 14.6-15.1 17.7-4.5 1.6-11.7 2-31.2 1.7l-12.8-.2v-49.3l19.3.6c14.7.4 20.5 1 24.7 2.3zM1857 235v72h34V163h-34v72zM1936 235v72h15.8l15.7-.1 39.5-47.3 39.5-47.4.3 47.4.2 47.4h33V163l-15.2.1h-15.3l-39.5 47.3-39.5 47.2-.3-47.3-.2-47.3h-34v72zM1148.7 487.5c-12.9 2.5-29 8.8-35.6 14.2l-2.4 1.9 6.3 11.7c3.5 6.4 6.9 11.7 7.5 11.7.7 0 1.8-.6 2.4-1.3 2-2.5 16.7-8.7 24.2-10.3 11-2.3 28.7-1.6 35.7 1.5 9.7 4.3 15.4 12.8 16.9 25l.6 4.9-28.4.5c-22.9.3-29.7.8-34.9 2.2-15.2 4.1-24.7 11.2-30.2 22.3-3.2 6.4-3.3 7.2-3.3 18.2 0 10.6.2 11.9 2.8 17.3 7.9 16 26.8 25.7 50.2 25.7 16.9 0 33.3-5.7 40.9-14 2-2.2 3.8-4 4.1-4s.5 3.6.5 8v8.1l15.7-.3 15.7-.3-.1-45.7c0-25.2-.4-48.3-.8-51.4-2.8-22.5-17.1-38.6-40-45-8.4-2.3-37.2-2.9-47.8-.9zm55.3 90.3c0 8.1-.2 9.2-3.2 14.2-3.9 6.5-11.8 12.4-19.7 14.6-8.1 2.4-24 1.6-30.4-1.5-7.1-3.5-10.1-7.9-10.5-16-.3-5.6 0-7.1 2-10 5.4-8.1 12.7-9.9 40.6-10l21.2-.1v8.8zM1820.2 488.1c-11.6 2.4-20.8 5.9-29.4 11l-6.8 4 5.1 9.2c2.7 5.1 5.7 10.6 6.6 12.3l1.6 3.2 6-3.9c3.3-2.2 9.7-5.1 14.1-6.6 7.3-2.5 9.5-2.7 23.1-2.8 14.5 0 15.2.1 20.7 2.8 9.9 4.9 15.8 14.1 15.8 24.8v4.7l-27.7.4c-30.5.5-37.8 1.7-48.5 7.5-14.8 8.1-22.7 24.3-20.1 41.3 2.5 16.3 13 27.7 31.3 34.1 5.6 2 8.5 2.3 21.5 2.3 12.9.1 16-.2 22.1-2.1 8-2.5 16.5-7.7 20.6-12.6l2.7-3.2.1 8.2v8.3h32.1l-.3-50.3-.3-50.2-2.8-8.1c-6.4-19-20.7-30.8-42.5-35-10.9-2.1-33.5-1.7-45 .7zm57.6 88.9c.4 9.4-1.5 14.5-7.4 20.4-2.4 2.5-7 5.7-10.2 7.2-4.9 2.4-7.3 2.9-16.4 3.2-15.4.6-24.2-2.8-28.4-11-3.2-6.2-1.6-16.7 3.2-20.9 6.5-5.7 12.5-6.7 38.4-6.5l20.5.1.3 7.5zM954 559v72h34v-58h25.5l21.8 29 21.7 29h19.5c10.7 0 19.5-.2 19.5-.5s-12.2-16.8-27.2-36.7c-14.9-19.9-27.1-36.7-27.1-37.3 0-.9 32.2-44.3 50.6-68.3.7-.9-2.8-1.2-16.9-1.2h-17.9l-20.9 28.5c-11.5 15.7-21.4 28.9-22 29.3s-6.8.7-13.8.8l-12.8.1V487h-34v72zM1280 559v72h33V516h71v115h34V487h-138v72zM1463 559v72h15.8l15.7-.1 39-46.9c21.5-25.8 39.3-46.9 39.8-46.9.4-.1.7 21 .7 46.9v47h33V487l-15.2.1h-15.3l-39.5 47.3-39.5 47.2-.3-47.3-.2-47.3h-34v72zM1632.2 501.2l.3 14.3 25.3.3 25.2.2v115h34V516h50v-29h-135.1l.3 14.2zM1967 490.2c0 8.6-3.1 67.6-4.1 77.7-1.3 13.4-3.7 22.2-7.9 27.9-3.9 5.4-8.1 7.5-15.2 7.5h-5.7l-.5 4.1c-.3 2.3-.7 8.5-1 13.8l-.4 9.8 4.1 1.2c2.3.7 8.7 1.3 14.2 1.3 11.8 0 16.7-1.9 23.9-9.1 11.7-11.9 17.2-32.7 19.6-73.9.6-9.9 1.3-21.7 1.6-26.3l.6-8.2h53.8v115h34V487h-117v3.2z"/><path fill="#282727" d="M1769.3 706.5c-7.3 2-14.2 5.7-18.1 9.8l-3.3 3.4 4.6 3.7 4.5 3.7 4.2-3.6c9.7-8.2 27.7-8.8 35.3-1.1 4.2 4.1 5.1 9 3 16.4-1.5 5.5-2.5 6.5-25.1 28.7-23.3 22.9-23.4 23-23.4 27.2v4.3h67v-11h-47.5l18.7-18.6c22.3-22.1 24.3-25.2 24.3-37.9 0-9.4-2.2-14.4-8.2-19.4-7.7-6.4-23.8-8.9-36-5.6zM1856.3 706.4c-17.9 5.8-27.6 21.8-27.6 45.6 0 22.5 7.8 37.7 23.2 44.9 4.8 2.2 7 2.6 14.6 2.6 8.2 0 9.7-.3 15.7-3.3 10.2-5 16.9-13.9 20.4-26.9 2-7.7 2-25.9 0-33.6-5-18.7-17.4-29.6-34.4-30.4-4.7-.2-9.3.3-11.9 1.1zm19.3 12.5c5.2 2.4 10.9 9 13.1 15.5 2.6 7.4 2.5 29-.1 36.5-6.2 18-27.1 22.9-38.9 9.1-5.7-6.7-7.2-12.3-7.2-27.5s1.5-20.8 7.2-27.5c4.5-5.3 10.2-8 16.8-8 2.8 0 6.8.9 9.1 1.9zM1945.3 706.4c-17.9 5.8-27.6 21.8-27.6 45.6 0 22.5 7.8 37.7 23.2 44.9 4.8 2.2 7 2.6 14.6 2.6 8.2 0 9.7-.3 15.7-3.3 10.2-5 16.9-13.9 20.4-26.9 2-7.7 2-25.9 0-33.6-5-18.7-17.4-29.6-34.4-30.4-4.7-.2-9.3.3-11.9 1.1zm19.3 12.5c5.2 2.4 10.9 9 13.1 15.5 2.6 7.4 2.5 29-.1 36.5-6.2 18-27.1 22.9-38.9 9.1-5.7-6.7-7.2-12.3-7.2-27.5s1.5-20.8 7.2-27.5c4.5-5.3 10.2-8 16.8-8 2.8 0 6.8.9 9.1 1.9zM2038.5 706.3c-11.3 3-21.5 10.9-26.4 20.6-7.2 14.1-7.3 40.1-.1 54.1 6.6 13 20.3 19.9 36.6 18.7 20.3-1.5 33.2-16.9 29.4-35.1-3.1-14.8-16.1-23.4-33.9-22.4-9.2.6-16 3.3-20.9 8.5l-3.5 3.8.5-8.1c.8-10.5 3.6-17.2 9.9-22.8 5.9-5.3 11.7-7.1 22.4-7 5.9 0 9.1.6 12.1 2.1l4.1 2 2.6-5.3 2.6-5.3-5.7-2.1c-7.1-2.7-22.4-3.6-29.7-1.7zm18.4 49.8c10.4 5.8 11.9 19.3 3.2 27.2-8.7 7.8-23.1 7.5-31.6-.7-4.7-4.5-6.2-9-5-15.2.8-4.6 6.8-11 12-13 5.8-2.1 16.1-1.3 21.4 1.7zM1063.5 729.1c-7.5.7-17 3.9-20.7 6.8l-2.2 1.9 2.4 4.6c1.4 2.5 2.7 4.5 3 4.3 11-6.5 24.1-8.5 32.3-4.9 5.2 2.3 8.7 7.7 8.7 13.7v3.5h-13.3c-25.3 0-35 5.7-35 20.5 0 13.1 12.1 21.5 29 20.2 7.3-.5 16.9-4.5 18-7.4 1-2.7 2.3-1.2 2.3 2.7v4h12v-23c0-12.8-.5-25.2-1.1-28-3-13.9-15.7-20.7-35.4-18.9zm23.5 44.5c0 5.3-.3 5.9-4.3 9.9-11.1 11.2-33.1 7.1-31.4-5.8 1.1-8 4.7-9.5 23-9.6l12.7-.1v5.6zM1191.9 729.1c-6.2.7-15 4.9-18 8.7l-1.9 2.5V729h-13v84h13v-24.4l3.3 3.2c5.7 5.5 12 7.7 22.2 7.7 7.6 0 9.9-.5 14.6-2.7 15.7-7.2 23.2-23 19.5-40.9-3.9-18.5-19.5-29.1-39.7-26.8zm15.2 13.2c14.1 7.5 16.9 29 5.2 39.8-13.1 12.2-34 6.9-38.9-9.7-3.8-13.1 1.6-26 13.1-31 5.1-2.2 15.5-1.8 20.6.9zM1549.8 729.1c-11.7 1.3-21.4 8.5-26.7 19.8-2.3 4.9-2.6 6.8-2.6 15.6.1 8.8.4 10.7 2.8 15.7 3.5 7.1 10.9 14 18.5 16.9 4.6 1.9 7.8 2.3 16.2 2.3 9.3.1 11.1-.2 16-2.5 3-1.4 7-3.8 8.7-5.3l3.3-2.8-3.3-3.9c-3.5-4.2-4.8-4.7-6.8-2.3-2.1 2.5-8.3 5.2-13.6 6-13.5 1.8-26.7-6.1-28.9-17.5l-.6-3.1h57.5l-.5-7.3c-1.4-21-17.8-34.1-40-31.6zm15 12.5c2 .8 5 2.7 6.6 4.2 2.8 2.6 6.5 9.4 6.6 11.9 0 1-5.2 1.3-22.6 1.3h-22.6l.6-3.2c2.4-12.1 18.8-19.5 31.4-14.2zM1671.5 729.1c-12.2 1.2-23.2 8.9-28.3 19.7-2.3 4.9-2.7 7-2.7 15.2 0 8.8.3 10.1 3.3 16.2 5.9 11.9 16.3 18.5 30.8 19.5 11.5.9 24-4.1 29.3-11.6l2.2-3-4.7-3-4.8-2.9-4.3 3.8c-15.2 13.3-39.3 2.3-39.3-17.9 0-7.9 1.6-12.6 5.8-17.3 4.9-5.4 10.2-7.8 17.7-7.8 7.1 0 13.1 2.5 17.1 6.9l2.7 3.1 3.6-2.2c6.7-3.9 6.7-4.1 2.5-8.8-7-7.8-17.8-11.2-30.9-9.9zM954 764v35h13v-29h19.9c15 0 20 .3 20.3 1.2.2.7.3 7.3.3 14.5l-.2 13.3h12.7v-70h-13l.2 14.7.3 14.8-20.3.3-20.2.2v-30h-13v35zM1250 764.1v35.1l20.8-.4 20.8-.3 5.9-3c8.5-4.4 12-10.1 11.9-19.9 0-7.8-1.4-11.4-6.1-15.8-5.3-5-9.5-6.1-25.5-6.6l-14.8-.4V729h-13v35.1zm40 .1c7.6 3.9 9.1 13 3.4 19.7-3.3 4-7.7 5.1-20.1 5.1H1263v-27h11.3c9.7 0 11.9.3 15.7 2.2zM1320 764v35h13v-70h-13v35zM1358 764v35h13v-29h19.9c15 0 20 .3 20.3 1.2.2.7.3 7.3.3 14.5l-.2 13.3h12.7v-70h-13l.2 14.7.3 14.8-20.3.3-20.2.2v-30h-13v35zM1449 764v35h13v-30h14.7l11.9 15 11.9 15h7.3c3.9 0 7.2-.2 7.2-.5s-3.3-4.7-7.3-9.8c-4-5-10.3-13.1-14-17.9l-6.7-8.6 13-16.1c7.1-8.8 13-16.3 13-16.6s-3-.5-6.7-.3l-6.7.3-11 14.2-11.1 14.2h-7.7l-7.8.1v-29h-13v35z"/></svg><svg viewBox="0 0 58 58" xml:space="preserve" id="Logo-mobile" xmlns="http://www.w3.org/2000/svg"><path d="M1.2 1.2c-1.9 1.9-1.7 54.1.2 55.7.9.8 9.2 1.1 28.2.9l26.9-.3V.5l-27-.3C9.3 0 2.1.3 1.2 1.2zM50 18.5V29H28v21H7V29h21V8h22v10.5z"/></svg><svg viewBox="0 0 79 79" xml:space="preserve" id="arrow-target" xmlns="http://www.w3.org/2000/svg"><circle fill="#FFF" cx="35.4" cy="43.5" r="33.1"/><path fill="#0F43AA" d="M57.8 34.8c-.4-1-1.5-1.4-2.4-1-1 .4-1.4 1.5-1 2.4.9 2.4 1.4 4.9 1.4 7.5 0 11.2-9.1 20.3-20.3 20.3s-20.3-9.1-20.3-20.3 9.1-20.3 20.3-20.3c2.6 0 5.1.5 7.5 1.4.9.4 2-.1 2.4-1s-.1-2-1-2.4c-2.8-1.1-5.8-1.7-8.8-1.7-13.2 0-24 10.8-24 24s10.8 24 24 24 24-10.8 24-24c-.2-3.2-.7-6.1-1.8-8.9z"/><path fill="#0F43AA" d="M69.2 33.9c-.3-1-1.3-1.6-2.3-1.3s-1.6 1.3-1.3 2.3c.8 2.8 1.2 5.7 1.2 8.7C66.8 60.9 52.7 75 35.4 75S4 60.9 4 43.6s14.1-31.4 31.4-31.4c2.9 0 5.9.4 8.7 1.2 1 .3 2-.3 2.3-1.3s-.3-2-1.3-2.3C42 9 38.7 8.5 35.4 8.5 16.1 8.5.3 24.2.3 43.6S16 78.7 35.4 78.7 70.5 63 70.5 43.6c0-3.3-.4-6.5-1.3-9.7z"/><path fill="#0F43AA" d="M48.3 42.5c-.1-1-1-1.8-2-1.7s-1.8 1-1.7 2v.8c0 5.1-4.1 9.2-9.2 9.2s-9.2-4.1-9.2-9.2 4.1-9.2 9.2-9.2h.8c1 .1 1.9-.7 2-1.7s-.7-1.9-1.7-2c-.4 0-.8-.1-1.2-.1-7.1 0-12.9 5.8-12.9 12.9s5.8 12.9 12.9 12.9 12.9-5.8 12.9-12.9c.2-.3.1-.7.1-1z"/><path fill="#91D3FE" d="M78.5 12.7c-.6-1.4-1.9-2.3-3.4-2.3h-6.5V4c0-1.5-.9-2.8-2.3-3.4s-3-.3-4 .8L51.5 12.2c-1 1-1.6 2.4-1.6 3.9v10.5l-15 15c-.7.7-.7 1.9 0 2.6.4.4.8.5 1.3.5s.9-.2 1.3-.5l15-15H63c1.5 0 2.9-.6 3.9-1.6l10.8-10.8c1-1.1 1.3-2.7.8-4.1z"/><path fill="#FFF" d="M53.6 16.1c0-.5.2-1 .5-1.3L64.9 4v7.5L53.6 22.8v-6.7m10.7 8.8c-.3.3-.8.5-1.3.5h-6.8l11.3-11.3H75L64.3 24.9z"/></svg><svg viewBox="0 0 31 10" id="articles-arrow" xmlns="http://www.w3.org/2000/svg"><defs><path id="ada" d="M981.9 917.6v1h28.56l-4.18 3.74.67.83 5.53-5.06v-.02l-5.53-5.06-.67.85 4.18 3.73z"/></defs><use fill="#09f" xlink:href="#ada" transform="translate(-982 -913)"/></svg><svg viewBox="0 0 79 79" id="blocks" xmlns="http://www.w3.org/2000/svg"><style>.aest2{fill:#009aff}</style><g id="aeRisks"><path class="aest2" d="M32 76.9c0 .7-.6 1.3-1.3 1.3h-23c-.7 0-1.3-.6-1.3-1.3v-23c0-.7.6-1.3 1.3-1.3h23c.7 0 1.3.6 1.3 1.3v23z"/><path d="M60.1 76.9c0 .7-.6 1.3-1.3 1.3h-23c-.7 0-1.3-.6-1.3-1.3v-23c0-.7.6-1.3 1.3-1.3h23c.7 0 1.3.6 1.3 1.3v23zM32 48.8c0 .7-.6 1.3-1.3 1.3h-23c-.7 0-1.3-.6-1.3-1.3v-23c0-.7.6-1.3 1.3-1.3h23c.7 0 1.3.6 1.3 1.3v23z" style="fill:#0f43aa"/><path class="aest2" d="m43.6 3 18.7 10.8-10.8 18.6-18.7-10.8L43.6 3M43.4.9c-.4 0-.9.2-1.1.6L30.8 21.4c-.4.6-.1 1.4.5 1.7l19.9 11.5c.2.1.4.2.6.2.4 0 .9-.2 1.1-.6l11.5-19.9c.4-.6.1-1.4-.5-1.7L44 1c-.2-.1-.4-.1-.6-.1z"/><path d="m43.6 3 18.7 10.8-10.8 18.6-18.7-10.8L43.6 3" style="fill:#fff"/></g></svg><svg viewBox="0 0 100 100" xml:space="preserve" id="briefcase" xmlns="http://www.w3.org/2000/svg"><path fill="#09F" d="M2.2 76.6v8c0 4.4 3.6 8 8 8h8c-.1-8.9-7.2-16-16-16zm79.7 15.9h8c4.4 0 8-3.6 8-8v-8c-8.9.1-16 7.2-16 16z"/><path fill="#0038A4" d="M67.4 20.7c-1 0-1.9-.7-2.1-1.7l-2.2-9.4H36.8L34.6 19c-.3 1.2-1.4 1.9-2.6 1.6-1.2-.3-1.9-1.4-1.6-2.6L33 7c.2-1 1.1-1.7 2.1-1.7h29.7c1 0 1.9.7 2.1 1.7l2.6 11.1c.3 1.2-.5 2.3-1.6 2.6h-.5z"/><path fill="#0038A4" d="M81.9 94.7H18.1c-1.2 0-2.2-1-2.2-2.2 0-7.6-6.2-13.8-13.8-13.8-1.2 0-2.2-1-2.2-2.2V20.8c0-1.2 1-2.2 2.2-2.2s2.2 1 2.2 2.2v53.8c8.3 1 14.8 7.6 15.8 15.8h59.7c1-8.3 7.6-14.8 15.8-15.8V20.8c0-1.2 1-2.2 2.2-2.2s2.2 1 2.2 2.2v55.8c0 .6-.2 1.1-.6 1.5s-1 .6-1.5.6c-7.6 0-13.8 6.2-13.8 13.8-.1 1.2-1 2.2-2.2 2.2z"/><path fill="#09F" d="M2.2 18.6 11.3 43c1.5 4.1 6.4 7.5 10.8 7.5h55.8c4.4 0 9.2-3.4 10.8-7.5l9.2-24.4H2.2z"/><path fill="#0038A4" d="M58 54.8H42c-1.2 0-2.2-1-2.2-2.2v-8c0-3.4 2.8-6.1 6.1-6.1h8c3.4 0 6.1 2.8 6.1 6.1v8c.1 1.2-.8 2.2-2 2.2zm-13.8-4.3h11.6v-5.8c0-1-.8-1.8-1.8-1.8h-8c-1 0-1.8.8-1.8 1.8v5.8z"/><path fill="#09F" d="m58 54.8-3.4 10.1c-.3 1-1.5 1.9-2.6 1.9h-4c-1.1 0-2.3-.9-2.6-1.9L42 54.8h16z"/></svg><svg viewBox="0 0 100 99.1" xml:space="preserve" id="calendar" xmlns="http://www.w3.org/2000/svg"><path fill="#FFF" d="M93.8 34.3v49.2c0 2.6-.7 5.1-2.5 7-1.6 1.6-3.4 2.7-5.8 2.7H16.3c-3.4 0-7.1-2.5-8.2-5.8-.4-1.2-.6-2.5-.6-3.7 0-16.4 0-32.8.1-49.3.4-.1.7 0 1.1 0h84c.3-.1.7-.1 1.1-.1M57.5 48.7c-4 1.5-6.2 4.3-6 7.7h7c.1-.2.1-.3.1-.5.5-1.5 2-2.5 3.7-2.4 1.9.1 3 1 3.3 2.7.5 2.6-1 4.6-3.7 4.6h-3.5v5.3c1.4 0 2.7-.1 4 0 2.4.1 3.7 1.5 3.8 3.9.1 2.3-1.1 3.7-3.5 4-2.3.3-4-.9-4.7-3.4h-7.1c.1 2.8 1.1 5.1 3.3 6.7 2.8 2 5.9 2.5 9.3 2.2 3.1-.3 5.8-1.3 7.9-3.6 2.7-2.9 2.5-8.3-.5-10.9-.8-.7-1.7-1.1-2.5-1.7v-.1c.1-.1.3-.2.4-.3 2.8-1.7 4.3-4 3.9-7.4-.4-3.2-2.1-5.4-5-6.6-3.2-1.1-6.6-1.2-10.2-.2m-24.6 2c-1.7.6-3.5 1.2-5.2 1.8-.3.2-.7.5-.7.8-.1 1.7 0 3.3 0 5.1 2.5-.7 4.8-1.4 7.3-2.1v23.4h7.2V47.8c-2.9 1-5.7 1.9-8.6 2.9z"/><path d="M93.8 34.2c-.4.1-.8.2-1.2.2h-84c-.3 0-.6 0-1-.1-.1-4.3-.1-8.7-.1-13 0-5.7 3.9-9.6 9.6-9.6 2.8 0 5.6 0 8.5.1.1 1.5.1 2.9 0 4.2-1.6 1-2 2.6-2.2 4.3-.2 3 1.6 5.7 4.2 6.7 2.9 1.1 6 .3 7.9-2 1.8-2.2 2-5.5.4-8-.3-.4-.8-.7-1.2-1.1v-4.2c10.6 0 21.1 0 31.8.1.1 1.5.1 2.9 0 4.2-1.6 1-2 2.6-2.2 4.3-.2 3 1.6 5.7 4.2 6.7 2.9 1.1 6 .3 7.9-2 1.8-2.2 2-5.5.4-8-.3-.4-.8-.7-1.2-1.1v-4.2c3.2 0 6.5-.1 9.7.1 4.5.2 8.2 3.6 8.4 8.1.2 4.7 0 9.4.1 14.3z"/><path d="M66.5 16c0-1.4 0-2.8.1-4.2V9.4c0-2.6 1.9-4.4 4.5-4.4s4.4 1.8 4.5 4.4v11.4c-.1 2.6-2.1 4.5-4.5 4.5-2.5 0-4.4-1.9-4.4-4.5-.2-1.6-.2-3.2-.2-4.8zM34.7 11.6v9.2c0 3-2.4 4.5-4.6 4.5-2.8 0-4.4-2.2-4.4-4.5V16c0-1.4 0-2.8.1-4.2V9.4c0-2.6 1.9-4.4 4.5-4.4s4.4 1.8 4.5 4.4c-.1.7-.1 1.4-.1 2.2z"/><path fill="#243981" d="M57.6 48.6c3.5-1 6.9-.9 10.2.5 2.9 1.2 4.7 3.4 5 6.6.4 3.4-1.1 5.7-3.9 7.4-.2.1-.3.2-.4.3v.1c.9.6 1.8 1 2.5 1.7 3 2.6 3.3 8 .5 10.9-2.1 2.3-4.8 3.3-7.9 3.6-3.4.3-6.5-.2-9.3-2.2-2.2-1.6-3.2-3.8-3.3-6.7h7.1c.7 2.5 2.4 3.7 4.7 3.4 2.3-.4 3.5-1.7 3.5-4-.1-2.4-1.4-3.7-3.8-3.9-1.3-.1-2.6 0-4 0V61H62c2.7-.1 4.2-2 3.7-4.6-.3-1.7-1.4-2.6-3.3-2.7-1.7-.1-3.2.8-3.7 2.4 0 .1-.1.3-.1.5h-7c-.3-3.6 1.9-6.4 6-8zM33 50.7c2.8-1 5.6-1.9 8.4-2.9v31.9h-7.2V56.3c-2.5.7-4.8 1.4-7.3 2.1v-5.1c0-.3.4-.6.7-.7 1.8-.7 3.6-1.3 5.4-1.9zM25.6 16c.1 1.6.1 3.2.1 4.8 0 2.2 1.6 4.5 4.4 4.5 2.2 0 4.6-1.5 4.6-4.5v-4.7c.4.2.9.5 1.2.9 1.6 2.5 1.4 5.8-.4 8-1.9 2.3-5 3.1-7.9 2-2.6-1-4.4-3.7-4.2-6.7.2-1.6.6-3.2 2.2-4.3zM66.5 16c.1 1.6.1 3.2.1 4.8.1 2.5 2 4.4 4.4 4.5 2.5 0 4.5-1.9 4.5-4.5v-4.7c.4.2.9.5 1.2.9 1.6 2.5 1.4 5.8-.4 8-1.9 2.3-5 3.1-7.9 2-2.6-1-4.4-3.7-4.2-6.7.2-1.6.7-3.2 2.3-4.3z"/></svg><svg viewBox="0 0 192 167" xml:space="preserve" id="clients" xmlns="http://www.w3.org/2000/svg"><path fill="#002D93" d="M88 3.3C77.1 9 76.1 25 86.2 32.1c4.4 3.2 13 3.7 17.8 1.1 9.5-5.2 11.8-17.8 4.7-25.9-5.8-6.6-13.2-8-20.7-4z"/><path d="M36.9 11.1C32 14 30 17.8 30 23.9c0 4.2.5 5.6 3.1 8.6 8.3 9.5 23.3 4.7 24.6-7.8 1.1-11.3-11.2-19.3-20.8-13.6zM142 10.9c-7.9 4.3-9.8 14.9-3.9 21.6 8.3 9.5 23.3 4.7 24.6-7.8 1.1-11.1-11-19.1-20.7-13.8zM24.8 44.6c-5.1 2.7-5.8 5.6-5.8 25.1 0 15.8.2 18.2 1.9 21 1.1 1.7 1.56 2.22 4 3.8 2.45 2.37 2.1 1.3 2.1 20.6 0 24.6.8 26.9 9.1 26.9 1.8 0 3.9-.9 5.4-2.4l2.4-2.4 2.2 2.4c3.1 3.3 8.2 3.2 11.4-.1 2.4-2.3 2.5-2.8 2.5-17.3 0-12.4-.3-15.2-1.6-16.3-.8-.7-2.4-3-3.5-5-1.7-3.5-1.9-6.1-1.9-27.6 0-19.2.3-24.4 1.5-26.7.8-1.5 1.5-3 1.5-3.2s-6.4-.4-14.2-.4c-10.7.1-15 .5-17 1.6z"/><path fill="#002D93" d="M69.3 43.7c-1.2.2-3.3 1.6-4.7 3l-1.07 1.07c-.98.98-1.53 2.3-1.53 3.69V73.1c0 23.5 0 23.8 2.3 26.5 1.7 1.9 3.7 2.9 6.8 3.3l4.4.6.5 28.3.5 28.4 2.4 1.9c4.9 4 10.6 3.7 14.8-.9 2.2-2.4 2.5-2.5 3.4-.9 1.2 2.1 6.1 4.7 8.9 4.7 2.9 0 7.6-2.6 8.6-4.7.5-1 1.1-14.2 1.4-29.3l.5-27.5 4.4-.6c3.1-.4 5.1-1.4 6.8-3.3 2.3-2.7 2.3-3 2.3-26.5 0-22.7-.1-23.8-2.1-26-3-3.2-6.1-4.1-13.9-4.1h-7l-5.1 6.5C99.1 53.1 96.4 56 96 56c-.5 0-3.2-2.9-6-6.5L84.8 43l-6.6.1c-3.7.1-7.7.4-8.9.6z"/><path d="M136 43.3c0 .3.7 1.8 1.5 3.3 1.2 2.3 1.5 7.6 1.5 27v21.69c0 1.63-.49 3.23-1.4 4.59l-2.1 3.12-1.37 2.04a12.474 12.474 0 0 0-2.13 6.98v9.68c0 17.4 1.3 20.3 9.1 20.3 1.8 0 3.9-.9 5.4-2.4l2.4-2.4 2.2 2.4c3.1 3.3 8.2 3.2 11.4-.1 2.5-2.4 2.5-2.5 2.5-22.5V98.08c0-.76.31-1.48.86-2L169 93.1l.08-.08c2.5-2.38 3.92-5.68 3.92-9.13V51.37c0-.9-.19-1.79-.57-2.61-.88-1.92-2.32-3.53-4.14-4.61a4.74 4.74 0 0 0-2.37-.67l-14.32-.28c-8.6-.2-15.6-.1-15.6.1z"/></svg><svg viewBox="0 0 79 79" id="docs" xmlns="http://www.w3.org/2000/svg"><style>.aist0{fill:#0f43aa}</style><g id="aidock"><path d="M72.5 71.5H21.1c-1.4 0-2.5-1.1-2.5-2.5V2.7c0-1.4 1.1-2.5 2.5-2.5h51.4C73.9.2 75 1.3 75 2.7V69c0 1.4-1.1 2.5-2.5 2.5z" style="fill:#009aff"/><path class="aist0" d="M61.2 73.9H9.8c-1.4 0-2.5-1.1-2.5-2.5V5.1c0-1.4 1.1-2.5 2.5-2.5h51.4c1.4 0 2.5 1.1 2.5 2.5v66.3c0 1.4-1.1 2.5-2.5 2.5z"/><path d="M66.1 78.5H14.7c-1.4 0-2.5-1.1-2.5-2.5V9.6c0-1.4 1.1-2.5 2.5-2.5h51.4c1.4 0 2.5 1.1 2.5 2.5V76c0 1.3-1.1 2.5-2.5 2.5z" style="fill:#fff"/><path class="aist0" d="M62.4 15.9H19.8c-.3 0-.5-.2-.5-.5v-.2c0-.3.2-.5.5-.5h42.6c.3 0 .5.2.5.5v.2c0 .3-.2.5-.5.5zm-.1 3.5H19.7c-.3 0-.5-.2-.5-.5v-.2c0-.3.2-.5.5-.5h42.6c.3 0 .5.2.5.5v.2c0 .2-.2.5-.5.5zm-.1 3.4H19.7c-.3 0-.5-.2-.5-.5v-.2c0-.3.2-.5.5-.5h42.6c.3 0 .5.2.5.5v.2c-.1.3-.3.5-.6.5zm0 3.5H19.6c-.3 0-.5-.2-.5-.5v-.2c0-.3.2-.5.5-.5h42.6c.3 0 .5.2.5.5v.2c-.1.3-.3.5-.5.5zm-.1 3.4H19.5c-.3 0-.5-.2-.5-.5V29c0-.3.2-.5.5-.5h42.6c.3 0 .5.2.5.5v.2c0 .3-.3.5-.5.5zm-.1 3.5H19.4c-.3 0-.5-.2-.5-.5v-.2c0-.3.2-.5.5-.5H62c.3 0 .5.2.5.5v.2c0 .3-.2.5-.5.5zm-.1 3.5H19.3c-.3 0-.5-.2-.5-.5V36c0-.3.2-.5.5-.5h42.6c.3 0 .5.2.5.5v.2c0 .3-.2.5-.5.5zm0 3.4H19.3c-.3 0-.5-.2-.5-.5v-.2c0-.3.2-.5.5-.5h42.6c.3 0 .5.2.5.5v.2c-.1.3-.3.5-.5.5zm-.1 3.5H19.2c-.3 0-.5-.2-.5-.5v-.2c0-.3.2-.5.5-.5h42.6c.3 0 .5.2.5.5v.2c0 .3-.3.5-.5.5zm-.1 3.5H19.1c-.3 0-.5-.2-.5-.5v-.2c0-.3.2-.5.5-.5h42.6c.3 0 .5.2.5.5v.2c0 .2-.2.5-.5.5zm-.1 3.4H19c-.3 0-.5-.2-.5-.5v-.2c0-.3.2-.5.5-.5h42.6c.3 0 .5.2.5.5v.2c0 .3-.2.5-.5.5z"/></g></svg><svg class="ajarticle-svg ajpost" xml:space="preserve" viewBox="0 0 64 64" id="edit" xmlns="http://www.w3.org/2000/svg"><path d="m55.736 13.636-4.368-4.362a2.308 2.308 0 0 0-1.636-.677c-.592 0-1.184.225-1.635.676l-3.494 3.484 7.639 7.626 3.494-3.483a2.305 2.305 0 0 0 0-3.264zM21.922 35.396l7.64 7.627 21.045-21.006-7.64-7.627zM20.273 37.028l-1.631 9.252 9.271-1.626z"/><path d="M41.393 50.403H12.587V21.597h20.329l5.01-5H10.82a3.243 3.243 0 0 0-3.234 3.234V52.17a3.243 3.243 0 0 0 3.234 3.234h32.339a3.243 3.243 0 0 0 3.234-3.234V29.049l-5 4.991v16.363z"/></svg><svg version="1.0" viewBox="0 0 900 836" id="globus" xmlns="http://www.w3.org/2000/svg"><path d="M383.9 1.4c-.2.2-3.5.7-7.4 1.1-30.5 2.9-49 7.3-81.5 19.3-25.3 9.3-49.3 20.7-73 34.6l-9.5 5.6h5.6c4.2 0 6 .5 7.3 1.9 1 1.1 2.4 1.7 3.2 1.4 2.5-.9 1.5 1.7-1.1 2.9-1.4.6-2.5 1.5-2.5 2 0 1 4.5 0 8.2-1.8 2.8-1.5 7.6-1.7 11.8-.5 3.4.9 1.6 1.7-5.7 2.6-3.4.4-7.1 1.4-8.2 2.3-1 1-2.8 2.2-3.8 2.9-1.7 1-1.7 1.1 0 1.8 2.2.9 13.3-2.6 13-4.1-.1-.6 2-1.6 4.7-2.1 2.8-.6 5-.6 5-.2 0 .5-.3.9-.8.9-.4 0-1.9 1.1-3.2 2.3-1.4 1.3-3.7 2.7-5.2 3-3.1.8-12 6.8-12.6 8.5-.2.8.3 1 1.5.5 1.6-.6 1.6-.5.5 1-1.5 1.8-.8 3.7 1.2 3.7.8 0 1.9.7 2.7 1.6.9 1.1 2.2 1.4 4.8.9 3.3-.6 3.4-.5 1.7.8-2.5 1.9-1 4.7 4.1 7.3 2.1 1 4 2.2 4.3 2.5 1.3 1.6 9 1.8 13.4.3 4.3-1.5 4.8-1.5 7.2 0 1.8 1.2 3.9 1.6 7.7 1.2 2.9-.3 5.7-.5 6.4-.5 2.2-.2 8.4-7.2 9-10.2.4-2.4 1.7-3.6 5.7-5.6 6.9-3.4 7.9-4.3 6.6-5.8-1.9-2.2 1.4-4.6 9.4-6.6 4.3-1.1 8.8-2.7 10.1-3.5 1.2-.8 3-1.2 3.8-.8.9.3 3.8.1 6.4-.4 16.6-3.7 15.2-3 15.5-7 .3-3.4.6-3.7 6.3-5.8 3.3-1.2 10.5-2.7 16-3.4 21.5-2.5 25.2-3.1 32-5.1 3.9-1.2 10.2-2.7 14-3.4l7-1.3-12.2-.1c-7.5-.1-12.3-.5-12.3-1.1 0-.6 1-1 2.3-1 1.6 0 1.8-.3.8-.9-.7-.5-.9-1.1-.5-1.4 1.4-.7 9 0 11.1 1.1 2.9 1.6 13.6 2.4 15.3 1.2 2.6-1.8-1.1-3.6-11.3-5.5-5.1-1-9.6-2.2-10.1-2.6-1.3-1.2 1.6-1.2 4.7 0 1.3.5 4.8 1.1 7.8 1.3 5 .3 5.4.2 5.3-2 0-1.9.5-2.2 3.5-2.3 3.5 0 8.6-1.6 6.6-1.9-.5-.2 1.3-.8 4-1.5l5-1.3-4.2-.1c-5.1-.1-5.8-2.1-.8-2.1 2.3 0 3.5-.5 3.5-1.4 0-1.7-2.2-2.6-6-2.6-1.6 0-3.2-.5-3.5-1-.7-1.1-1-1.1 10.3-1.5 7.7-.3 10.2-.8 9.1-2-.3-.2-2-.6-3.8-.7-1.8-.1-3.5-.6-3.7-1-.3-.4-3.2-.8-6.5-.8-10.2 0-5.6-1.7 6.3-2.3 6.2-.3 12.9-1.1 14.8-1.6 7.5-2.1 14.9-3.2 24.3-3.8 7.8-.5 9.5-.8 8-1.7-1.2-.7-10.6-1-28.7-.8-23.6.2-27.7.5-33.4 2.2-3.5 1.1-7.2 2-8.1 1.9-.9-.1.7-.9 3.6-1.8 2.9-.9 5.5-2 5.9-2.4 1.3-1.3-8.9-.7-18.7 1.1-7.1 1.3-9.6 1.5-9.6.6 0-.7.6-1 1.4-.7.7.3 1.9.1 2.6-.5.6-.6 6.5-1.4 13-1.8 6.5-.3 11.6-.8 11.4-1-.5-.5-48.3-1.5-48.8-1zm9.6 4.6c.3.5.1 1-.4 1-.6 0-1.1-.5-1.1-1 0-.6.2-1 .4-1 .3 0 .8.4 1.1 1zm4.2-.4c-.3.3-1.2.4-1.9.1-.8-.3-.5-.6.6-.6 1.1-.1 1.7.2 1.3.5zm4 0c-.3.3-1.2.4-1.9.1-.8-.3-.5-.6.6-.6 1.1-.1 1.7.2 1.3.5zm-11 1c-.3.3-1.2.4-1.9.1-.8-.3-.5-.6.6-.6 1.1-.1 1.7.2 1.3.5zM418.5 33c.3.5.1 1-.4 1-.6 0-1.1-.5-1.1-1 0-.6.2-1 .4-1 .3 0 .8.4 1.1 1z"/><path d="M450.3 25.7c1.5.2 3.9.2 5.5 0 1.5-.2.2-.4-2.8-.4s-4.3.2-2.7.4zM633 33.4c0 .2.7.7 1.6 1 .8.3 1.2.2.9-.4-.6-1-2.5-1.4-2.5-.6zM651 40.9c0 1 15 8.5 15.6 7.8.3-.2-3.2-2.3-7.6-4.6-4.4-2.2-8-3.7-8-3.2zM424 62c-.8.5-2.8 1-4.3 1-1.6 0-2.6.4-2.2 1 .3.5 3 1 6 1 6.8 0 8.4 1.9 1.8 2.2-4.4.1-4.5.2-1 .5 3.2.4 3.7.7 3.2 2.3-.7 2.3 2.7 3.4 15.5 5 12.1 1.5 19.3 1.3 31.1-.9C485.6 72 490 70.6 490 69c0-.6-1.2-1.5-2.7-2-4-1.4-5.8-2.7-5.6-3.8.2-.7-1.1-.8-3.3-.5-2 .3-4.5 0-5.8-.7-1.7-.8-2.9-.9-4.3-.2-1 .6-8.3 1.2-16.1 1.4-7.8.2-14.2.6-14.2 1 0 .5-1.6.8-3.5.8-2.4 0-3.7-.6-4.5-2-1.2-2.2-3.6-2.6-6-1zM661.7 75.4c-1.5 1.2-.7 1.5 6 2.6 7 1.1 7.5 1.3 5.8 2.6-1.1.8-4.3 1.4-7.8 1.4-5.6 0-11.7 2.2-11.7 4.2 0 1.5-5.3 3-13.5 3.8-26.6 2.9-29.5 4.6-22 12.9 3.3 3.6 3.4 4 1.8 5-1.5.9-1.3 1 1.5 1.1 3.4 0 4.4 1.6 1.5 2.3-2.5.5 6.8 4.6 12.3 5.4 2.4.3 7.3-.2 11.7-1.1 6.3-1.4 7.9-1.5 9.6-.4 1.2.7 2.1 1.8 2.1 2.4 0 .6 1.8 3 4.1 5.4 2.3 2.4 5.4 6.5 7.1 9.1 3.2 5.2 6.3 6.4 8.9 3.3 1-1.3 2.4-1.5 6.1-1.1 4.5.6 10.8-.7 10.8-2.2 0-.3-.9-1.2-2.1-1.9-1.4-.9-1.9-2.1-1.7-3.9.3-2.2.9-2.6 4.2-2.9 6.5-.6 6.5-1.8.3-7.6-8.3-7.7-7.8-9.8 2.7-10.4 9.6-.6 10.9-1.1 10.2-3.8-.4-1.6-.1-2.6.8-2.9 3.4-1.3 18.6 4.4 18.6 7 0 .7-1 1.5-2.2 1.7-5.6 1.2-9.5 1.8-12 1.8-2.2.1-2.8.6-2.8 2.3 0 1.2.6 2.8 1.4 3.4.8.7 1.2 2 .9 3-.4 1.4.8 2.5 4.9 4.8 6.8 3.7 19.3 7.7 21.9 7 2.1-.6 10.4 2.6 11.4 4.3 1.1 1.7-2.7 2.4-5.9 1.1-11.9-4.9-13.6-5.3-18.1-4.7-5.4.9-5.5 2.6-.3 4.1 4.1 1.2 6.8 3.2 6.8 5.1 0 2.5-2.2 2.6-5.9 0-2-1.4-4.5-2.6-5.4-2.6-1.9 0-3.7 3.7-3.7 7.3 0 1.7-.9 2.5-4 3.5-5.3 1.6-7 1.5-9.2-.5-1.5-1.4-4.2-1.7-14.3-1.8-10.1-.1-12.8-.5-14.3-1.8-1.3-1.2-3.7-1.7-8.5-1.7-6.3 0-6.9-.2-10.7-3.6-2.7-2.4-3.8-3-3.3-1.8.6 1.7.5 1.7-1 .5-2.6-2-2-4.1 1.3-5.4 3.5-1.3 3.8-2.3 1-3-1.3-.3-2-1.4-2-3.1 0-2.5-.2-2.5-4.7-1.9-2.7.3-5.6 1-6.5 1.5-2 1-2.4 4.3-.7 5.3 1.8 1.2 6.9 8.7 6.4 9.5-.3.5-5.1.8-10.6.9-9.1 0-10.8.4-16.5 3-5.4 2.5-6.4 3.4-6.4 5.5 0 3.2-.3 3.4-9.4 4.8-6.1.9-7.6 1.5-7.6 2.9 0 1.7-2.8 3.3-4.6 2.7-.5-.1-1.8.3-2.9.9-1.5.8-3 .8-6-.3-5.4-1.9-6.5-1.8-6.5.6 0 1.1.5 2 1.1 2 .5 0 .7.5.3 1.1-.6 1.1-3.7.9-13.4-.7-1.9-.3-4.8-.1-6.4.5-4 1.6-2.1 3.4 5.7 5.5 8.9 2.4 11.7 3.7 11.7 5.1 0 1.9 4.9 7.5 6.5 7.5 2 0 3.2 2.1 3.8 6.7.4 3.6.1 4.6-2.3 7.3l-2.8 3.1-9.8-.6c-5.5-.4-11-.8-12.3-1.1-5.2-.7-10.9-1.4-17.9-1.9-5.9-.4-8.1-.2-11.8 1.4l-4.5 2 1.6 3c.8 1.7 1.5 4.2 1.5 5.6 0 3.8-1.9 11.6-3.6 14.7-1.4 2.7-1.4 2.8 1 3.9 2.2 1.1 2.5 1.9 2.8 7.3l.3 6.1 6.5-.3c8.9-.4 10.6.2 13.6 4.8s4.3 4.8 11.4 2c3.4-1.4 7.7-2.1 12.6-2.1l7.4-.1 7.5-7.3c7-6.8 8.9-9.5 6.5-9.5-1.5 0-1.2-3.8.6-6.5 2.3-3.5 7-6.1 13.6-7.5 6.8-1.3 8.5-2.9 6.7-6.1-1-2-.9-2.5 1.1-4.1 2.7-2.2 4.8-2.3 10-.2 5.1 2.1 9.8 1.5 17.3-2.1 5.6-2.6 5.8-2.6 11.1-1.1 5.4 1.6 11.6 6.9 11.6 10 0 1.9 10.9 9.2 18.5 12.5 4.2 1.7 8.7 4.9 13.4 9.2 5.9 5.5 7.1 7.2 7.1 9.8 0 1.7-.4 3.1-1 3.1-.5 0-1 .5-1 1.1 0 .6.9.9 2.1.7 2.5-.4 7.1-7.9 5.2-8.5-1.5-.6-1.7-4.9-.3-5.8.6-.4 2.6.3 4.6 1.5 1.9 1.2 3.7 2 4 1.8 1.2-1.2-4.1-5.8-10.1-8.7-3.7-1.8-6.9-3.9-7.1-4.6-.3-.7-2.3-1.5-4.4-1.9-4-.6-7.6-3.9-10.6-9.7-.8-1.7-3.5-3.9-6.3-5.4-4.2-2.1-4.9-2.9-5.3-6-.2-1.9-.4-3.5-.3-3.5 0-.1 1.6-.3 3.5-.6 2.9-.4 3.7-.1 4.5 1.8.7 1.6 2.1 2.4 4.6 2.8 2.9.4 4.4 1.5 7.1 5 2.5 3.4 5.6 5.6 12.8 9.2 15.1 7.8 16.5 9.2 17.4 17.6.2 2.2 1.6 4.7 4 7.1 2 2 3.6 4.2 3.6 4.9 0 .7.9 1.2 1.9 1.2 2.3 0 3.6 1.6 2.1 2.5-3.2 2 2.5 11.8 7.5 12.7 2.3.5 2.5.2 2.5-2.8 0-1.8-.5-4.5-1-6.1l-1.1-2.8 2.6 2.7c3 3.2 3.8 3.4 5.5 1.3 1.1-1.3.8-2-2.1-4.5-1.9-1.6-3.7-2.9-4.1-3-.5 0-.8-.8-.8-1.8 0-1.1-.9-2.7-2-3.7s-2-2.2-2-2.7c0-1.3 2.7-.9 4 .7 1.6 1.9 3 1.9 3 .1 0-3.1 6.1-3.9 10.2-1.3 1.9 1.3 17.8 3 17.8 1.9 0-.1-1.6-1.6-3.5-3.3-4-3.5-4.4-6-1.5-8.7 1.1-1 2-2.7 1.9-3.8-.4-3.7.1-5.4 1.6-5.4.8 0 1.5-.5 1.5-1.2s1.2-2.4 2.7-4l2.6-2.7 5.1 2.7c2.8 1.5 5.3 2.8 5.6 3 .2.2-.1.7-.9 1.1-.9.6-.2 1.9 2.8 5.1 3.2 3.3 4.5 4.1 6.3 3.6 1.3-.3 3.3-.6 4.6-.6 1.2 0 2.2-.5 2.2-1 0-.6-.6-1-1.4-1-.8 0-2.4-.9-3.7-1.9-2.8-2.3-2.2-2.6 5.9-3.5 3.9-.4 5.2-.2 4.9.7-.2.7 0 2 .4 2.9.7 1.3.3 2-1.7 3.1l-2.6 1.3 10.7 9.9c10.3 9.6 14.2 14.5 13 16.5-1.7 2.8-12.8-.5-21.9-6.4-7.8-5.2-12.1-6.3-18.7-5-3.2.7-6 .6-9.3-.2-4.3-1.1-4.6-1.1-4.1.5s0 1.6-7.6.3c-4.5-.7-8.7-1.1-9.5-.8-2 .8-1.7 2.3.6 2.9 2.4.6 2.7 4.2.5 5.4-1.2.7-.9 1.5 2 4.3 1.9 1.9 3.5 3.9 3.5 4.4.1 1.5 5.7 7.6 7.1 7.6.6 0 2.7 1.3 4.6 3 4 3.5 4.9 3.7 6.5 1 1.8-2.9 3.7-2.5 9.2 2 5.2 4.3 8.8 5 11.8 2.4 1.3-1.3 2.1-1.4 3.2-.5.7.6 2.1.9 3 .5 1.2-.5 1.6-.1 1.4 1.7-.1 1.3.4 4.8 1.1 7.7 1.1 4.5 1.1 5.6-.3 7.6-.8 1.3-1.8 5.4-2.2 9-.4 3.7-1.1 6.9-1.6 7.2-.4.3-.6 1-.3 1.5 1.1 1.6-5.2.9-10.1-1.2-3.7-1.5-6-1.9-9.6-1.4-5.5.8-11.6-.9-22-6.1-3.7-1.9-7.8-3.4-9.1-3.4-2.9 0-7.3-3.3-8.2-5.9-.8-2.5-6.3-3.5-11.4-2.1-4.9 1.3-5.4 2-5.2 8 0 3.1-.5 5.2-1.4 6-3 2.5-12.9-1.1-24.8-9.2-8.4-5.7-15.5-8.7-22.3-9.4-7.1-.8-10.3-2.3-13.8-6.4-2.8-3.4-3.3-7.3-1.4-11.5 1-2.2.9-3.2-.7-6.1-1.7-3.2-1.7-3.5-.2-5.2 2.4-2.6 2.1-3.3-.8-2.6-2 .5-3.1 0-5-2-2.8-3.1-4.2-3.2-9-.9-3 1.4-4.1 1.5-6.8.5-4.1-1.5-7.2-1.4-11.6.2-2.8 1-4.2.9-8.9-.7-4-1.3-6.9-1.7-10.6-1.2-9.9 1.2-21.2 3.8-27.6 6.2-10.4 4-12.1 4.4-18.8 4.4-6 0-8.3-.8-18.5-5.9-.4-.2-1.8 1.9-3 4.7-1.2 2.9-3.4 5.9-4.8 6.9-1.4.9-6.4 4.2-11 7.3-4.6 3.1-9.6 7-11.1 8.5-2.8 3.1-4.8 8.9-4.8 14.2 0 5.3-7.4 12.2-19 18-9.2 4.6-9.6 4.9-14.7 12.6-2.9 4.3-6.7 11.4-8.5 15.7-1.8 4.4-4.9 10-7 12.5-4.7 5.7-4.8 7.7-.7 22 2.5 8.8 3 12.1 2.7 17.4-.6 7.3-3.7 14.7-7.8 18.8l-2.7 2.7 3 4.4c2.9 4.3 6.1 14.6 5.1 16.3-.6.9 7.2 8.8 16.9 17.3 4.9 4.2 8.2 8.2 11.5 13.9 5.5 9.6 7.5 11.6 16.2 16.2 6.4 3.4 11.8 7.8 16 13.1 3.2 4 11.4 4.3 24 .9 10.9-3 16-3.2 22.1-1.1 6.2 2.2 10.5 2.2 13.7-.2 3.7-2.7 24.2-9.8 34.2-11.9 12.2-2.4 14-1.4 14.6 8.4.3 5.8 1.8 7.5 6.3 6.8 15.8-2.4 20-1.7 25.6 4.5 2.8 3.1 3.4 4.4 2.5 5.4-.6.7-1.4 4.6-1.7 8.7-.4 4.9-1.1 8-2.3 9.3-6.9 7.9-4.9 16 7.6 31.1 8 9.6 8.1 9.8 9.2 16.5.5 3 1.9 8.8 3 12.9 1.2 4.1 2.9 11.8 3.8 17.1l1.7 9.6-2.6 5.6c-1.4 3.1-3.9 7.6-5.5 9.9-12.2 17.8-11.9 32.2 1.1 51.5l3.5 5.3-.5 11.5c-.7 13.1.5 17.9 5.9 23.6 1.7 1.8 4.4 6.6 6 10.8 2.8 7.7 3.3 10.2 2.2 11.4-.8.8-1.2 8.6-.5 8.4.3-.1 1.5.4 2.6 1 2.6 1.4 8.1-.4 13.9-4.5 5.2-3.6 10.1-5.6 12.1-4.8 1.6.6 6.6-1.4 9.5-3.9.8-.7 3.1-1.7 5-2.4 5.7-1.9 10.6-5.9 16.7-13.5 3.2-3.9 8.8-10.1 12.5-13.7 7.6-7.4 12-15.4 11.1-20.1-.6-3.1 2.2-6.2 9.3-10.2 3.3-1.8 4.2-3.1 6.1-8.6 2.5-7.2 2.9-13 1.2-14.7-1.7-1.7-.3-6 2.9-9.1 1.5-1.5 3.4-4.1 4.3-5.7.9-1.7 5.5-6.3 10.2-10.3 11.1-9.4 12.7-12.1 13.8-23 .5-4.8 1.6-11.7 2.5-15.4 1.6-6.1 1.6-7 .1-11-.9-2.4-1.8-9.5-2.2-16.4l-.7-12.1 3.6-6.8c2-3.7 3.6-7.4 3.6-8.2 0-.8 2.2-3.8 4.9-6.6 3.6-3.9 5.1-6.5 6.1-10.4.8-3.8 2.5-6.7 6.2-10.9 7.8-8.9 11.3-14.9 16.3-27.6 6.3-16.3 11.3-39.6 8.8-41.1-.5-.3-3 .8-5.7 2.5-2.6 1.8-5.9 3.1-7.6 3-1.6 0-3.6.8-4.6 1.9-.9 1-2.1 1.9-2.5 1.9-1.5 0-4.7-7.4-5-11.5-.2-2.5-1.1-4.5-2.2-5.4-1.1-.8-3-3.7-4.2-6.6-1.3-2.9-3.6-6.2-5-7.3-3.3-2.6-6.5-8.7-6.5-12.3 0-1.4-2.5-7.5-5.5-13.5-4.7-9.4-5.5-11.7-5.5-16.6 0-5.1-.4-6.4-3.5-10.4-1.9-2.5-3.5-5.4-3.5-6.4 0-1.8-6.7-17.1-15.4-35-4.5-9.4-4.7-12.4-.2-4.6 1.9 3.2 4.3 6.8 5.5 7.9l2.1 2.1v-2.6c0-1.5.5-3 1-3.3.6-.3 1 .1 1 1.1 0 .9 1.7 4.4 3.9 7.8 5.3 8.5 8.1 14.2 8.1 16.6 0 1.2 1.3 3.3 2.9 4.8 3.8 3.6 6.8 9.6 7.6 15.7 1 7.6 2.5 11.4 4.9 13 1.3.9 2.7 3.4 3.4 6.2.7 2.7 3.1 7.8 5.3 11.4 3.2 5.3 3.9 7.4 3.8 11-.3 6.1 1 15.9 2.4 18.9 1.8 3.8 5.3 3.8 7.5 0 1.3-2.4 2.3-3 4.3-2.8 2 .2 3.4-.6 5.4-3.1 1.6-1.8 4.6-4.4 6.7-5.7 2.6-1.7 3.8-3.1 3.8-4.8 0-2.6 1.5-4.2 4.5-4.8 1.1-.2 2.1-1.2 2.3-2.3.2-1.1.9-2.5 1.6-3 .7-.6 1.5-2.6 1.8-4.5.5-3.5-2.2-26.8-4.4-37-1.1-5.4-1.1-5.4-2-2.4-2.4 8.9-10.8 6-10.8-3.7 0-1.8-.4-2.8-1-2.4-.5.3-1-.1-1-1s-.9-2.9-2-4.5c-5.7-8-9.8-25-6-25 1.5 0 5.1 5.9 7.2 11.8 1.1 3.1 2.6 6.1 3.4 6.5.8.4 2.3 2.5 3.4 4.6 1.7 3.5 3.7 5.1 6 5.1 1.1 0-6.7-30.2-12-46.3-3.6-11.1-4.6-13.1-7.1-14.5-1.6-1-2.9-2-2.9-2.4 0-.4-1.4-2.3-3.1-4.2-1.6-1.9-3.5-5-4-6.8-1.3-4.2-1.7-9.8-.7-9.8.4 0-1.3-3.2-3.8-7-2.5-3.9-5-8.5-5.6-10.3-.6-1.7-1.9-4.3-3-5.6-2.2-2.9-2.4-6.9-.3-7.7 1.2-.5.8-1.9-2.2-7.3-20.2-36.4-44.1-68.6-73.3-98.5-16.8-17.2-44.2-41.1-49.2-42.9-1-.4-1.8-1.1-1.8-1.6s-1.7-1.2-3.7-1.6c-2.1-.3-5.7-1.5-7.9-2.5-2.3-1-5.7-1.7-7.5-1.5-1.9.1-3.8-.1-4.4-.5-.5-.4-2.6-1-4.5-1.3-1.9-.3-6.4-1-10-1.5-3.6-.6-7.4-1.3-8.4-1.8-1.5-.6-1.7-.4-1.1.6.6 1 .1 1.2-2.6.6-6.8-1.4-9.4-1.5-11.2-.2zM153 106.8c-6.9 6.1-15 13.5-18 16.7l-5.5 5.6 3.3-.6c1.7-.3 3.2-.1 3.2.4s4.1-.1 9.1-1.5c5-1.3 9.8-2.3 10.7-2.2.8.2 1.7-.3 1.9-1 .3-.8-.8-1.2-3.7-1.2-2.5 0-3.9-.4-3.5-1 .3-.6 2.7-1 5.3-1 5.9 0 11.7-2.7 11.7-5.5 0-1.7-.7-2-5-2-3.9 0-4.9-.3-4.7-1.5.6-2.9 2.4-3.5 9.1-3.2 6 .2 7.1 0 9.7-2.3 3.9-3.4 4.5-3.8 7.7-5.2 3.3-1.5 3.7-3.8.5-2.7-1.3.4-3.4.8-4.8.9-1.4.1-3.6.7-5 1.5-1.5.8-2.5.9-2.7.3-.2-.6-2.4-.9-5.1-.6-4.3.4-4.5.3-2.8-1.1 1-.8 1.6-2 1.4-2.6-.2-.7-6 3.8-12.8 9.8z"/><path d="M548.3 106.6c-1.3 1.4-2.3 3-2.3 3.6 0 .7-.5.6-1.5-.2-.8-.6-2.2-1-3.2-.7-1.4.3-1.1.7 1.4 1.8 2.5 1 3.2 1.8 2.7 3.1-.3 1.2 0 1.8 1 1.8 1.1 0 1.6.9 1.6 2.7 0 1.7.3 2.3.8 1.6 1.1-1.8 5.2-.4 5.2 1.7 0 1-.5 2-1.2 2.2-2.9 1 .8 2.8 5.7 2.8 4.4 0 5.3.3 4.9 1.5-.5 1.1.3 1.7 2.5 2.1 6.1 1.3 2.8 4.4-4.6 4.4-3.2 0-4.3 1.2-2.3 2.5 2.1 1.3.9 3.4-2.5 4.5-4.2 1.4-4.6 2.9-.7 2.8 1.5 0 4 .5 5.6 1.1 1.6.7 4.2.9 5.8.6 1.7-.4 2.8-.2 2.8.4 0 .6-2 1.1-4.6 1.1-3.1 0-6 .8-9 2.6-2.4 1.4-4.4 2.8-4.4 3.1 0 .6 9.3-.8 10.5-1.7.6-.4 8.6-.4 17.9.1 12 .6 17.5.5 19-.3 1.6-.9 1.8-1.2.6-1.5-4.4-1.2-4.4-1.5-1-3.1 1.9-1 3.5-2.4 3.5-3.2 0-2.1-4.5-4.1-7.7-3.6-2 .4-2.6.2-2.2-.8.3-.7-.2-1.9-1.1-2.6-.8-.7-1.5-1.9-1.5-2.6 0-.8-2.4-2.5-5.2-4-2.9-1.4-6.7-4.1-8.5-6-2.5-2.6-4-3.4-6.7-3.4-2 0-3.6-.3-3.6-.8 0-.4 1.6-2 3.5-3.6 4.3-3.6 4.5-5.6.5-5.7-1.6-.1-3.4-.3-4-.4-.5-.1-2.6-.3-4.6-.4-4-.1-4.4-2.4-.5-2.9 4.5-.7 1.4-2.7-4.5-2.9-5.1-.1-6.2.2-8.1 2.3zM536 106c0 .5 1.1 1 2.4 1 1.4 0 2.8-.5 3.1-1 .4-.6-.7-1-2.4-1s-3.1.4-3.1 1z"/><path d="M529.1 123c-1.4.6-2.1 1.6-1.8 2.4.6 1.5-2 2.6-6.5 2.6-1.7 0-2.8.5-2.8 1.3s1.2 1.9 2.8 2.6l2.7 1.3-3 2.4c-1.6 1.3-3.4 2.4-3.8 2.4-.5 0-.7 1-.5 2.2.4 3.2 6.4 4.6 12.1 2.9 2.3-.7 6.9-1.6 10.2-2 6.5-.7 6.1-.1 5.3-7.6-.2-2.5.1-3.1 2-3.3 3-.5 2.5-2.9-1-5.5-3.1-2.3-11.9-3.3-15.7-1.7zM554.5 130c-.3.5.1 1 .9 1 .9 0 1.6-.5 1.6-1 0-.6-.4-1-.9-1-.6 0-1.3.4-1.6 1zM703.4 130.8c.3.6 0 1.3-.6 1.6-.7.3-.4.5.6.3 2.1-.2 2.5-1.9.5-2.6-.6-.2-.9.1-.5.7zM158.2 133c-1.2 1.2-2.2 2.5-2.2 2.9 0 .8-7.4 6.6-11.8 9.4-.7.5-2.6.5-4.3.2-3.2-.7-3.3-1.6-1.2-7 .5-1.6.2-1.7-3-1.1-2.1.4-3.7.3-3.7-.2 0-1.4-4.2-.7-9.2 1.6-4.7 2-15 12.7-15.4 15.9-.2 1-1.7 3-3.3 4.4-3.8 3.1-3.9 3.9-.6 3.9 1.4 0 2.5.5 2.5 1 0 2.6-3.7 8-9.3 13.7-5.7 5.9-6.1 6.5-5.9 10.5.2 3.5-.3 5-2.8 8-3.6 4.3-4.9 4.6-7.5 1.8-1.5-1.7-1.7-2.6-.8-5.5 1.6-5 0-3.5-6 5.8-10.6 16.3-13.9 22.5-13 24.4 1.5 3.3.9 6.7-1.3 7.3-4.6 1.2-7.6 5.2-14.3 19.2-11.2 23.2-20.5 47.6-27.2 71.2-4.3 15.2-4.6 16.9-2.5 14 .8-1 1.8-1.6 2.2-1.2.4.4 1.3.3 2.1-.3 1-.9 1.8-.8 3.3.6 1.1 1 2.1 1.4 2.1.9.1-.5.2-1.4.4-1.9.1-.6.3-2 .3-3.2.2-1.9 2.7-3.7 4.3-3 .3.1 1.4-.4 2.3-1.2 1.4-1.2 2.1-1.2 4.2 0 2.3 1.2 2.8 1.1 3.9-.4 3-4.2 4.5-1.4 4.5 8.6.1 5 .7 8.4 2 11.2 1.1 2.2 1.9 4.6 2 5.2 0 2.7 2.9 1.1 4-2.2 1.1-3.3 1-7.9-.6-23.7-1-10.5.8-14.2 13-26.1 7.1-6.9 10-10.4 9.8-11.7-.2-1.1.2-2 .8-2 .7 0 .9-.7.6-1.6-.4-.9-.2-2.2.4-2.9.6-.7.9-2.1.9-3.1-.1-1.1-.1-3.9.1-6.4l.3-4.5.6 4 .7 4 2.3-4.4c1.2-2.4 2-5.2 1.8-6.2-.3-1.2 0-1.9.8-1.9 1.8 0 5.9-6.8 6-9.9 0-2 .8-2.6 4-3.6 2.2-.6 3.4-1.3 2.7-1.6-.7-.2 2.1-2.1 6.3-4.2 4.1-2.1 7.5-4 7.5-4.2 0-.2-.7-.2-1.5.1-1.8.7-2.1-3.6-.5-6.6 1-1.8 12.3-10 13.9-10 1.8 0 6-4.1 5.5-5.4-.4-1 .7-1.6 3.6-2.1 2.7-.5 5.1-1.7 7-3.8 2.8-3 3-3.1 3-1 0 1.3-.4 2.3-1 2.3-2.1 0-8 6.3-8 8.6 0 4.1 2.8 4 7-.1 2-2 7.3-5.8 11.6-8.3 8.9-5.4 10.2-7.2 5.2-7.3-1.8 0-2.7-.3-2-.6 2.7-1.1 1-1.9-3.7-1.9-5.4.1-5.5.5-.8 2.4l3.2 1.2-3-.6c-3.9-.7-7.5-3.1-7.5-4.8 0-.8-.8-1.6-1.7-1.8-1.4-.3-1.1-.8 1.4-2.2 3.4-2.1 5.9-6.1 4.2-7.1-1.7-1.1-11.6 2.4-16.5 6-6.7 4.8-8.8 6-7.9 4.6.3-.6 3.1-2.9 6-5.1 2.9-2.2 5.6-4.9 6-6 1.1-3.5 10-7.1 23.8-9.6 13.4-2.5 15.7-3.3 19.5-6.7 1.2-1.2 6.4-4.2 11.5-6.7 10.1-4.9 11-6.2 8.1-11.5l-1.7-3.2-7.1 3.3c-3.9 1.8-8.5 3.5-10.1 3.9-1.7.3.7-1.2 5.3-3.4 8.5-4.1 10.2-6.6 3.6-5.1-4.4 1-8.5.4-10-1.5-.6-.8-2.5-1.5-4.3-1.5-3.4 0-3.9-.7-1.5-2.4 1.9-1.5.9-4.2-1.8-4.9-1.5-.4-1.9-1.1-1.5-2.6.4-1.6-.1-2.3-1.9-2.7-1.3-.3-2.4-1-2.4-1.5 0-1.6-3.6-.9-5.8 1.1zm-85.4 97.7c-.2 2-.9 2.8-2.3 2.8s-2.7 1.5-4.4 5.2c-2.3 5.2-4.9 7.3-3.8 3.2.5-1.7.3-1.8-1-.7-1.4 1.1-1.3.8.1-2 1-1.9 1.5-4 1.2-4.8-.8-2.1-3.4-1.7-4.7.8-.6 1.3-1.9 3-2.9 3.8-1 .8-3 5.4-4.4 10.1-1.4 4.8-3.3 9.2-4.1 9.9-2.4 2-1.9-1.4 1.5-10 1.7-4.1 3-8 3-8.6 0-.7 1.9-2.8 4.3-4.8 2.3-2 5-4.2 5.9-5 .9-.8 3.4-1.6 5.5-1.9 2.1-.2 4.4-.4 5.1-.5.9-.1 1.2.7 1 2.5zm13.2 2.4c-1.2 2.1-10.2 6.9-13 6.9-1.5-.1 11.8-9 13.3-9 .4 0 .3.9-.3 2.1zm-17 13.6c-.1 1.3-9 7.6-9.7 6.9-.3-.3-.4-.7-.2-.9.2-.1 2.1-1.7 4.2-3.5 3.6-3.1 5.7-4 5.7-2.5zM662.5 133c-.4.6-.2 1.7.5 2.4.8 1.1.8 1.5-.2 1.9-.7.3-.3.6.9.6 1.2.1 2.7-.8 3.3-1.9.8-1.5.6-2.1-.9-3-2.4-1.3-2.8-1.3-3.6 0zM658.4 135.5c2.1 1.6 3.2 1.3 2.1-.4-.3-.6-1.4-1.1-2.3-1.1-1.5.1-1.5.2.2 1.5z"/><path d="M195.3 164.3c-1.2.7-5 4.8-8.3 9.2-3.3 4.4-6.7 8.3-7.5 8.8-.8.4-1.5 1.4-1.5 2.1 0 .7-.9 2.1-2 3.1-2.7 2.4-1.1 3.9 2.6 2.5 1.6-.7 4.7-1.3 6.9-1.5 2.2-.3 5.7-.6 7.7-.9 3-.3 3.6-.1 3.1 1.1-.5 1.3-.3 1.4 1.8.3 1.3-.7 3.2-2.2 4.1-3.4l1.8-2.1v2.2c0 1.4.6 2.3 1.5 2.3.8 0 1.5.4 1.5 1 0 1.9 3 1 4.5-1.4 1.7-2.6 1.1-5.8-1-5-.7.3-1.6 0-2.1-.7-.4-.7-.2-1.5.4-1.7.7-.2 1.2-.8 1.2-1.3 0-.6-.5-.7-1.1-.3-.8.5-1-.1-.6-1.9.7-2.4.6-2.5-3.6-2-2.3.2-5 .6-6 .8-1.3.2-1.7-.1-1.3-1.1.7-1.7-2.5-1.9-4.2-.2-.9.9-1.2.9-1.2-.1 0-.8 1.6-3.1 3.5-5.2 4.8-5.3 4.7-7.3-.2-4.6zM150 183.9c0 1.8 9.4 2.9 10.4 1.2.3-.5-.4-1.1-1.7-1.5-3.3-.9-8.7-.7-8.7.3zM81.5 193.1c-.9 1.4-.2 2 1.4 1 .8-.6.9-1.1.3-1.5-.6-.3-1.4-.1-1.7.5zM162.6 199.5c-2.1 3.2-2 4.5.2 4.5 2.4 0 6.1-3 4.5-3.6-.7-.3-.9-1.2-.6-2 .9-2.4-2.4-1.6-4.1 1.1zM656.3 207.8c-2.8.4-2.8.3-.2 5.4 2.3 4.6 3.9 3.8 3.9-1.9 0-3.6-.5-4.1-3.7-3.5zM655.6 219.5c-1.6 1.2-1.7 1.7-.6 3 .7.9 1 2.7.6 4.8-.4 2.1-.1 4 .8 5.2 1.4 2 1.5 2 4.3-.1 2.4-1.9 2.8-2.8 2.6-6.5-.2-3.1-.9-4.9-2.4-6.2-2.5-2-2.8-2.1-5.3-.2zM615.5 225c-1.9.7-1.9.7.2 1.8 2.8 1.5 3.3 1.5 3.3-.2 0-2-1.1-2.5-3.5-1.6zM683 243.8c0 .6 1 1.4 2.1 1.7 1.2.4 4.9 2.5 8.2 4.6 3.9 2.6 6.4 3.6 7 3 .7-.7.6-1.5-.2-2.5-.9-1.1-1-2-.2-3.5 1.6-2.9 1.5-3-3.6-2.9-2.7.1-6.7-.2-9-.7-2.9-.5-4.3-.4-4.3.3zM758.1 271c.9.5 3.6 1.2 6 1.5l4.4.5-3.5-1.4c-4.1-1.7-9.5-2.2-6.9-.6zM804.2 277.7c-3.3.6-2.2 2.7 1.6 3.1 2.3.2 3.2-.1 3.2-1.2 0-.8.6-1.7 1.3-1.9 1.5-.6-2.9-.6-6.1 0zM60 339c0 .5.7 1 1.5 1s1.5-.5 1.5-1c0-.6-.7-1-1.5-1s-1.5.4-1.5 1zM60 351.4c0 .8.5 1.8 1 2.1.6.3 1-.3 1-1.4 0-1.2-.4-2.1-1-2.1-.5 0-1 .6-1 1.4zM44 364.4c-2 .6-4.4 2.5-5.7 4.5-3.3 4.9-2.8 5.8 1.2 2.2 4-3.4 5.5-3.9 5.5-1.5 0 1.1.6 1.4 2.1.9 1.3-.4 2.7-.1 3.9 1 1 .9 2.4 1.4 3 1 1.5-.9 8.1 6.2 7.4 7.9-.4 1 .8 1.6 3.9 2 4.9.8 9.7-.6 9.7-2.8 0-2-4.4-5.3-8-6.1-1.7-.4-3.9-1.9-5.1-3.3-1.1-1.5-3.3-3-4.7-3.3-1.5-.4-4.3-1.3-6.2-2.2-2.8-1.2-4.2-1.3-7-.3zM79 372c-.8.5-1.1 1.2-.7 1.6.4.4 1.3.2 1.9-.4 1.5-1.5.7-2.4-1.2-1.2z"/><path d="M40.7 373.9c-.4 1.7-.3 2.1.5 1.3.5-.5.8-1.6.6-2.3-.3-.8-.7-.3-1.1 1zM22.3 379.8c-3 .5-3.7 1.7-5.8 9.8-1.6 6.5-2.1 7.1-4.3 7.1-1.4 0-2.9.8-3.4 1.7-.9 1.6-1.1 1.6-2.4-.1-.7-1-1.4-2.8-1.4-4.1 0-4.4-2-2.1-2.1 2.5 0 2.7-.2 5.7-.4 6.8-.7 3.7-.9 11.5-.2 12.1.9.9 2.7-.5 2.7-2.2 0-1.7 1.4-1.8 2.7-.2.5.7 1.7 3.9 2.7 7.1 1.4 4.8 2.2 5.9 4.9 7.1 1.8.7 3.8 2 4.6 3 1 1.2 1.7 1.4 2.7.5 1.1-.9 1.4-.8 1.4.3 0 .9 1.3 4 3 7.1 1.7 3.3 3 7.2 3 9.3 0 2.3.4 3.4 1.2 3.2 1.4-.5 5.8 4.3 5.8 6.4 0 1.9 2 3.8 4.1 3.8 1 0 2.6 1.4 3.6 3 2.1 3.6 4.9 3.6 4.5.1-.3-2.9 2.3-7.1 4.3-7.1 1 0 1.5 1.1 1.6 3.2.2 4.8.8 7 3 11.1.6 1 1.2 5.1 1.4 9 .1 4 .6 8.4 1 9.9.5 2.1.2 3.1-1.9 4.9-1.4 1.2-3.3 4.4-4.2 7.1-.9 2.7-2.2 5.2-3 5.5-1.1.4-1.4 2.9-1.4 11 0 10.7.9 14.3 3.6 14.3 1.2 0 .9.9-1.1 4.3-1.4 2.4-2.5 5.5-2.5 6.8 0 3 4.1 11.9 6.3 13.8 1 .7 1.7 2 1.7 2.9 0 .9.9 2.5 1.9 3.6 1 1.2 3.9 7.9 6.4 15.1 2.5 7.1 5.5 14.8 6.6 17 1.2 2.1 2.1 5.1 2.1 6.5 0 2.9 5.5 9 14.8 16.5 11.9 9.5 13.1 10.7 15.1 13.8 2.7 4.5 6.1 17.3 6.5 24.9.4 5.6.9 10 2.2 17.8.3 1.4.9 7.4 1.4 13.5.6 6 2.1 14.6 3.5 19 2.6 8.7 3.1 14.3 2 22.2-.6 4.1-.4 6 1.3 9.5 1.1 2.4 2.2 5.6 2.5 7.3.7 4.2 3.1 10.3 4.7 11.8 1 1 1 .8 0-1.1-.6-1.3-.9-2.7-.5-3 1-1 3.5 2.9 3.5 5.4 0 4 33.1 33.9 36.7 33.2 1.5-.4 1.3-.9-1.5-3.4-6.9-5.9-8.2-7.3-8.2-8.4 0-1.6 3.3-1.2 6.5 1 1.7 1.1 3.2 2 3.5 2 .8 0 .4-6.5-.4-7.8-.4-.7-.3-1.2.3-1.2.5 0 1.3.4 1.6 1 .3.5 1.4 1 2.3 1 1.9 0 .6-1.6-2.9-3.4-2.6-1.3-6.5-6.3-5.7-7.2.4-.3 2.6.6 5.1 2 5.4 3.2 8.1 3.4 7.3.6-.3-1.1-.9-2.9-1.2-4-.4-1.6-.1-2 1.9-2 1.4 0 4.1.7 6 1.5 5.4 2.2 12.8 2 15.5-.5 3-2.8 2.8-5.7-.7-9.4-7.2-7.6-10.1-10.9-9.7-11.3.2-.3 3.9 1.2 8.3 3.3 8.8 4.1 15.4 5.4 17.9 3.3.8-.7 2.6-3.4 3.9-5.9 1.3-2.5 5.2-7.3 8.7-10.6 3.5-3.2 7.1-7.1 8-8.6 1-1.4 2.6-2.9 3.6-3.2 1.9-.6 1.9-.9.2-9.2l-1.8-8.6 3.7-1.5c2-.8 4.6-2.4 5.8-3.5 1.2-1.1 4.3-2.4 7-2.9 2.6-.5 6-1.8 7.4-2.8 1.9-1.4 4.7-2 11.1-2.2 9-.4 12.8-2.2 12.8-5.8 0-.9 2-4.3 4.4-7.5 3.1-4.2 4.6-7.2 5-10.5.3-2.5 1.5-6 2.6-7.6 1.7-2.5 2-4.7 2-13.1 0-6.4-.5-11.7-1.5-14.3-1.3-3.8-1.3-4.3.3-5.6.9-.7 3.2-2.6 5.1-4.1 5.2-4.3 16.9-19.3 20.1-25.9 5.2-10.6 5.1-24.2-.3-28-1.2-.9-4.3-1.5-7.3-1.5-5.5 0-9.8-2.4-17.9-10-5.2-4.9-12.9-7.4-20.2-6.7-4.4.5-6.4.1-10.8-1.9-5.1-2.4-5.6-2.4-8.4-1-3.9 2.1-3.9 2.1-4.3-1.6-.2-2.7-1.2-3.7-5.8-6.5-6.9-4.1-15-6.8-18.1-6-1.4.4-3.9 2.9-5.9 5.7-2.9 4.4-3.6 4.9-4.6 3.6-.6-.9-2.3-1.6-3.8-1.6-1.9 0-2.9-.7-3.6-2.5-.5-1.3-2-2.7-3.4-3.1-3.2-.8-3.9-2.9-2.5-7.3 1.4-4.1 3-6.9 7.2-12.4l2.9-3.7-2.5-3c-2.1-2.5-6.6-12.3-6.7-14.8-.1-.4-2.3-2.5-5-4.7-5.6-4.6-14.4-8-23.3-8.9-11.3-1.3-12.7-2-20.6-10.6-6.4-7-7.8-8-10.7-8-2.7 0-3.4-.4-3.4-1.9 0-3.5-1.2-5.2-4.8-6.7-2-.8-4.4-2.2-5.4-3.1-1.7-1.5-1.7-1.7 0-3 1.5-1.3 1.2-1.4-3.1-1-2.6.3-5.6 1.1-6.5 1.9-2.6 2.3-5.9 2.8-7.9 1.2-1-.7-4.2-1.4-7.1-1.4-4.6 0-5.4-.3-6.2-2.4-.4-1.3-2-2.6-3.4-3-1.4-.3-3-1.5-3.6-2.6-.6-1.1-1.7-2-2.5-2-2 0-1.9 1 .3 2.6 1.6 1.2 1.6 1.3-.4 1.4-1.2 0-3.2.8-4.5 1.8-2.1 1.8-2.2 2.1-.9 6.6 1.3 4.8.5 7.6-1.9 6.2-1.6-1-1.3-11.6.4-14.9 1.3-2.6 1.1-5.7-.4-5.7-.4 0-1.8 1.1-3.1 2.5-1.2 1.3-4.4 3.1-6.9 4-6.7 2.2-8.8 4-9.5 8-.7 3.6-4.5 10.4-5.9 10.5-.4 0-1.6-2-2.7-4.5-2.4-5.7-4.8-6.2-10.3-2.2-2.9 2.1-3 2.2-4.1.3-.6-1.1-2.4-3.4-4-5.3l-2.9-3.4.5-15.4c.5-15.2.5-15.4-1.8-17.6-2.2-2-2.7-2.1-8-1-3.2.6-6 .9-6.3.6-.2-.3.1-2 .7-3.8.7-1.9 1.2-5.1 1.2-7.3s.4-4.4.9-5c.7-.8 4.1-14.2 4.1-16.4 0-1-3-1.6-5.7-1.2zM80.4 381.1c-.2.4.4 2.1 1.2 3.9 1.9 3.7.8 5.1-3.3 4.4-2.7-.5-4.3 2-2.4 3.9.8.8 1.1.8 1.1 0 0-1.3 6.1-2.6 8.4-1.7.9.3 1.6 1.2 1.6 2 0 2.2 1.6 1.7 3.4-1.1 1-1.5 2.2-2.2 3.1-1.9.8.4 2.1.2 2.8-.4.6-.6 2.7-1.2 4.6-1.4l3.4-.3-4.9-4c-4.6-3.8-5.2-4-11.7-4-3.8 0-7.1.3-7.3.6zM111 388c-.7.4-.9 1.3-.6 1.9.9 1.3 6.2 1.5 7 .2.8-1.2-4.8-3.1-6.4-2.1zM59.7 391.7c-1 1-.8 4.3.2 4.3 2.3 0 6.3-2.1 5.5-2.9-1.4-1.3-5-2.2-5.7-1.4zM893.6 432.9c-.4.7-.5 1.5-.2 1.8.9.9 1.9-.4 1.4-1.8-.4-1.1-.6-1.1-1.2 0zM141.1 446.2c-1.1 2.9.7 3.8 2.6 1.2 1.7-2.3 1.7-3.4-.2-3.4-.9 0-1.9 1-2.4 2.2z"/><path d="M211.2 527.2c-3.3 3.3.9 10.8 6.9 12.3 2.1.5 3.1.1 4.8-2.1 1.1-1.5 2.1-4 2.1-5.6 0-2.5-.3-2.8-2.1-2.3-1.2.4-2.4.3-2.8-.1-.9-1.3-4.9-3.4-6.4-3.4-.7 0-1.8.5-2.5 1.2zM868.8 585.6c-.3.5-.8 2.1-1.1 3.5-.9 3.5-9.7 16.7-13.7 20.4-4.7 4.4-7 9.6-7 15.7 0 5.2-1.7 9.6-7 18.8-1.1 1.9-2 5.1-2 7 0 1.9-.4 5-1 6.9-.6 2.2-.6 4 .1 5.2.9 1.8 1.2 1.8 3.9.4 1.6-.8 4.1-3.5 5.5-6 4.3-7.2 12.3-26.1 16.6-39 2.2-6.6 4.4-12.8 5-13.8 1.4-2.6 3-16.7 2-18.4-.4-.9-1-1.2-1.3-.7z"/></svg><svg viewBox="0 0 79 79" id="icons-article-02" xmlns="http://www.w3.org/2000/svg"><style>.amst2{fill:#009aff}</style><g id="amAnalistycs"><path d="M13.4 47C4 37.6 4 22.4 13.4 12.9c9.4-9.4 24.7-9.4 34.1 0 9.5 9.5 9.5 24.7 0 34.1-9.4 9.5-24.6 9.5-34.1 0z" style="fill:#fff"/><path class="amst2" d="M76.7 66.5c-1.3-1.1-10.1-9.2-16.7-15.3l-7.6-7c7-11.1 4.8-24.5-3.4-32.8-10.3-10-26.8-10-37 .1-10.2 10.2-10.2 26.8 0 37C20.2 56.7 33.6 59 44.7 52c.8.8 21.9 24 22.5 24.6 2.7 2.7 7.1 2.7 9.7 0 2.6-2.6 3-6.9-.2-10.1zM13.4 47C4 37.6 4 22.4 13.4 12.9c9.4-9.4 24.7-9.4 34.1 0 9.5 9.5 9.5 24.7 0 34.1-9.4 9.5-24.6 9.5-34.1 0zm33 3.8c2.3-1.8 3.3-3 4.8-4.8l4.1 3.8-5.2 5.2c-3.8-4.3-2.9-3.4-3.7-4.2z"/><path class="amst2" d="M30.5 50.7C19.1 50.7 9.8 41.4 9.8 30S19.1 9.4 30.5 9.4 51.1 18.6 51.1 30s-9.2 20.7-20.6 20.7zm0-39.4c-10.3 0-18.7 8.4-18.7 18.7s8.4 18.7 18.7 18.7S49.2 40.3 49.2 30s-8.4-18.7-18.7-18.7z"/><path d="M15 33.8c.8-1.1 2.1-2.3 10-9.8.6-.6 1.5-.6 2.1 0l9 8.7 6.9-8.4c.5-.6 1.5-.7 2.1-.2.6.5.7 1.5.2 2.1l-7.9 9.7c-.3.3-.7.5-1.1.5-.4 0-.8-.1-1.1-.4L26 27.1c-4.5 4.3-7.9 7.7-8.7 8.5-.8.8-1.8.8-2.4.3-.3-.2-.8-1 .1-2.1zm1.3 2.6zm0 0zm-9 5.6L.8 48.1c-.6.6-.6 1.5-.1 2.1.3.3.7.5 1.1.5.4 0 .7-.1 1-.4l6-5.7c-.5-.8-1.1-1.7-1.5-2.6zM57 7.4l5.2-.2-9.4 9.4c.5.9 1 1.8 1.4 2.8 0 0 .1 0 .1-.1l10-10-.3 5.3c-.1.8.6 1.5 1.4 1.6.8.1 1.5-.6 1.6-1.4l.6-9.2v-.5c0-.1-.1-.3-.2-.4v-.1c-.1-.2-.4-.4-.6-.5-.3-.1-.5-.1-.6-.1h-.3l-9 .4c-.8 0-1.5.7-1.4 1.6 0 .7.7 1.4 1.5 1.4z" style="fill:#0f43aa"/><path class="amst2" d="M75.6 75.1c-2.1 2.1-5.3 1.8-7.1-.2l-17-18.5 5.3-5.3L75.4 68c2.2 2 2.1 5.2.2 7.1z"/></g></svg><svg viewBox="0 0 79 79" xml:space="preserve" id="icons-article_Manager" xmlns="http://www.w3.org/2000/svg"><path fill="#0F43AA" d="M27.7 24.4c.2 1.2.7 2 1.1 2.5 1.1 7.4 7.3 14.4 13 14.4 6.6 0 12.7-7.5 13.8-14.3.5-.5 1-1.3 1.2-2.5.4-1.4.9-3.8 0-5 0-.1-.1-.1-.1-.2.8-2.9 1.8-9-1.8-13.1-.3-.4-2.4-2.8-6.7-4.1l-2.1-.7C42.7.3 40.6 0 40.5 0H40c-.1 0-.5.1-.8.1-.8-.1-2 .3-2.3.4S30 3.3 28 9.5c-.2.5-1 3.1.1 9.6-.2.1-.3.2-.4.4-.9 1-.4 3.5 0 4.9zm2.6-14.1v-.1c1.6-5.1 7.4-7.4 7.5-7.5.3-.1.8-.2 1.1-.2.6.1 1.2 0 1.6-.1.6.1 2.4.4 5 1.2l2.1.7C51.4 5.5 53 7.6 53 7.6l.1.1c3.4 3.8 1.6 10 1 11.9-.1.4 0 .9.3 1.2.2.2.3.3.6.3 0 .6-.2 1.7-.4 2.6v.1c-.1.7-.3 1.2-.6 1.4-.3.2-.4.5-.5.8-.8 5.7-6.1 12.7-11.5 12.7-4.5 0-9.9-6.4-10.7-12.7 0-.3-.2-.6-.5-.8-.3-.2-.5-.7-.6-1.4v-.1c-.2-.9-.4-1.9-.4-2.5.2 0 .5-.1.6-.3.4-.3.5-.7.4-1.2-1.4-6.8-.5-9.4-.5-9.4z"/><path fill="none" d="M30.3 10.3v-.1c1.6-5.1 7.4-7.4 7.5-7.5.3-.1.8-.2 1.1-.2.6.1 1.2 0 1.6-.1.6.1 2.4.4 5 1.2l2.1.7C51.4 5.5 53 7.6 53 7.6l.1.1c3.4 3.8 1.6 10 1 11.9-.1.4 0 .9.3 1.2.2.2.3.3.6.3 0 .6-.2 1.7-.4 2.6v.1c-.1.7-.3 1.2-.6 1.4-.3.2-.4.5-.5.8-.8 5.7-6.1 12.7-11.5 12.7-4.5 0-9.9-6.4-10.7-12.7 0-.3-.2-.6-.5-.8-.3-.2-.5-.7-.6-1.4v-.1c-.2-.9-.4-1.9-.4-2.5.2 0 .5-.1.6-.3.4-.3.5-.7.4-1.2-1.4-6.8-.5-9.4-.5-9.4z"/><path fill="#009AFF" d="M68 46.7c-2.1-2.9-9.2-4.7-12.3-6.1-1.9-1-3.5-2-3.9-3l1.4 11.6-10.5 27-9.9-26.5.2-12.2c-.9 2.8-11.7 6.1-11.7 6.1-3.2 1.2-4.6 3.1-4.6 3.1-4.7 7-5.3 22.7-5.3 22.7.1 3.6 1.6 3.9 1.6 3.9 8.1 3.6 23.9 6.1 30.6 5.6v.1s17.1-.9 28-5.7c4.3-1.1-1.1-22.8-3.6-26.6z"/><path fill="none" d="M50.6 36.8c-2.5 2.6-5.5 4.4-8.8 4.4-2.9 0-5.9-1.8-8.3-4.4l-.5.7-.2 12.2 9.9 26.5 10.5-27-1.4-11.6-1.2-.8z"/><path fill="#0F43AA" d="m42.7 73.6 3.5-21.7-3.5-2.3-3.6 2.3 3.6 21.7zM38 42.4l4.7 7.1 4.7-7.1c-5.2 2.2-9.4 0-9.4 0z"/></svg><svg viewBox="0 0 48 48" xml:space="preserve" id="icons8-telegram-app" xmlns="http://www.w3.org/2000/svg"><path d="M40.6 6c-.6 0-1.1.2-1.6.3-.4.2-2 .8-4.4 1.9s-5.7 2.4-9.2 3.9c-7 2.9-14.8 6.2-18.8 7.9-.1.1-.7.2-1.3.7-.6.4-1.3 1.5-1.3 2.6 0 .9.5 1.8 1 2.4s1.1.8 1.6 1c1.6.6 6.2 2.5 7.3 2.9.4 1.2 2.1 6.2 2.5 7.5.3.9.6 1.5.9 2 .2.2.4.5.7.6.1.1.2.1.3.2h.4c.3.1.5.1.8.1 1.1 0 1.8-.6 1.8-.6l4.7-4 5.8 5.3c.1.1.9 1.3 2.8 1.3 1.1 0 2-.6 2.6-1.2.6-.6.9-1.2 1.1-2 .1-.7 5.6-28.3 5.6-28.3.2-.8.2-1.5 0-2.3s-.7-1.5-1.4-1.9-1.3-.4-1.9-.3zm-.8 4.3c-.2 1.1-5.1 25.9-5.5 27.4L26 30l-5.6 4.7 1.6-6.1s10.7-10.9 11.4-11.5c.5-.5.6-.7.6-.9 0-.2-.1-.4-.4-.4-.2 0-.6.2-.8.4-2.3 1.4-12 7-16.8 9.7-.3-.1-4.6-1.9-6.9-2.8 4.1-1.7 11.3-4.7 17.9-7.5 3.5-1.5 6.7-2.8 9.2-3.9 2-.7 3.1-1.1 3.6-1.4zm-5.5 27.8c0-.1 0 0 0 0z"/></svg><svg viewBox="0 0 30 30" xml:space="preserve" id="icons8-viber" xmlns="http://www.w3.org/2000/svg"><path d="M25.4 8.3C25 6.9 24.1 5.7 23 4.9c-1.5-1-3.2-1.4-4.7-1.6-2.1-.3-3.9-.3-5.7-.1-1.7.2-2.9.5-4.1 1.1-2.2 1-3.6 2.7-4 5-.2 1.1-.3 2.1-.4 3-.2 2.2 0 4.1.5 5.9.5 1.7 1.4 3 2.7 3.8.3.2.8.4 1.2.5.2.1.4.1.6.2v3.5c-.1.4.3.8.7.8.2 0 .4-.1.6-.2l3.3-3.2c.1-.2.1-.2.3-.2 1.1 0 2.2-.1 3.4-.1 1.4-.1 3-.2 4.4-.8 1.4-.6 2.4-1.5 3-2.7.6-1.3 1-2.6 1.1-4.2.2-2.8.1-5.1-.5-7.3zm-5.7 10.4c-.3.5-.8.9-1.4 1.1-.4.2-.9.1-1.3 0-3.5-1.5-6.2-3.8-8-7.1-.4-.7-.6-1.4-.9-2.2-.1-.1-.1-.3-.1-.4 0-1.2.9-1.8 1.8-2 .3-.1.7 0 .9.3.7.7 1.3 1.5 1.7 2.4.2.4.1.7-.2 1l-.2.2c-.7.5-.8 1-.4 1.8.7 1.4 1.7 2.3 3.2 2.9.4.2.7.1 1-.2l.1-.1c.6-.9 1.4-.8 2.1-.3.5.3 1 .7 1.4 1.1.7.3.7.8.3 1.5zm-4.2-9.6h-.6c-.3.1-.6-.2-.7-.5-.1-.3.2-.6.5-.7.3.1.6.1.8.1C18 8 20 10 20 12.5c0 .3 0 .5-.1.7 0 .3-.3.5-.6.5h-.1c-.3-.1-.5-.3-.5-.7v-.6c.2-1.8-1.3-3.3-3.2-3.3zm2.5 3.8c0 .3-.3.6-.6.6s-.6-.3-.6-.6c0-.9-.8-1.7-1.7-1.7-.3 0-.6-.3-.6-.6s.3-.6.6-.6c1.6 0 2.9 1.3 2.9 2.9zm3.8.7c-.1.3-.3.4-.6.4h-.1c-.3-.1-.5-.4-.4-.7.1-.4.1-.7.1-1.1 0-2.8-2.3-5-5-5-.4 0-.8 0-1.1.1s-.6-.1-.7-.4c-.1-.3.1-.6.4-.7.5-.1 1-.2 1.4-.2 3.4 0 6.2 2.8 6.2 6.2 0 .4-.1.9-.2 1.4z"/></svg><svg viewBox="0 0 48 48" xml:space="preserve" id="icons8-whatsapp-48" xmlns="http://www.w3.org/2000/svg"><path d="M38.2 9.8C34.4 6 29.4 4 24 4 13 4 4 13 4 24c0 3.6 1 7 2.6 10L4 44l10.4-2.4c3 1.6 6.2 2.4 9.6 2.4 11 0 20-9 20-20 0-5.4-2-10.4-5.8-14.2zm-4.4 21.4c-.4 1.2-2.4 2.2-3.4 2.4-1 0-1.8.4-6-1.2-5-2-8.2-7.2-8.6-7.6-.2-.4-2-2.8-2-5.2s1.2-3.6 1.8-4.2c.4-.6 1-.6 1.4-.6h1c.4 0 .8 0 1.2.8.4 1 1.4 3.4 1.6 3.8s.2.6 0 .8c-.2.2-.2.6-.4.8l-.8.8c-.2.2-.6.6-.2 1 .2.6 1.2 2.2 2.8 3.4 2 1.8 3.6 2.2 4 2.4.6.2.8.2 1-.2.2-.4 1.2-1.4 1.6-2s.6-.4 1.2-.2 3 1.4 3.4 1.6c.6.2.8.4 1 .6-.2.6-.2 1.6-.6 2.8z"/></svg><svg viewBox="0 0 79 79" xml:space="preserve" id="libra" xmlns="http://www.w3.org/2000/svg"><g stroke-width="2" stroke-miterlimit="10"><path fill="none" stroke="#0F43AA" d="M40.8 8.3v64.8"/><circle fill="#009AFF" stroke="#0F43AA" cx="40.8" cy="63.9" r="3.9"/><path fill="#009AFF" stroke="#0F43AA" d="m68.3 74.8-11.8-1.7-15.7-2.3L25 73.1l-11.8 1.7c-.6.1-.5.6.2.6h54.9c.5 0 .7-.5 0-.6z"/><path fill="none" stroke="#0F43AA" d="M12.6 11.4C18.9 7.5 30 6.7 41.9 9.7S63.1 19 66.7 25.4"/><path fill="#FFF" stroke="#0F43AA" stroke-linejoin="bevel" d="M12.6 14.2 1.3 44.5h22.6L12.6 14.2zM66.3 28 55 58.3h22.6L66.3 28z"/><circle fill="#009AFF" stroke="#0F43AA" cx="40.8" cy="8.6" r="3.9"/><circle fill="#FFF" stroke="#009AFF" cx="12.6" cy="12.7" r="1.5"/><circle fill="#FFF" stroke="#009AFF" cx="66.3" cy="26.8" r="1.5"/><path fill="#009AFF" stroke="#0F43AA" d="M12.6 48.4c-6.2 0-11.3-1.8-11.3-3.9h22.6c0 2.2-5 3.9-11.3 3.9zm53.7 14.1c6.2 0 11.3-1.8 11.3-3.9H55c0 2.2 5.1 3.9 11.3 3.9z"/></g></svg><svg viewBox="0 0 79 79" xml:space="preserve" id="loop" xmlns="http://www.w3.org/2000/svg"><path fill="#FFF" d="M13.4 47C4 37.6 4 22.4 13.4 12.9c9.4-9.4 24.7-9.4 34.1 0 9.5 9.5 9.5 24.7 0 34.1-9.4 9.5-24.6 9.5-34.1 0z"/><path fill="#009AFF" d="M76.7 66.5c-1.3-1.1-10.1-9.2-16.7-15.3l-7.6-7c7-11.1 4.8-24.5-3.4-32.8-10.3-10-26.8-10-37 .1-10.2 10.2-10.2 26.8 0 37C20.2 56.7 33.6 59 44.7 52c.8.8 21.9 24 22.5 24.6 2.7 2.7 7.1 2.7 9.7 0 2.6-2.6 3-6.9-.2-10.1zM13.4 47C4 37.6 4 22.4 13.4 12.9c9.4-9.4 24.7-9.4 34.1 0 9.5 9.5 9.5 24.7 0 34.1-9.4 9.5-24.6 9.5-34.1 0zm33 3.8c2.3-1.8 3.3-3 4.8-4.8l4.1 3.8-5.2 5.2c-3.8-4.3-2.9-3.4-3.7-4.2z"/><path fill="#009AFF" d="M30.5 50.7C19.1 50.7 9.8 41.4 9.8 30S19.1 9.4 30.5 9.4 51.1 18.6 51.1 30s-9.2 20.7-20.6 20.7zm0-39.4c-10.3 0-18.7 8.4-18.7 18.7s8.4 18.7 18.7 18.7S49.2 40.3 49.2 30s-8.4-18.7-18.7-18.7z"/><path fill="#0F43AA" d="M15 33.8c.8-1.1 2.1-2.3 10-9.8.6-.6 1.5-.6 2.1 0l9 8.7 6.9-8.4c.5-.6 1.5-.7 2.1-.2s.7 1.5.2 2.1l-7.9 9.7c-.3.3-.7.5-1.1.5-.4 0-.8-.1-1.1-.4L26 27.1c-4.5 4.3-7.9 7.7-8.7 8.5-.8.8-1.8.8-2.4.3-.3-.2-.8-1 .1-2.1zM7.3 42 .8 48.1c-.6.6-.6 1.5-.1 2.1.3.3.7.5 1.1.5s.7-.1 1-.4l6-5.7c-.5-.8-1.1-1.7-1.5-2.6zM57 7.4l5.2-.2-9.4 9.4c.5.9 1 1.8 1.4 2.8 0 0 .1 0 .1-.1l10-10-.3 5.3c-.1.8.6 1.5 1.4 1.6s1.5-.6 1.6-1.4l.6-9.2v-.5c0-.1-.1-.3-.2-.4v-.1c-.1-.2-.4-.4-.6-.5-.3-.1-.5-.1-.6-.1h-.3l-9 .4c-.8 0-1.5.7-1.4 1.6 0 .7.7 1.4 1.5 1.4z"/><path fill="#009AFF" d="M75.6 75.1c-2.1 2.1-5.3 1.8-7.1-.2l-17-18.5 5.3-5.3L75.4 68c2.2 2 2.1 5.2.2 7.1z"/></svg><svg version="1.0" viewBox="0 0 640 640" id="money" xmlns="http://www.w3.org/2000/svg"><path d="M223 103.1c-71.9 4.8-124.3 21.8-137.8 44.9-2.8 4.7-3 7.1-2.5 44v42.5c.1 2.2.1 11.6 0 21v21c.1 2.2.1 12 0 21.7v43.5c.1 9.8.1 19.6 0 21.8v85c-.1 2.2-.2 11.9-.2 21.5 0 17.2 0 17.6 2.7 22 22.3 38.1 151.8 57.4 259.8 38.9 11-1.9 26.9-5.5 27.7-6.3.2-.2-1.8-1.6-4.4-3.2-7.4-4.2-15.2-10.2-22-16.7l-6.2-5.9-19.4 2.1c-58.9 6.6-123 3.6-170.5-8-27.1-6.6-46-15.4-56.4-26.3-2.3-2.4-5.2-8.5-4.4-9.3.3-.3 2.6 1.1 5.1 3.1 20.3 16.7 65.6 29 123.7 33.7 20.7 1.6 78.6.7 98.3-1.6 8.3-1 15.2-1.9 15.3-2.1.2-.1-1.9-3.5-4.6-7.6-2.7-4-6.8-11.1-9.1-15.6-3.9-7.8-4.4-8.3-6.9-7.8-13.9 2.8-74.4 3.1-101.2.6-51.5-4.9-95.5-17.5-112.3-32-3.9-3.5-8.7-10.3-8.7-12.5 0-1.4 2.6-.2 6.3 3.1 9.4 8 35.8 18.6 59.6 23.9 35.5 7.8 76.2 11.3 117.6 10 31.8-1 38.1-1.6 37.8-3.5-.1-.8-1.1-5.3-2.2-10-1.1-4.6-2.3-11.2-2.6-14.6l-.7-6.1-36.2.5c-46.8.6-71.4-1.3-106.3-8.4-40-8-68.5-22.2-72.8-36.2-.8-2.9.3-2.8 4 .4 10.5 9 33.6 18.8 58.5 24.8 11.1 2.6 40.8 7.4 55.5 8.8 14.6 1.4 94.7 1.9 96 .6.4-.3 1.1-5.1 1.6-10.5s1.5-12.7 2.3-16.3c.8-3.6 1.2-6.7 1-6.9-.2-.2-8.8.2-19.1.8-91.6 5.4-183.7-13.7-198.3-41.2-2.9-5.4-2.1-7.1 1.8-3.5 26.7 24.6 111.5 40.3 193.6 35.8 12-.6 22.9-1.5 24.1-2 1.3-.5 2.8-2.6 4-5.7 2.2-5.9 9.4-18.8 14.3-25.5 2.8-4 3.2-4.9 1.6-4.5-1 .4-8.6 1.4-16.9 2.4-12 1.4-23.1 1.7-55.5 1.7-35.7 0-42.7-.3-58.7-2.2-54.2-6.6-91.1-18.8-105-34.6-3.5-4-6.1-9.6-4.5-9.6.3 0 3 1.9 6.1 4.2 15.8 11.9 44.1 21.7 80.6 27.8 41.7 6.9 101.4 7.9 147 2.4 16.7-2 16.8-2 22.2-7 22.3-20.5 49.1-32.4 79-34.9l8.2-.8 1.1-5.1c.8-3.3 1-10.6.6-20.6-.3-8.5-.5-17.3-.4-19.5.1-2.2.1-11.3.1-20.3v-21c.2-43.1.4-39.3-2.5-44.3-13.8-23.4-68-40.6-141.2-44.9-20.2-1.1-49.2-1.1-67.6.1zm74 6.9c27.8 2 49.9 5.4 71.9 10.9 35.8 9.1 59.1 23.6 59.1 36.7 0 8-9.4 17.2-25.4 24.9-58.2 28-186.7 32.3-265.6 8.9-13.1-3.9-33.7-13.7-39.2-18.7-11.1-10.2-11.6-18.8-1.7-28.4 17.7-17 68.6-30.9 127.4-34.6 12.5-.8 60.4-.6 73.5.3zM94 204.8c13.6 11 36.4 19.8 69 26.7 42.3 8.9 110.7 11 159.6 5 46.4-5.8 84.1-17.7 100.4-31.8 3.8-3.3 5-2.4 3 2.4-1.9 4.4-10.4 11.4-20.3 16.5-31.3 16.2-84.8 25.4-147.2 25.4-68.3 0-126.2-11.2-154.7-29.7-7.4-4.9-13.3-11.1-14.1-14.9-.6-3.1.1-3 4.3.4zm-1.9 40.8c2.4 2.9 12.9 9.5 20.7 13.1 43.2 19.7 120.8 28.4 195.2 21.7 53.2-4.8 94.5-16.7 114.8-33.1 4.8-3.9 5.8-3.9 4.2.2-4.1 10.8-24 22.6-51.5 30.4-46.5 13.2-117.9 17.4-177.3 10.6-60.5-7-103-23.5-108.7-42.3-.7-2.6.7-2.9 2.6-.6z"/><path d="M412.8 288.5c-59.7 11.2-103 65.1-100.5 125 1.9 44.8 25.4 82.6 65.1 104.5 8.8 4.9 26.5 10.8 37.4 12.6 13.1 2.1 36.3 1.4 47.9-1.5 47.5-11.9 82.6-47.9 92.3-94.8 6.9-33 .6-64.7-18.6-93.5-16.9-25.4-41.4-42.5-72.9-50.9-10.5-2.8-38.9-3.6-50.7-1.4zm24.5 63.3c-.4 3.4 1.4 6.2 4 6.2 4.8.1 16.7 7.4 16.7 10.4 0 .6-1.3 2.7-2.9 4.6l-2.9 3.5-3.4-3.1c-4.6-4.3-7.9-6.4-10-6.4-1.7 0-1.8 1.2-1.6 16.7l.3 16.7 6.2 3.1c14 6.7 19.7 14.6 19.6 26.9-.1 14.1-7.1 23-20.8 26.1l-5 1.2v4.9c0 4.6-.2 4.9-2.5 4.9s-2.5-.4-2.8-5.1l-.3-5.2-5.8-1.1c-6.2-1.2-12.9-5-17.3-9.8l-2.8-2.9 3.9-3.8 4-3.9 3.2 3.3c3.8 3.7 9.4 7.5 12.7 8.5l2.2.6v-37.7l-5.9-2.9c-8.5-4-14.8-10.5-16.7-17.4-2.3-7.8-1.4-16.2 2.3-21.5 3.5-5 10.7-9.6 16.2-10.3l4.1-.6v-4.4c0-4.2.1-4.4 2.8-4.1 2.2.2 2.7.8 2.5 2.6z"/><path d="M425.3 369c-4 2.4-6.3 6.7-6.3 12 0 6.4 3 10.8 10.3 15.3l2.7 1.7v-15.5c0-17.3-.1-17.6-6.7-13.5zM438 431.1v17.1l2.8-.7c7.1-1.7 11.2-7.3 11.2-15.3 0-5.9-.9-8.3-4.9-12.5-2.3-2.6-7.1-5.7-8.6-5.7-.3 0-.5 7.7-.5 17.1z"/></svg><svg viewBox="0 0 79 79" xml:space="preserve" id="money-arrow" xmlns="http://www.w3.org/2000/svg"><path fill="#FFF" d="M18.6 43.6 3.5 35.1 29.1 19l15.1 8.5-25.6 16.1z"/><path fill="#FFF" d="M18.6 52.1 1.3 42.2c-.4-.2-.4-.8 0-1L30.6 24l15.6 9.4c.6.4.6 1.3 0 1.6L18.6 52.1z"/><path fill="#FFF" d="M18.6 47.8 1.2 37.9c-.4-.2-.4-.8 0-1L29.1 19l16.7 9.9c.7.4.7 1.5 0 1.9l-27.2 17z"/><path fill="#FFF" d="M18.5 56.3 1.2 46.4c-.4-.2-.4-.8 0-1l29.3-17.2 15.8 9.6c.5.3.5 1.1 0 1.4L18.5 56.3zm31.6 9.9-17.3-9.9c-.4-.2-.4-.8 0-1L62 38l15.4 9.3c.7.4.7 1.4 0 1.9l-27.3 17z"/><path fill="#FFF" d="m49.9 61.9 25.6-16.1-15.1-8.5-25.5 16.1 15 8.5z"/><path fill="#0F43AA" d="M36.3 34.3v-.4l-.1-.1-.1-.1s-.1 0-.1-.1l-.1-.1-15.6-8.9 9-5.7 15.1 8.6-6.4 4c-.5.3-.6 1-.3 1.5s1 .6 1.5.3l7.9-4.9c.3-.2.5-.5.5-.9s-.2-.7-.5-.9l-17.2-9.8c-.3-.2-.8-.2-1.1 0l-11 6.9-5.8 3.6-11 7c-.3.2-.5.5-.5.9s.2.7.5.9l17.2 9.8c.2.1.3.1.5.1s.4-.1.6-.2l7.9-4.9c.5-.3.6-1 .3-1.5s-1-.6-1.5-.3l-7.3 4.6-15.2-8.6 9-5.7 16.1 9.2v12.1c0 .4.2.7.5.9.2.1.3.1.5.1s.4-.1.6-.2l5.5-3.5c.3-.2.5-.5.5-.9V34.4c.1 0 .1 0 .1-.1zm-5.5 14.4V37.9c0-.4-.2-.7-.5-.9l-15.6-8.9 3.5-2.2 15.1 8.6-1.3.8c-.5.3-.6 1-.3 1.5.2.3.5.5.9.5.2 0 .4-.1.6-.2l1.2-.8v10.2l-3.6 2.2z"/><path fill="#0F43AA" d="m45.7 30.8-7.9 4.9c-.5.3-.6 1-.3 1.5.2.3.5.5.9.5.2 0 .4-.1.6-.2l7.9-4.9c.5-.3.6-1 .3-1.5-.3-.4-1-.6-1.5-.3zM26 43.3l-7.3 4.6L2 38.4c-.5-.3-1.2-.1-1.4.4-.3.5-.2 1.2.4 1.5L18.1 50c.2.1.3.1.5.1s.4-.1.6-.2l7.9-4.9c.5-.3.6-1 .3-1.5-.3-.4-.9-.5-1.4-.2zm19.7-8.2L37.8 40c-.5.3-.6 1-.3 1.5.2.3.5.5.9.5.2 0 .4-.1.6-.2l7.9-4.9c.5-.3.6-1 .3-1.5s-1-.6-1.5-.3z"/><path fill="#0F43AA" d="m26 47.5-7.3 4.6L2 42.7c-.5-.3-1.2-.1-1.4.4-.3.5-.1 1.2.4 1.4l17.2 9.8c.2.1.3.1.5.1s.4-.1.6-.2l7.9-4.9c.5-.3.6-1 .3-1.5-.4-.4-1-.6-1.5-.3zm19.7-8.2-7.9 4.9c-.5.3-.6 1-.3 1.5.2.3.5.5.9.5.2 0 .4-.1.6-.2l7.9-4.9c.5-.3.6-1 .3-1.5-.3-.4-1-.6-1.5-.3z"/><path fill="#0F43AA" d="m26 51.8-7.3 4.6L2 46.9c-.5-.3-1.2-.1-1.4.4-.3.5-.1 1.2.4 1.4l17.2 9.8c.2.1.3.1.5.1s.4-.1.6-.2l7.9-4.9c.5-.3.6-1 .3-1.5-.4-.4-1-.5-1.5-.2z"/><path fill="#009AFF" d="M35.8 33.5c.3.1.6.6.6 1.5-.1 2.8 0 8.6 0 12.3 0 .4-.2.7-.5.9l-5.5 3.5c-.7.4-1.6-.1-1.6-.9V38.6L10.4 28.2l7.5-4.7 17.9 10z"/><path fill="#009AFF" d="m14.6 28 15.6 8.9c.3.2.5.5.5.9v10.9l3.4-2.1V36.3l-1.1.8c-.2.1-.4.2-.6.2-.4 0-.7-.2-.9-.5-.3-.5-.2-1.2.3-1.5l1.3-.8L18 25.9 14.6 28z"/><path fill="#0F43AA" d="m60.4 37.3 15.1 8.6-6.4 4c-.5.3-.6 1-.3 1.5s1 .6 1.5.3l7.9-4.9c.7-.4.7-1.4 0-1.8L61 35.2c-.3-.2-.8-.2-1.1 0-.7.5-26.6 16.7-27.6 17.4-.7.4-.7 1.4 0 1.8 18.1 10.2 17.2 9.9 17.7 9.9.6 0 .2 0 8.4-5.1.5-.3.6-1 .3-1.5s-1-.6-1.5-.3L50 61.9l-15.1-8.6 25.5-16zM77 49.1 69.1 54c-.5.3-.6 1-.3 1.5.2.3.5.5.9.5.2 0 .4-.1.6-.2l7.9-4.9c.5-.3.6-1 .3-1.5-.3-.4-1-.6-1.5-.3z"/><path fill="#0F43AA" d="M57.3 61.6 50 66.2l-16.6-9.5c-.5-.3-1.2-.1-1.4.4-.3.5-.1 1.2.4 1.4l17.2 9.8c.2.1.3.1.5.1s.4-.1.6-.2l7.9-4.9c.5-.3.6-1 .3-1.5-.5-.4-1.1-.5-1.6-.2z"/><path fill="#009AFF" d="M67.1 51.8c.7.4.5.7.5 5.5 0 .4-.2.7-.5.9l-5.5 3.5c-.7.4-1.6-.1-1.6-.9v-3.9L41.7 46.5l7.5-4.7 17.9 10z"/><path fill="#009AFF" d="m45.9 46.4 15.6 8.9c.3.2.5.5.5.9v2.6l3.4-2.1v-2.1l-1.2.8c-.2.1-.4.2-.6.2-.4 0-.7-.2-.9-.5-.3-.5-.2-1.2.3-1.5l1.3-.8-15.1-8.6-3.3 2.2z"/><path fill="#0F43AA" d="m66.3 34.8-1.4-.1c-1.1-9.2-8.4-17-18-17.9-6-.6-11.6 1.5-15.7 5.3-3.3 2.9.5 5.3 2.2 3.4 3.3-3.4 8-5.2 13-4.8 7.3.7 13 6.6 14.2 13.5l-2.4-.2c-1.1-.1-1.6.6-1.1 1.6l3.3 6.9c.5 1 1.4 1.1 2.1.2l4.6-6.2c.7-.8.3-1.6-.8-1.7z"/></svg><svg viewBox="0 0 45 45" xml:space="preserve" id="phone" xmlns="http://www.w3.org/2000/svg"><path d="M29.6 45s4.1 0 4.1-4.1V4.1C33.7 0 29.6 0 29.6 0H15.4s-4.1 0-4.1 4.1v36.8c0 4.1 4.1 4.1 4.1 4.1h14.2zm-7.1-1.7c-1.1 0-2-.9-2-2s.9-2 2-2 2 .9 2 2-.9 2-2 2zM19.4 2.5c0-.3.1-.5.3-.5h5.6c.1 0 .3.2.3.5v.1c0 .3-.1.5-.3.5h-5.6c-.1 0-.3-.2-.3-.5v-.1zm-6.1 2.6h18.4v32.7H13.3V5.1z"/></svg><svg viewBox="0 0 58.752 58.752" xml:space="preserve" id="play-button" xmlns="http://www.w3.org/2000/svg"><path d="M52.524 23.925 12.507.824c-1.907-1.1-4.376-1.097-6.276 0a6.294 6.294 0 0 0-3.143 5.44v46.205a6.29 6.29 0 0 0 3.131 5.435 6.263 6.263 0 0 0 6.29.005l40.017-23.103a6.3 6.3 0 0 0 3.138-5.439 6.315 6.315 0 0 0-3.14-5.442zm-3 5.687L9.504 52.716a.27.27 0 0 1-.279-.005.28.28 0 0 1-.137-.242V6.263a.28.28 0 0 1 .421-.243l40.01 23.098a.29.29 0 0 1 .145.249.283.283 0 0 1-.14.245z"/></svg><svg version="1.1" id="school-logo" x="0" y="0" viewBox="0 0 33 30" style="enable-background:new 0 0 33 30" xml:space="preserve" xmlns="http://www.w3.org/2000/svg"><style>.bcst0{fill:#103aa1}</style><path class="bcst0" d="m70 225-74-75 74-75c41-42 80-74 87-73 14 3 153 137 153 147 0 11-144 151-155 151-6 0-44-34-85-75zm115-45-29-30 29-30 29-30-29-30-29-30-30 30-30 30 29 30 29 30-29 30-29 30 29 30 29 30 30-30 30-30-29-30zM295 31c-7-12 12-24 25-16 11 7 4 25-10 25-5 0-11-4-15-9z" transform="matrix(.1 0 0 -.1 0 30)"/></svg><svg viewBox="0 0 74 74" xml:space="preserve" id="scroll" xmlns="http://www.w3.org/2000/svg"><ellipse cx="37" cy="37" rx="37.2" ry="37"/><path fill="#FFF" d="m15.6 44 21.5-21.8 21.3 21.5h-5.1L37 27.2 20.4 43.9z"/></svg><svg version="1.1" id="secure" x="0" y="0" viewBox="0 0 195 259" style="enable-background:new 0 0 195 259" xml:space="preserve" xmlns="http://www.w3.org/2000/svg"><style>.best0{fill:#009aff}</style><path class="best0" d="M953 2183c-11.6-15.9-44.1-44.1-72.3-62.9-112.7-77.3-275.3-119.2-514.5-133.7l-81.7-4.3v-489.2c0-536.9-.7-527.5 44.1-617.1 75.9-149.6 269.6-311.5 547.8-456l96.8-49.9 81.7 40.5c182.8 91.1 322.3 187.2 436.5 301.3 83.8 83.8 116.3 128.6 151 211l18.8 45.5 2.2 506.6 2.2 507.3-85.3 4.3c-120 5.8-242.8 23.1-317.2 44.1-120 34.7-225.5 95.4-268.8 153.9l-19.5 27.5L953 2183zm108.4-518.2c49.1-18.1 106.2-72.3 128.6-120 13-28.9 15.9-51.3 18.1-133.7l2.9-99.7h28.2c20.2 0 29.6-3.6 35.4-13.7 4.3-8.7 7.2-83.1 7.2-192.2s-2.9-183.6-7.2-192.2c-7.2-13-18.1-13.7-298.5-13.7-216.8 0-293.4 2.2-299.9 8.7-6.5 6.5-8.7 60-8.7 194.4 0 184.3 0 186.4 15.9 197.3 8.7 6.5 25.3 11.6 35.4 11.6h19.5l2.9 99.7c2.9 105.5 9.4 127.9 54.9 187.2 54.2 71.4 172.8 101 265.3 66.3z" transform="matrix(.1 0 0 -.1 0 259)"/><path class="best0" d="M921.9 1559.3c-49.1-23.8-66.5-70.1-66.5-172.7v-75.2h237l5.1 68.7c6.5 80.2 2.2 105.5-21 141.6-31 46.3-101.9 63.6-154.6 37.6z" transform="matrix(.1 0 0 -.1 0 259)"/></svg><svg viewBox="0 0 500 500" xml:space="preserve" id="speak" xmlns="http://www.w3.org/2000/svg"><linearGradient id="bfa" gradientUnits="userSpaceOnUse" x1="16.2" y1="-162.6" x2="263.8" y2="-162.6" gradientTransform="translate(0 400)"><stop offset=".189" style="stop-color:#06c3df"/><stop offset="1" style="stop-color:#141ac5"/></linearGradient><path fill="url(#bfa)" d="M16.2 247.3v123.2c0 6.1 1.8 10.7 4.8 13.3 3.7 3.3 9.2 3.5 15.3 0l146.3-84.5c2.4 8 3.6 17.3 3.5 27.4l-.1 8.2 17.2-31.4c3.8-6.9 7-14.2 9.8-21.7l30.7-17.7c6-3.5 11.4-9.9 15.1-17.3.6-1.1 1.1-2.3 1.6-3.4 2.1-5.2 3.4-10.7 3.4-15.8V104.3c0-6.1-1.8-10.7-4.8-13.3-3.7-3.3-9.2-3.5-15.3 0L36.3 210.7c-6 3.5-11.4 9.9-15.1 17.3-.6 1.1-1.1 2.3-1.6 3.4-2.1 5.3-3.4 10.8-3.4 15.9zm159-30c0-2.7.7-5.6 1.8-8.5 2.1-5.2 5.9-10 10.3-12.5 3.9-2.2 7.3-2.1 9.5-.2 1.6 1.4 2.6 3.9 2.6 7.1 0 2.7-.7 5.6-1.8 8.5-2.1 5.2-5.9 10-10.3 12.5-3.9 2.2-7.3 2.1-9.5.2-1.6-1.4-2.6-3.9-2.6-7.1zm-47.3 27.3c0-2.7.7-5.6 1.8-8.5 2.1-5.2 5.9-10 10.3-12.5 6.7-3.9 12.1-.7 12.1 7 0 2.7-.7 5.6-1.8 8.5-2.1 5.2-5.9 10-10.3 12.5-6.6 3.8-12.1.7-12.1-7zm-47.2 27.2c0-2.7.7-5.6 1.8-8.5 2.1-5.2 5.9-10 10.3-12.5 6.7-3.9 12.1-.7 12.1 7 0 2.7-.7 5.6-1.8 8.5-2.1 5.2-5.9 10-10.3 12.5-6.7 3.9-12.1.8-12.1-7z"/><linearGradient id="bfb" gradientUnits="userSpaceOnUse" x1="1838.648" y1="-162.384" x2="1814.448" y2="-162.384" gradientTransform="matrix(-1 0 0 1 1966.5 400)"><stop offset=".189" style="stop-color:#06c3df"/><stop offset="1" style="stop-color:#141ac5"/></linearGradient><path fill="url(#bfb)" d="M152.1 230.6c0 2.7-.7 5.6-1.8 8.5-2.1 5.2-5.9 10-10.3 12.5-6.7 3.9-12.1.7-12.1-7 0-1 .1-2 .3-3 .1-.1.2-.1.4-.2 4.3-2.5 8.1-7.3 10.3-12.5.7-1.8 1.3-3.7 1.6-5.5 6.4-3.5 11.6-.4 11.6 7.2z"/><linearGradient id="bfc" gradientUnits="userSpaceOnUse" x1="1885.8" y1="-135.084" x2="1861.6" y2="-135.084" gradientTransform="matrix(-1 0 0 1 1966.5 400)"><stop offset=".189" style="stop-color:#06c3df"/><stop offset="1" style="stop-color:#141ac5"/></linearGradient><path fill="url(#bfc)" d="M104.9 257.9c0 2.7-.7 5.6-1.8 8.5-2.1 5.2-5.9 10-10.3 12.5-6.7 3.9-12.1.7-12.1-7 0-1 .1-2 .3-3 .1-.1.2-.1.4-.2 4.3-2.5 8.1-7.3 10.3-12.5.7-1.8 1.3-3.7 1.6-5.5 6.4-3.5 11.6-.4 11.6 7.2z"/><linearGradient id="bfd" gradientUnits="userSpaceOnUse" x1="1961.8" y1="-169.025" x2="1707.4" y2="-169.025" gradientTransform="matrix(-1 0 0 1 1966.5 400)"><stop offset=".189" style="stop-color:#06c3df"/><stop offset="1" style="stop-color:#141ac5"/></linearGradient><path fill="url(#bfd)" d="M8.2 221.3c.5-1.2 1-2.3 1.6-3.4 3.7-7.4 9.1-13.8 15.1-17.3L232.3 80.8c6.1-3.5 11.6-3.3 15.3 0L259.1 91c-3.7-3.3-9.2-3.5-15.3 0L36.3 210.7c-6 3.5-11.4 9.9-15.1 17.3-.6 1.1-1.1 2.3-1.6 3.4-2.1 5.2-3.4 10.7-3.4 15.8v123.2c0 6.1 1.8 10.7 4.8 13.3l-11.5-10c-3-2.6-4.8-7.2-4.8-13.3V237.1c.1-5.1 1.3-10.6 3.5-15.8z"/><linearGradient id="bfe" gradientUnits="userSpaceOnUse" x1="1792.4" y1="-82.8" x2="1780.294" y2="-82.8" gradientTransform="matrix(-1 0 0 1 1966.5 400)"><stop offset=".189" style="stop-color:#06c3df"/><stop offset="1" style="stop-color:#141ac5"/></linearGradient><path fill="url(#bfe)" d="m174.1 304.3 8.6-4.9c2.4 8 3.6 17.3 3.5 27.4l-.1 8.2-11.5-10.2.1-8.2c.1-4.3-.2-8.4-.6-12.3z"/><linearGradient id="bff" gradientUnits="userSpaceOnUse" x1="1791.3" y1="-189.682" x2="1767.1" y2="-189.682" gradientTransform="matrix(-1 0 0 1 1966.5 400)"><stop offset=".189" style="stop-color:#06c3df"/><stop offset="1" style="stop-color:#141ac5"/></linearGradient><path fill="url(#bff)" d="M196.8 196.2c1.6 1.4 2.6 3.9 2.6 7.1 0 2.7-.7 5.6-1.8 8.5-2.1 5.2-5.9 10-10.3 12.5-3.9 2.2-7.3 2.1-9.5.2-1.6-1.4-2.6-3.9-2.6-7.1 0-1 .1-2 .3-3 .1-.1.2-.1.4-.2 4.3-2.5 8.1-7.3 10.3-12.5.7-1.8 1.3-3.7 1.6-5.5 3.6-2.1 6.9-1.9 9 0z"/><linearGradient id="bfg" gradientUnits="userSpaceOnUse" x1="352.457" y1="-112.606" x2="376.657" y2="-112.606" gradientTransform="translate(0 400)"><stop offset=".189" style="stop-color:#06c3df"/><stop offset="1" style="stop-color:#141ac5"/></linearGradient><path fill="url(#bfg)" d="M352.5 280.4c0 2.7.7 5.6 1.8 8.5 2.1 5.2 5.9 10 10.3 12.5 6.7 3.9 12.1.7 12.1-7 0-1-.1-2-.3-3-.1-.1-.2-.1-.4-.2-4.3-2.5-8.1-7.3-10.3-12.5-.7-1.8-1.3-3.7-1.6-5.5-6.4-3.6-11.6-.4-11.6 7.2z"/><linearGradient id="bfh" gradientUnits="userSpaceOnUse" x1="399.7" y1="-85.376" x2="423.9" y2="-85.376" gradientTransform="translate(0 400)"><stop offset=".189" style="stop-color:#06c3df"/><stop offset="1" style="stop-color:#141ac5"/></linearGradient><path fill="url(#bfh)" d="M399.7 307.6c0 2.7.7 5.6 1.8 8.5 2.1 5.2 5.9 10 10.3 12.5 6.7 3.9 12.1.7 12.1-7 0-1-.1-2-.3-3-.1-.1-.2-.1-.4-.2-4.3-2.5-8.1-7.3-10.3-12.5-.7-1.8-1.3-3.7-1.6-5.5-6.4-3.5-11.6-.3-11.6 7.2z"/><linearGradient id="bfi" gradientUnits="userSpaceOnUse" x1="245.5" y1="-119.175" x2="499.9" y2="-119.175" gradientTransform="translate(0 400)"><stop offset=".189" style="stop-color:#06c3df"/><stop offset="1" style="stop-color:#141ac5"/></linearGradient><path fill="url(#bfi)" d="M496.4 271.1c-.5-1.2-1-2.3-1.6-3.4-3.7-7.4-9.1-13.8-15.1-17.3L272.3 130.6c-6.1-3.5-11.6-3.3-15.3 0l-11.5 10.2c3.7-3.3 9.2-3.5 15.3 0l207.5 119.8c6 3.5 11.4 9.9 15.1 17.3.6 1.1 1.1 2.3 1.6 3.4 2.1 5.2 3.4 10.7 3.4 15.8v123.2c0 6.1-1.8 10.7-4.8 13.3l11.5-10.2c3-2.6 4.8-7.2 4.8-13.3V286.9c-.1-5.1-1.3-10.6-3.5-15.8z"/><linearGradient id="bfj" gradientUnits="userSpaceOnUse" x1="318.409" y1="-33" x2="330.515" y2="-33" gradientTransform="translate(0 400)"><stop offset=".189" style="stop-color:#06c3df"/><stop offset="1" style="stop-color:#141ac5"/></linearGradient><path fill="url(#bfj)" d="m330.5 354.1-8.6-4.9c-2.4 8-3.6 17.3-3.5 27.4l.1 8.2 11.5-10.2-.1-8.2c-.1-4.3.2-8.4.6-12.3z"/><linearGradient id="bfk" gradientUnits="userSpaceOnUse" x1="305.2" y1="-139.963" x2="329.4" y2="-139.963" gradientTransform="translate(0 400)"><stop offset=".189" style="stop-color:#06c3df"/><stop offset="1" style="stop-color:#141ac5"/></linearGradient><path fill="url(#bfk)" d="M307.8 245.9c-1.6 1.4-2.6 3.9-2.6 7.1 0 2.7.7 5.6 1.8 8.5 2.1 5.2 5.9 10 10.3 12.5 3.9 2.2 7.3 2.1 9.5.2 1.6-1.4 2.6-3.9 2.6-7.1 0-1-.1-2-.3-3-.1-.1-.2-.1-.4-.2-4.3-2.5-8.1-7.3-10.3-12.5-.7-1.8-1.3-3.7-1.6-5.5-3.6-2-6.9-1.9-9 0z"/><path fill="#EAEFF9" d="M485 281.2c-.5-1.2-1-2.3-1.6-3.4-3.7-7.4-9.1-13.8-15.1-17.3L260.8 140.7c-6.1-3.5-11.6-3.3-15.3 0-3 2.6-4.8 7.2-4.8 13.3v123.2c0 5.1 1.3 10.6 3.4 15.8.5 1.2 1 2.3 1.6 3.4 3.7 7.4 9.1 13.8 15.1 17.3l30.7 17.7c2.8 7.6 6.1 14.9 9.8 21.7l17.2 31.4-.1-8.2c-.1-10.1 1.2-19.4 3.5-27.4l146.3 84.5c6.1 3.5 11.6 3.3 15.3 0 3-2.6 4.8-7.2 4.8-13.3V297c.1-5.1-1.2-10.6-3.3-15.8zm-158.2-7c-2.2 2-5.6 2.1-9.5-.2-4.3-2.5-8.1-7.3-10.3-12.5-1.2-2.8-1.8-5.7-1.8-8.5 0-3.3 1-5.7 2.6-7.1 2.2-2 5.6-2.1 9.5.2 4.3 2.5 8.1 7.3 10.3 12.5 1.2 2.8 1.8 5.7 1.8 8.5 0 3.2-1 5.7-2.6 7.1zm37.8 27.1c-4.3-2.5-8.1-7.3-10.3-12.5-1.2-2.8-1.8-5.7-1.8-8.5 0-7.7 5.4-10.8 12.1-7 4.3 2.5 8.1 7.3 10.3 12.5 1.2 2.8 1.8 5.7 1.8 8.5 0 7.7-5.5 10.9-12.1 7zm47.2 27.3c-4.3-2.5-8.1-7.3-10.3-12.5-1.2-2.8-1.8-5.7-1.8-8.5 0-7.7 5.4-10.8 12.1-7 4.3 2.5 8.1 7.3 10.3 12.5 1.2 2.8 1.8 5.7 1.8 8.5 0 7.7-5.4 10.9-12.1 7z"/></svg><svg viewBox="0 0 100 100" xml:space="preserve" id="strings" xmlns="http://www.w3.org/2000/svg"><path fill="#0038A4" d="M39.6 100.5H2.9c-1.3 0-2.3-1-2.3-2.3V61.6c0-1.3 1-2.3 2.3-2.3h36.7c1.3 0 2.3 1 2.3 2.3v36.7c-.1 1.2-1.1 2.2-2.3 2.2zM5.1 96h32.2V63.8H5.1V96z"/><path fill="#09F" d="M2.9 2.3h36.7V39H2.9V2.3z"/><path fill="#0038A4" d="M39.6 41.2H2.9c-1.3 0-2.3-1-2.3-2.3V2.3C.6 1 1.6 0 2.9 0h36.7c1.3 0 2.3 1 2.3 2.3V39c-.1 1.2-1.1 2.2-2.3 2.2zM5.1 36.7h32.2V4.5H5.1v32.2zm92-13.4h-44c-1.3 0-2.3-1-2.3-2.3s1-2.3 2.3-2.3h44.1c1.3 0 2.3 1 2.3 2.3-.1 1.3-1.1 2.3-2.4 2.3zm0 58.9h-44c-1.3 0-2.3-1-2.3-2.3s1-2.3 2.3-2.3h44.1c1.3 0 2.3 1 2.3 2.3s-1.1 2.3-2.4 2.3z"/></svg><svg viewBox="0 0 130 130" xml:space="preserve" id="thank" xmlns="http://www.w3.org/2000/svg"><circle fill="#09F" cx="66" cy="65.2" r="54.8"/><path fill="#0037A4" d="M88.98 41.2c-4.7 6.7-11.1 15.8-20.4 29.2-4.1 5.8-7.7 10.8-8 11-.4.2-6.2-3.6-12.9-8.5-6.8-4.9-12.6-8.9-13-8.9-1.4.1-4.5 5.1-4 6.3.3.7 7.5 6.3 16.1 12.4L62.28 94l2.4-3.3c2.8-3.8 11.5-16.1 17.7-25.2 2.5-3.6 7.3-10.4 10.7-15.3 3.5-4.8 6.3-9.2 6.3-9.8 0-1.2-4.2-4.4-5.8-4.4-.5 0-2.5 2.4-4.6 5.2z"/></svg><svg viewBox="0 0 45 45" xml:space="preserve" id="tr" xmlns="http://www.w3.org/2000/svg"><path d="M21.98.02c-3.72-.11-5.64.35-6.34 1.56-.53.9 1.32 10.55 2.18 11.39.28.27 1.5.82 2.74 1.23 1.25.39 2.43.92 2.62 1.1.49.49.8 13.16.36 14.04-.18.43-1.34 1.05-2.54 1.4-1.24.32-2.46.89-2.75 1.19-.86.87-2.4 10.48-1.81 11.43.75 1.22 2.69 1.7 6.4 1.64 3.74-.09 4.22-.46 5.98-4.16 1.89-3.94 2.79-10.21 2.67-18.28-.19-8.06-1.33-14.35-3.37-18.31C26.22.53 25.73.15 21.98.02zm4.78 5.12c1.69 3.39 2.7 8.83 2.93 15.98.48 12.44-1.7 21.41-5.34 22.15-1.29.26-6.01-.19-6.44-.61-.31-.3 1.18-9.13 1.6-9.56.15-.15 1.43-.59 2.91-1.04 2.56-.74 2.61-.8 2.89-2.13.36-1.71.15-13.12-.28-14.85-.32-1.33-.38-1.39-2.97-2.16-1.49-.46-2.79-.92-2.95-1.07-.55-.55-2.2-9.34-1.85-9.69.71-.72 6.96-.65 7.7.07.37.36 1.18 1.7 1.8 2.91z"/></svg><svg viewBox="0 0 100 100" xml:space="preserve" id="tree" xmlns="http://www.w3.org/2000/svg"><path fill="#0038A4" d="M56.5 65.6h-3.8v-28l-7.8-6.7 2.4-2.9 9.2 7.9v29.7z"/><path fill="#09F" d="M54.5 59.7c4.8 1.1 9.7-1.8 10.9-6.7-4.9-1.1-9.7 1.9-10.9 6.7zm-15.1-19H44c5.8 0 10.6 4.7 10.6 10.6v.1h-5c-5.6 0-10.2-4.6-10.2-10.2v-.5z"/><path fill="#0038A4" d="m52.9 35.9 7.3-15.3 3.4 1.6-7.3 15.3-3.4-1.6z"/><path fill="#0038A4" d="m54.2 38.6.8-3.7 12.6 2.9-.8 3.7-12.6-2.9z"/><circle fill="#09F" cx="38.2" cy="25.8" r="12.6"/><circle fill="#09F" cx="76.2" cy="38.8" r="12.6"/><path fill="#09F" d="M78.7 13c0 6.9-5.6 12.6-12.6 12.6S53.6 19.9 53.6 13 59.2 0 66.2 0s12.5 6.1 12.5 13z"/><path fill="#FFF" d="M65.5 14.1v.7H68v1h-2.6v1.1h-1.9v-1.1h-1.2v-1h1.2V8.5h3.6c1.1 0 2 .2 2.7.7.6.5 1 1.2 1 2.1s-.3 1.6-1 2.1c-.6.5-1.5.7-2.7.7h-1.6zm2.9-3.7c-.3-.2-.7-.3-1.2-.3h-1.7v2.5h1.7c.5 0 1-.1 1.2-.3.3-.2.4-.5.4-.9 0-.5-.1-.8-.4-1zM41 26.8l1.2 1.1c-.4.5-.9.9-1.5 1.1-.6.3-1.2.4-2 .4-.7 0-1.3-.1-1.9-.4-.6-.2-1.1-.6-1.5-1s-.7-1-.9-1.6h-1.3v-1h1.2v-.6h-1.2v-1h1.3c.2-.6.5-1.1.9-1.6s.9-.8 1.5-1 1.2-.4 1.9-.4 1.4.1 2 .4 1.1.6 1.5 1.1L41 23.4c-.6-.7-1.3-1-2.1-1-.5 0-1 .1-1.4.4-.4.2-.7.6-1 1h3v1h-3.3v.6h3.3v1h-3c.2.4.5.8 1 1 .4.2.9.4 1.4.4.9 0 1.6-.4 2.1-1zm38.5 14.9c-.5.5-1.2.8-2.1.9v1.3h-1.2v-1.3c-.6 0-1.1-.1-1.7-.3-.5-.2-1-.4-1.3-.6l.7-1.5c.3.2.7.4 1.1.6.4.2.8.2 1.3.3v-2c-.6-.1-1-.3-1.4-.5s-.7-.4-1-.7-.4-.7-.4-1.3c0-.7.2-1.2.7-1.7s1.2-.8 2.1-.9v-1.3h1.2V34c1 .1 1.8.3 2.4.7l-.6 1.5c-.6-.3-1.2-.5-1.8-.6v2c.6.1 1 .3 1.4.4s.7.4 1 .7.4.7.4 1.3c-.1.7-.3 1.2-.8 1.7zm-3.9-4.8c.2.1.4.2.7.3v-1.7c-.3.1-.5.2-.7.3-.1.2-.2.3-.2.5 0 .4.1.5.2.6zm2.5 3.8c.1-.1.2-.3.2-.5s-.1-.4-.2-.5-.4-.2-.6-.3V41c.3-.1.5-.2.6-.3z"/><path fill="#0038A4" d="M58.9 75.6H42v-3.8h16.6c.7-.1 2-.5 1.9-2-.1-1.9-3.1-2.2-3.1-2.2l.3-3.8c2.2.2 6.4 1.6 6.7 5.7.2 4-3.1 5.8-5.3 6.1h-.2z"/><path fill="#0038A4" d="M84.2 55.7c-4.2-4.6-8.5-1.2-12.4 1.9-3.7 3-8 6.3-13.9 6.2-10.9-.2-12.6-1.1-14.2-2-.1-.1-.3-.2-.5-.2-4.3-2.2-11.4-1.4-14.1-.5-1.5.5-3.1 1.8-4.4 2.9l-1.9-1.9L8.7 76.4l23.2 23.2 14.3-14.3-.9-.9h1.8c5.6 0 12.1-.4 14.9-1.9 4.1-2.2 21.9-16.3 23.2-23.4.2-1.6-.5-2.7-1-3.4zM31.9 94.3 14 76.4l8.9-8.9 17.8 17.8-8.8 9zM73 68.9c-5.3 5-11 9.3-13 10.3-2.6 1.4-11.8 1.6-18.7 1.3L27.5 66.7c1-.9 2.1-1.7 2.9-2 2.3-.8 8.2-1.2 11.2.3.1.1.3.1.4.2 2.1 1.1 4.2 2.2 15.9 2.4 7.3.2 12.5-4 16.3-7 4.6-3.6 5.7-4 7.1-2.3 0 .2.1 2.8-8.3 10.6z"/><circle fill="#09F" cx="27.7" cy="81.4" r="2.7"/></svg><svg viewBox="0 0 79 79" xml:space="preserve" id="two-hand" xmlns="http://www.w3.org/2000/svg"><defs><path id="bka" d="M.1 12.4h78.2v52.2H.1z"/></defs><clipPath id="bkb"><use xlink:href="#bka" overflow="visible"/></clipPath><path clip-path="url(#bkb)" fill="#0F43AA" d="M77.7 16c-.4-.3-1-.4-1.5-.2l-13.3 4.8c-1.6.6-3 1.8-3.7 3.4l-.3.9c-2.3-.6-6.5-2-10.7-4.2-6.4-3.3-11.2-1.7-15.4 1.5-2.1 0-5 .3-7.9.5-1.8.2-3.6.3-5 .4 0-.8-.2-1.7-.6-2.5-.7-1.6-2-2.8-3.7-3.4L2.3 12.5c-.5-.2-1.1-.1-1.5.2s-.7.8-.7 1.3v32.6c0 .9.7 1.6 1.6 1.6h4.8c2 0 3.9-1 5.1-2.5.6.5 1.4 1.1 2.2 1.7 1.9 1.4 4 3 4.9 3.8 6.1 5.1 13.4 10.6 14.8 11.5s3.8 1.8 5.7 1.8c.7 0 2.6 0 3.8-1.1 1.3.5 2.8.5 4.1-.1s2.4-1.7 3-3c1.3.3 2.7.1 4.1-.6 1.2-.6 2.2-1.6 2.6-2.7 1.2.1 2.4-.3 3.6-1.1 1.6-1.2 2.3-3 2.1-4.8l4.1-2.3c1.2 1.6 3.1 2.7 5.2 2.7h4.8c.9 0 1.6-.7 1.6-1.6V17.3c.2-.5-.1-1-.5-1.3"/><defs><path id="bkc" d="M.1 12.4h78.2v52.2H.1z"/></defs><clipPath id="bkd"><use xlink:href="#bkc" overflow="visible"/></clipPath><path clip-path="url(#bkd)" fill="#FFF" d="M61.3 48.1c-2.2-2.9-6.9-6.8-11.5-10.6-3.1-2.5-5.9-4.9-7.8-6.7-.5-.5-1.3-.6-1.9-.3-1.7.9-2.4 1.3-4.3 1.4-.5.1-.9.3-1.2.8-1.5 2.3-6.5 3.6-6.8 1.2-.2-1.4 1.2-3.8 3.6-6.1 5.8-5.8 9.9-6.9 15.2-4.1 5.1 2.6 10.1 4.1 12.2 4.6.3 1.3-.6-1.5 6.5 17.6l-4 2.2z"/><defs><path id="bke" d="M.1 12.4h78.2v52.2H.1z"/></defs><clipPath id="bkf"><use xlink:href="#bke" overflow="visible"/></clipPath><path clip-path="url(#bkf)" fill="#009AFF" d="M9.6 42.9C9.1 44.2 7.9 45 6.5 45H3.4V16.4l11.1 4c.8.3 1.5.9 1.8 1.7.4.8.4 1.7.1 2.5L9.6 42.9zm65.5 5.4H72c-1.4 0-2.6-.9-3.1-2.1L62 27.9c-.3-.8-.3-1.7.1-2.5s1-1.4 1.8-1.7l11.1-4 .1 28.6"/><defs><path id="bkg" d="M.1 12.4h78.2v52.2H.1z"/></defs><clipPath id="bkh"><use xlink:href="#bkg" overflow="visible"/></clipPath><path clip-path="url(#bkh)" fill="#FFF" d="M19.2 26.5c1.6-.1 3.7-.3 5.9-.4 1.3-.1 2.5-.2 3.7-.3-1.9 1.9-4.6 5.3-4.3 8.5.2 1.5 1 2.7 2.3 3.5 2.7 1.7 7.6.3 10-2.7 1.5-.2 2.6-.6 3.7-1.2 5.3 5 16.4 13 18.6 16.8 1.1 1.9-1.6 3.7-2.4 2.9-3-2.8-6.8-6.7-9.7-9.7-.6-.7-1.7-.7-2.3 0-.7.6-.7 1.7 0 2.3.8.8 6.8 7.1 9.3 9.3-.4 1.5-2.9 2.1-3.8 1.4-2.9-2.6-6.2-6.1-8-8-.6-.7-1.6-.7-2.3-.1-.7.6-.7 1.6-.1 2.3.1.1 4.9 5.2 7.6 7.7-.5 1.6-2.2 2.5-3.7 1.4-2.3-2-7-7-8-8-.6-.7-1.6-.7-2.3-.1-.7.6-.7 1.6-.1 2.3 1.1 1.2 4.3 4.6 6.8 6.9-.3 0-.6.1-.8.1-1.1 0-2.9-.7-3.9-1.3-1.1-.8-8.3-6.1-14.5-11.3-1.5-1.2-5.8-4.4-7.8-5.9l6.1-16.4z"/></svg><svg viewBox="0 0 79 79" xml:space="preserve" id="variations" xmlns="http://www.w3.org/2000/svg"><path fill="none" d="M-3.7 1h55.4v86.5"/><path fill="#009AFF" d="M29.2 61.5c0 1.2-.6 2.2-1.3 2.2h-23c-.7 0-1.3-1-1.3-2.2V21.6c0-1.2.6-2.2 1.3-2.2h23c.7 0 1.3 1 1.3 2.2v39.9z"/><path fill="#FFF" d="M76 61.5c0 1.2-.6 2.2-1.3 2.2h-23c-.7 0-1.3-1-1.3-2.2V21.6c0-1.2.6-2.2 1.3-2.2h23c.7 0 1.3 1 1.3 2.2v39.9z"/><path fill="#0F43AA" d="M52 67.6c0 1.2-.6 2.2-1.3 2.2h-23c-.7 0-1.3-1-1.3-2.2V27.8c0-1.2.6-2.2 1.3-2.2h23c.7 0 1.3 1 1.3 2.2v39.8z"/></svg><svg viewBox="0 0 100 100" xml:space="preserve" id="wallet" xmlns="http://www.w3.org/2000/svg"><path fill="#0038A4" d="M86.4 34.6H1.9c-1.1 0-1.9-.9-1.9-1.9v-7.4c0-5.2 4.3-9.5 9.5-9.5h76.9c1.1 0 1.9.9 1.9 1.9v15c0 1.1-.8 1.9-1.9 1.9zM3.8 30.8h80.6V19.6h-75c-3.1 0-5.7 2.5-5.7 5.7l.1 5.5z"/><path fill="#09F" d="M62 19.2C62 9.2 53.8 1 43.7 1S25.5 9.2 25.5 19.2c0 3.8 1.1 7.2 3.1 10.2 3.3 4.9 8.8 4.3 15.1 4.3 10.1 0 18.3-4.4 18.3-14.5z"/><path fill="#0038A4" d="M100 43.7c0-7-5.7-12.7-12.7-12.7H0v55.6c0 7 5.7 12.6 12.7 12.6h74.5c3.3 0 6.5-1.3 8.9-3.6 2.4-2.3 3.8-5.4 3.8-8.8v-.4l.1-42.7zm-4.3 43c-.1 4.5-3.9 8.2-8.4 8.2H12.8c-4.7 0-8.4-3.8-8.4-8.4V35.2h83c4.6 0 8.4 3.7 8.4 8.3l-.1 43.2z"/><path fill="#09F" d="M69.4 55.2c-5.4 0-9.7 4.4-9.7 9.7v.4c0 5.4 4.4 9.7 9.7 9.7h28.3V55.2H69.4zm.5 16.5c-3.6 0-6.5-2.9-6.5-6.5s2.9-6.5 6.5-6.5 6.5 2.9 6.5 6.5-2.9 6.5-6.5 6.5z"/><path fill="#0038A4" d="M97.6 76.9H69.4c-6.4 0-11.6-5.2-11.6-11.6V65c0-6.4 5.2-11.6 11.6-11.6h28.3c1 0 1.9.8 1.9 1.9v19.8c-.1 1-.9 1.8-2 1.8zM69.4 57.1c-4.3 0-7.8 3.5-7.8 7.8v.4c0 4.3 3.5 7.8 7.8 7.8h26.4v-16H69.4z"/><path fill="#FFF" d="M42.7 20.8v1h3.9v1.5h-3.9V25h-3v-1.6h-1.8v-1.5h1.8v-9.6h5.5c1.7 0 3.1.4 4.1 1.1 1 .7 1.5 1.8 1.5 3.2s-.5 2.5-1.5 3.2-2.3 1.1-4.1 1.1h-2.5v-.1zm4.4-5.7c-.4-.3-1.1-.5-1.9-.5h-2.5v3.9h2.5c.8 0 1.5-.2 1.9-.5s.7-.8.7-1.5c0-.6-.2-1-.7-1.4z"/></svg></svg>