<svg id="Слой_1" xmlns="http://www.w3.org/2000/svg" viewBox="0 0 100 100"><style>.st0{fill:#09f}.st1{fill:#0038a4}</style><path class="st0" d="M43.8 28.2l-.1.7 1-.1.1-.7-.6-.4zm28.5-5.4l.1-1-.8-.3-1.3.2-.9 1.5v.9h1.1z"/><path class="st0" d="M73.6 22.2l.1.8-1.1.2-.1 1.5h1.3l1.7-.1.9-1.1-.9-.4-.6-.6-.7-1.3-.4-1.8-1.5.3-.4.6v.8l.7.5zM47.1 27l-.3.7h-1.3v.7h.3v.3l.8-.1.5-.3.1-.6.6-.1.2-.5-.3-.1h-.6z"/><path class="st0" d="M50 .8C23 .8 1.1 22.7 1.1 49.7S23 98.6 50 98.6s48.9-21.9 48.9-48.9S77 .8 50 .8zm38.5 34.7l-2.3.2v1.4h-.7l-.8-.6-4-1V33l-5.1.4-1.6.9h-2l-1-.1-2.5 1.4V38l-5 3.6.4 1.6h1l-.3 1.5-.8.3v3.9l4.3 5H70l.1-.3h3.4l1-.9h1.9l1.1 1.1 2.9.3-.4 3.6 3.2 5.6-1.7 3.2.1 1.5 1.3 1.3v3.6l1.8 2.3v2.3C76.5 87.8 64 94.3 50 94.3c-23.1 0-42.1-17.5-44.4-40 0-.3-.1-.7-.1-1.1-.1-1.2-.1-2.3-.1-3.5v-2.4c0-.3 0-.6.1-.8v-.2c.4-5 1.6-9.7 3.5-14.1v2.4l1.9.9V39l1.8 3.1 1.5.2.2-1.1-1.8-2.7-.3-2.5h1l.4 2.7 2.5 3.7-.6 1.2 1.6 2.4 4 1v-.6l1.6.2-.2 1.1 1.2.2 1.9.5 2.7 3.1 3.5.3.3 2.8-2.2 1.7-.1 2.5-.3 1.6 3.4 4.3.3 1.5s1.2.3 1.4.3c.2 0 2.8 2 2.8 2v7.8l.9.3-.6 3.6 1.6 2.1-.4 3.6 2.1 3.7 2.7 2.4 2.7.1.3-.9-2-1.7.1-.8.4-1 .1-1h-1.3l-.7-.9 1.1-1.1.2-.8-1.3-.3.1-.8 1.8-.3 2.7-1.3.9-1.7 2.8-3.6-.7-3 .9-1.5 2.6.1 1.8-1.4.6-5.5 1.9-2.5.4-1.6-1.8-.5-1.2-1.9h-4L49 56.8l-.2-2.3-1.1-1.8-2.9-.1-1.6-2.6-1.5-.7-.1.8-2.6.2-1-1.4-2.8-.6-2.3 2.7-3.6-.6-.3-4.1-2.6-.4 1.1-2-.3-1.1-3.6 2.2-2.2-.3-.7-1.7.5-1.8 1.2-2.2 2.8-1.4h5.4v1.7l1.9.9-.2-2.8 1.4-1.4 2.8-1.8.2-1.3 2.8-2.9 3-1.7-.3-.3 2-1.9.7.2.3.4.8-.8.2-.1-.8-.1-.9-.3v-.8l.4-.4h1l.4.2.4.8.5-.1V25h.2l1.4-.2.2-.7.8.2v.7l-.7.5.1.8 2.5.8h.6l.1-1.1-2-.9-.1-.5 1.7-.5.1-1.6-1.7-1.1-.1-2.7-2.6 1.3h-.9l.2-2-3.2-.8-1.3 1v3.1l-2.4.7-1 2-1 .2v-2.6l-2.3-.3-1.1-.7-.4-1.7 4.1-2.4 2-.6.2 1.3 1.1-.1.1-.7 1.2-.2V16l-.5-.2-.1-.7 1.4-.1.9-.9.1-.1.3-.3 3-.4 1.3 1.1-3.5 1.8 4.4 1.1.6-1.5h1.9l.7-1.3-1.4-.3v-1.6l-4.3-1.9-2.9.3-1.9 1.1.1 2.1-1.7-.2-.3-1.2 1.7-1.5-3-.2-.9.3-.4 1 1.1.2-.2 1.1-1.9.1-.3.7-2.8.1s-.1-1.6-.2-1.6 2.2-.1 2.2-.1l1.7-1.6-.9-.3-1.2 1.2-2-.1-1.2-1.7h-2.6l-2.7 2H30l.2.7-.6.6 2.7.1.4 1-3.1-.1-.2-.7-1.9-.4-1-.6h-1.7C32 8 40.7 5.2 50 5.2c11.5 0 22.1 4.4 30 11.6l-1.6.6-.9 1 .2 1.1 1.1.2.7 1.6 1.9-.7.3 2.2H81l-1.5-.2-1.7.3-1.7 2.3-2.4.4-.3 2 1 .2-.3 1.2-2.3-.5-2.1.5-.5 1.2.4 2.5 1.2.6h2.1l1.4-.1.4-1.1 2.2-2.9 1.5.3 1.4-1.3.3 1 3.5 2.4-.4.6-1.5-.2.6.9 1 .2 1.1-.5v-1.4l.6-.2-.4-.4-2.4-1.3-.6-1.8h2l.6.6 1.7 1.5.1 1.8 1.8 1.9.7-2.6 1.2-.7.2 2.1 1.2 1.3h.5c.5 1.2.9 2.5 1.3 3.8h-2.1l-2.3-1.7z"/><path class="st1" d="M50 99.5C22.6 99.5.2 77.2.2 49.8.2 22.3 22.6 0 50 0s49.7 22.3 49.7 49.7c.1 27.5-22.3 49.8-49.7 49.8zM50 5C25.3 5 5.3 25.1 5.3 49.7s20 44.8 44.7 44.8c24.7 0 44.7-20.1 44.7-44.7S74.7 5 50 5z"/></svg>