<svg id="Слой_1" xmlns="http://www.w3.org/2000/svg" viewBox="0 0 100 100"><style>.st0{fill:#09f}.st1{fill:#0038a4}</style><path class="st0" d="M95.3 47.6h-7.2l-2.4 1.8v12.5c0 4-3.2 7.1-7.1 7.1H59.2L56 71.4V75c0 2.6 2.1 4.7 4.7 4.7h18.9l13.3 13.1-2.3-13.1h4.7c2.6 0 4.7-2.1 4.7-4.7V52.3c0-2.6-2.1-4.7-4.7-4.7z"/><path class="st1" d="M17.8 94.9c-.3 0-.6-.1-.9-.2-.8-.4-1.2-1.2-1.1-2L18 71.1H9.6c-5 0-9.2-4.1-9.2-9.2V14.3c0-5 4.1-9.2 9.2-9.2h69c5 0 9.2 4.1 9.2 9.2v47.6c0 5-4.1 9.2-9.2 9.2H42.5L19.2 94.3c-.4.4-.9.6-1.4.6zM9.6 9.2c-2.8 0-5.1 2.3-5.1 5.1v47.6c0 2.8 2.3 5.1 5.1 5.1h10.7c.6 0 1.1.2 1.5.7.4.4.6 1 .5 1.6l-1.9 18.2 19.9-19.8c.4-.4.9-.6 1.4-.6h36.9c2.8 0 5.1-2.3 5.1-5.1V14.3c0-2.8-2.3-5.1-5.1-5.1h-69z"/><path class="st0" d="M43.4 40.2c.4-.9.9-1.7 1.5-2.3l2.3-2.3c1.2-1.1 2.1-2 2.7-2.7.6-.8.9-1.7.9-2.8 0-1.5-.6-2.7-1.7-3.6-1.2-.9-2.7-1.3-4.8-1.3-3.5 0-6.2 1.2-8.1 3.6l-3.3-2.4c1.3-1.6 2.9-2.9 4.9-3.8 2-.9 4.3-1.3 6.9-1.3 3.3 0 5.9.7 7.9 2.2 1.9 1.4 2.9 3.4 2.9 5.9 0 1.2-.2 2.3-.6 3.3-.4 1-.9 1.7-1.5 2.4-.6.6-1.3 1.4-2.3 2.3-1.2 1.1-2.2 2.1-2.7 3-.6.8-.9 1.9-.9 3.1H43c-.3-1.3 0-2.4.4-3.3zM43 52.8c-.6-.6-.8-1.2-.8-2.1 0-.8.3-1.5.8-2.1.6-.6 1.3-.8 2.1-.8s1.5.3 2.1.8c.5.6.8 1.2.8 2.1 0 .8-.3 1.5-.8 2.1-.6.6-1.2.8-2.1.8-.9.1-1.6-.2-2.1-.8z"/></svg>