<svg data-name="Слой 1" xmlns="http://www.w3.org/2000/svg" viewBox="0 0 52 52"><title>I</title><path d="M26 52a26 26 0 1 1 26-26 26 26 0 0 1-26 26zm0-50a24 24 0 1 0 24 24A24 24 0 0 0 26 2z" fill="#0094f8"/><g data-name="&lt;Группа&gt;"><path data-name="&lt;Составной контур&gt;" d="M15.64 25.62l4.95 1.84 1.91 6.17a.59.59 0 0 0 .93.28l2.76-2.25a.81.81 0 0 1 1 0l5 3.61a.58.58 0 0 0 .91-.35l3.65-17.54a.58.58 0 0 0-.78-.66l-20.34 7.8a.59.59 0 0 0 .01 1.1zm6.55.86l9.68-6a.17.17 0 0 1 .2.27l-8 7.42a1.64 1.64 0 0 0-.51 1l-.28 2a.24.24 0 0 1-.48 0l-1.05-3.67a1 1 0 0 1 .44-1.02z" fill="#0094f8"/></g></svg>