<svg data-name="Слой 1" xmlns="http://www.w3.org/2000/svg" viewBox="0 0 52 52"><title>I</title><path d="M26 52a26 26 0 1 1 26-26 26 26 0 0 1-26 26zm0-50a24 24 0 1 0 24 24A24 24 0 0 0 26 2z" fill="#0094f8"/><path d="M31.76 14.44h-3c-3.36 0-5.54 2.24-5.54 5.69v2.62h-3a.48.48 0 0 0-.48.48V27a.49.49 0 0 0 .48.48h3v9.58a.49.49 0 0 0 .48.48h3.94a.49.49 0 0 0 .48-.48v-9.61h3.52a.47.47 0 0 0 .48-.48v-3.79a.47.47 0 0 0-.14-.34.51.51 0 0 0-.34-.14h-3.53v-2.21c0-1 .27-1.61 1.63-1.61h2a.48.48 0 0 0 .48-.48v-3.5a.47.47 0 0 0-.46-.46z" fill="#0094f8"/></svg>