<svg data-name="Слой 1" xmlns="http://www.w3.org/2000/svg" viewBox="0 0 52 52"><title>I</title><path d="M26 52a26 26 0 1 1 26-26 26 26 0 0 1-26 26zm0-50a24 24 0 1 0 24 24A24 24 0 0 0 26 2z" fill="#0094f8"/><path d="M21.17 15.94A5.15 5.15 0 0 0 16 21.11v11.65a5.15 5.15 0 0 0 5.17 5.18h11.66A5.15 5.15 0 0 0 38 32.76V21.11a5.15 5.15 0 0 0-5.17-5.17zm12.3 3.23a1.31 1.31 0 1 1-1.31 1.3 1.3 1.3 0 0 1 1.31-1.3zM27 21.11a5.82 5.82 0 1 1-5.82 5.82A5.82 5.82 0 0 1 27 21.11zm0 1.28a4.54 4.54 0 1 0 4.53 4.54A4.53 4.53 0 0 0 27 22.39z" fill="#0094f8"/></svg>