<svg data-name="Слой 1" xmlns="http://www.w3.org/2000/svg" viewBox="0 0 52 52"><title>I</title><path d="M26 52a26 26 0 1 1 26-26 26 26 0 0 1-26 26zm0-50a24 24 0 1 0 24 24A24 24 0 0 0 26 2z" fill="#0094f8"/><path d="M36.14 27.6A10.27 10.27 0 0 0 24.4 15.86c-5.5-3.4-12 3-8.54 8.54A10.27 10.27 0 0 0 27.6 36.14c5.57 3.43 11.94-3.03 8.54-8.54zM26 32.66c-5.73 0-6.73-5-4.24-5 1.89 0 .79 3 4.16 3 1.92 0 2.74-1 2.74-1.83 0-2-3.05-1.64-5.73-2.79-3.57-1.55-3.08-6.7 3-6.7 5.39 0 6 4.43 3.67 4.42-1.73 0-.87-2.49-3.86-2.49-1.07 0-2.36.46-2.36 1.46 0 2.22 6.1 1.23 7.73 4.17 1.13 1.95.19 5.76-5.11 5.76z" fill="#0094f8"/></svg>