<?xml version="1.0" encoding="utf-8"?>
<!-- Generator: Adobe Illustrator 27.2.0, SVG Export Plug-In . SVG Version: 6.00 Build 0)  -->
<svg version="1.1" id="Слой_1" xmlns="http://www.w3.org/2000/svg" xmlns:xlink="http://www.w3.org/1999/xlink" x="0px" y="0px"
	 viewBox="0 0 48 48" style="enable-background:new 0 0 48 48;" xml:space="preserve">
<style type="text/css">
	.st0{fill:#0099FF;}
</style>
<path class="st0" d="M40.6,6C40,6,39.5,6.2,39,6.3c-0.4,0.2-2,0.8-4.4,1.9s-5.7,2.4-9.2,3.9c-7,2.9-14.8,6.2-18.8,7.9
	c-0.1,0.1-0.7,0.2-1.3,0.7C4.7,21.1,4,22.2,4,23.3c0,0.9,0.5,1.8,1,2.4s1.1,0.8,1.6,1v0c1.6,0.6,6.2,2.5,7.3,2.9
	c0.4,1.2,2.1,6.2,2.5,7.5h0c0.3,0.9,0.6,1.5,0.9,2c0.2,0.2,0.4,0.5,0.7,0.6c0.1,0.1,0.2,0.1,0.3,0.2c0,0,0,0,0.1,0l0,0
	c0,0,0.1,0,0.1,0c0.1,0,0.1,0,0.2,0c0.3,0.1,0.5,0.1,0.8,0.1c1.1,0,1.8-0.6,1.8-0.6l0,0l4.7-4l5.8,5.3c0.1,0.1,0.9,1.3,2.8,1.3
	c1.1,0,2-0.6,2.6-1.2c0.6-0.6,0.9-1.2,1.1-2l0,0c0.1-0.7,5.6-28.3,5.6-28.3l0,0c0.2-0.8,0.2-1.5,0-2.3s-0.7-1.5-1.4-1.9
	S41.2,5.9,40.6,6z M39.8,10.3c-0.2,1.1-5.1,25.9-5.5,27.4l-8.3-7.7l-5.6,4.7l1.6-6.1c0,0,10.7-10.9,11.4-11.5
	c0.5-0.5,0.6-0.7,0.6-0.9c0-0.2-0.1-0.4-0.4-0.4c-0.2,0-0.6,0.2-0.8,0.4c-2.3,1.4-12,7-16.8,9.7c-0.3-0.1-4.6-1.9-6.9-2.8
	c4.1-1.7,11.3-4.7,17.9-7.5c3.5-1.5,6.7-2.8,9.2-3.9C38.2,11,39.3,10.6,39.8,10.3z M34.3,38.1L34.3,38.1
	C34.3,38.1,34.3,38.1,34.3,38.1C34.3,38,34.3,38.1,34.3,38.1z"/>
</svg>
