<svg xmlns="http://www.w3.org/2000/svg" viewBox="0 0 79 79"><style>.st0{fill:#0f43aa}.st1{fill:#fff}.st2{fill:#009aff}.st3{display:none}.st4{display:inline}.st5,.st6{stroke:#0f43aa}.st5{stroke-width:2;stroke-miterlimit:10;fill:none}.st6{fill:#009aff}.st6,.st7,.st8,.st9{stroke-width:2;stroke-miterlimit:10}.st7{stroke:#0041ae;fill:none}.st8,.st9{fill:#fff}.st8{stroke-linejoin:bevel;stroke:#0041ae}.st9{stroke:#009aff}.st10{fill:none}.st11{fill:#91d3fe}.st12{fill:#0f43aa}.st12,.st13,.st14{clip-path:url(#SVGID_1_)}.st13{fill:#fff}.st14{fill:#009aff}.st15,.st16{fill:#fff;stroke:#1542ac;stroke-width:2;stroke-miterlimit:10}.st16{fill:none;stroke:#009aff}</style><g id="Arrow"><circle class="st1" cx="35.4" cy="43.5" r="33.1"/><path class="st0" d="M57.8 34.8c-.4-1-1.5-1.4-2.4-1-1 .4-1.4 1.5-1 2.4.9 2.4 1.4 4.9 1.4 7.5 0 11.2-9.1 20.3-20.3 20.3-11.2 0-20.3-9.1-20.3-20.3s9.1-20.3 20.3-20.3c2.6 0 5.1.5 7.5 1.4.9.4 2-.1 2.4-1 .4-.9-.1-2-1-2.4-2.8-1.1-5.8-1.7-8.8-1.7-13.2 0-24 10.8-24 24s10.8 24 24 24 24-10.8 24-24c-.2-3.2-.7-6.1-1.8-8.9z"/><path class="st0" d="M69.2 33.9c-.3-1-1.3-1.6-2.3-1.3-1 .3-1.6 1.3-1.3 2.3.8 2.8 1.2 5.7 1.2 8.7C66.8 60.9 52.7 75 35.4 75 18.1 75 4 60.9 4 43.6s14.1-31.4 31.4-31.4c2.9 0 5.9.4 8.7 1.2 1 .3 2-.3 2.3-1.3.3-1-.3-2-1.3-2.3-3.1-.8-6.4-1.3-9.7-1.3C16.1 8.5.3 24.2.3 43.6S16 78.7 35.4 78.7c19.4 0 35.1-15.7 35.1-35.1 0-3.3-.4-6.5-1.3-9.7z"/><path class="st0" d="M48.3 42.5c-.1-1-1-1.8-2-1.7-1 .1-1.8 1-1.7 2v.8c0 5.1-4.1 9.2-9.2 9.2s-9.2-4.1-9.2-9.2 4.1-9.2 9.2-9.2h.8c1 .1 1.9-.7 2-1.7.1-1-.7-1.9-1.7-2-.4 0-.8-.1-1.2-.1-7.1 0-12.9 5.8-12.9 12.9 0 7.1 5.8 12.9 12.9 12.9 7.1 0 12.9-5.8 12.9-12.9.2-.3.1-.7.1-1z"/><path class="st11" d="M78.5 12.7c-.6-1.4-1.9-2.3-3.4-2.3h-6.5V4c0-1.5-.9-2.8-2.3-3.4-1.4-.6-3-.3-4 .8L51.5 12.2c-1 1-1.6 2.4-1.6 3.9v10.5l-15 15c-.7.7-.7 1.9 0 2.6.4.4.8.5 1.3.5s.9-.2 1.3-.5l15-15H63c1.5 0 2.9-.6 3.9-1.6l10.8-10.8c1-1.1 1.3-2.7.8-4.1zm-24.9 3.4"/><path class="st1" d="M53.6 16.1c0-.5.2-1 .5-1.3L64.9 4v7.5L53.6 22.8v-6.7m10.7 8.8c-.3.3-.8.5-1.3.5h-6.8l11.3-11.3H75L64.3 24.9z"/></g></svg>