<svg xmlns="http://www.w3.org/2000/svg" viewBox="0 0 79 79"><style>.st0{fill:#0f43aa}.st1{fill:#fff}.st2{fill:#009aff}.st3{display:none}.st4{display:inline}.st5,.st6{stroke:#0f43aa}.st5{stroke-width:2;stroke-miterlimit:10;fill:none}.st6{fill:#009aff}.st6,.st7,.st8,.st9{stroke-width:2;stroke-miterlimit:10}.st7{stroke:#0041ae;fill:none}.st8,.st9{fill:#fff}.st8{stroke-linejoin:bevel;stroke:#0041ae}.st9{stroke:#009aff}.st10{fill:none}.st11{fill:#91d3fe}.st12{fill:#0f43aa}.st12,.st13,.st14{clip-path:url(#SVGID_1_)}.st13{fill:#fff}.st14{fill:#009aff}.st15,.st16{fill:#fff;stroke:#1542ac;stroke-width:2;stroke-miterlimit:10}.st16{fill:none;stroke:#009aff}</style><g id="Analistycs"><path class="st1" d="M13.4 47C4 37.6 4 22.4 13.4 12.9c9.4-9.4 24.7-9.4 34.1 0 9.5 9.5 9.5 24.7 0 34.1-9.4 9.5-24.6 9.5-34.1 0z"/><path class="st2" d="M76.7 66.5c-1.3-1.1-10.1-9.2-16.7-15.3l-7.6-7c7-11.1 4.8-24.5-3.4-32.8-10.3-10-26.8-10-37 .1-10.2 10.2-10.2 26.8 0 37C20.2 56.7 33.6 59 44.7 52c.8.8 21.9 24 22.5 24.6 2.7 2.7 7.1 2.7 9.7 0 2.6-2.6 3-6.9-.2-10.1zM13.4 47C4 37.6 4 22.4 13.4 12.9c9.4-9.4 24.7-9.4 34.1 0 9.5 9.5 9.5 24.7 0 34.1-9.4 9.5-24.6 9.5-34.1 0zm33 3.8c2.3-1.8 3.3-3 4.8-4.8l4.1 3.8-5.2 5.2c-3.8-4.3-2.9-3.4-3.7-4.2z"/><path class="st2" d="M30.5 50.7C19.1 50.7 9.8 41.4 9.8 30S19.1 9.4 30.5 9.4 51.1 18.6 51.1 30s-9.2 20.7-20.6 20.7zm0-39.4c-10.3 0-18.7 8.4-18.7 18.7s8.4 18.7 18.7 18.7S49.2 40.3 49.2 30s-8.4-18.7-18.7-18.7z"/><g class="st3"><path class="st4" d="M8.1 41C5.3 42.1.7 46.8 0 49.4c.2.3.5.6.8.9.2.3.5.5.8.7 2.4-.6 6.6-4.6 8.1-7.4.3.4.5.8.8 1.1m44-25.6c2.7-1.5 6.8-5.3 9.1-8.4.1 1.7.4 3.3.9 4.9.4.1.8.2 1.2.1.3 0 .7 0 1-.1.7-1.9 1.1-5.8 1.1-9.6 0-1.2-1-2.2-2.2-2.1-3.8 0-7.7.4-9.6 1.1-.1.4-.1.7-.1 1.1 0 .3 0 .7.1 1 1.6.5 3.3.9 5.1.9-3.1 2.3-5.9 5.1-8.2 8.2M15.7 36.7c3.6-2.8 7-5.7 10.3-8.9 2.9 3 6 6.1 8.9 8.8l.1.1.2.1c.9.7 2.1.5 2.8-.4 3.1-3.9 6-8 8.6-12.2.1-.1-.2-.5-.7-.9-.5-.4-.8-.5-.9-.4-3 2.9-5.9 6-8.6 9.2-2.8-2.9-5.9-6-8.8-8.7l-.1-.1c-.8-.8-2.1-.8-2.9.1-3.7 3.7-7.1 7.6-10.4 11.8-.1.1.2.6.6 1 .4.4.8.6.9.5z"/></g><path class="st0" d="M15 33.8c.8-1.1 2.1-2.3 10-9.8.6-.6 1.5-.6 2.1 0l9 8.7 6.9-8.4c.5-.6 1.5-.7 2.1-.2.6.5.7 1.5.2 2.1l-7.9 9.7c-.3.3-.7.5-1.1.5-.4 0-.8-.1-1.1-.4L26 27.1c-4.5 4.3-7.9 7.7-8.7 8.5-.8.8-1.8.8-2.4.3-.3-.2-.8-1 .1-2.1zm1.3 2.6zm0 0zm-9 5.6L.8 48.1c-.6.6-.6 1.5-.1 2.1.3.3.7.5 1.1.5.4 0 .7-.1 1-.4l6-5.7c-.5-.8-1.1-1.7-1.5-2.6zM57 7.4l5.2-.2-9.4 9.4c.5.9 1 1.8 1.4 2.8 0 0 .1 0 .1-.1l10-10-.3 5.3c-.1.8.6 1.5 1.4 1.6.8.1 1.5-.6 1.6-1.4l.6-9.2v-.5c0-.1-.1-.3-.2-.4v-.1c-.1-.2-.4-.4-.6-.5-.3-.1-.5-.1-.6-.1h-.3l-9 .4c-.8 0-1.5.7-1.4 1.6 0 .7.7 1.4 1.5 1.4z"/><path class="st2" d="M75.6 75.1c-2.1 2.1-5.3 1.8-7.1-.2l-17-18.5 5.3-5.3L75.4 68c2.2 2 2.1 5.2.2 7.1z"/></g></svg>