<?xml version="1.0" encoding="utf-8"?>
<!-- Generator: Adobe Illustrator 27.2.0, SVG Export Plug-In . SVG Version: 6.00 Build 0)  -->
<svg version="1.1" id="Слой_1" xmlns="http://www.w3.org/2000/svg" xmlns:xlink="http://www.w3.org/1999/xlink" x="0px" y="0px"
	 viewBox="0 0 30 30" style="enable-background:new 0 0 30 30;" xml:space="preserve">
<style type="text/css">
	.st0{fill:#0099FF;}
</style>
<path class="st0" d="M25.4,8.3C25,6.9,24.1,5.7,23,4.9c-1.5-1-3.2-1.4-4.7-1.6c-2.1-0.3-3.9-0.3-5.7-0.1c-1.7,0.2-2.9,0.5-4.1,1.1
	c-2.2,1-3.6,2.7-4,5c-0.2,1.1-0.3,2.1-0.4,3c-0.2,2.2,0,4.1,0.5,5.9c0.5,1.7,1.4,3,2.7,3.8c0.3,0.2,0.8,0.4,1.2,0.5
	c0.2,0.1,0.4,0.1,0.6,0.2v3.5C9,26.6,9.4,27,9.8,27l0,0c0.2,0,0.4-0.1,0.6-0.2l3.3-3.2c0.1-0.2,0.1-0.2,0.3-0.2
	c1.1,0,2.2-0.1,3.4-0.1c1.4-0.1,3-0.2,4.4-0.8c1.4-0.6,2.4-1.5,3-2.7c0.6-1.3,1-2.6,1.1-4.2C26.1,12.8,26,10.5,25.4,8.3z M19.7,18.7
	c-0.3,0.5-0.8,0.9-1.4,1.1c-0.4,0.2-0.9,0.1-1.3,0c-3.5-1.5-6.2-3.8-8-7.1c-0.4-0.7-0.6-1.4-0.9-2.2C8,10.4,8,10.2,8,10.1
	c0-1.2,0.9-1.8,1.8-2c0.3-0.1,0.7,0,0.9,0.3c0.7,0.7,1.3,1.5,1.7,2.4c0.2,0.4,0.1,0.7-0.2,1c-0.1,0.1-0.1,0.1-0.2,0.2
	c-0.7,0.5-0.8,1-0.4,1.8c0.7,1.4,1.7,2.3,3.2,2.9c0.4,0.2,0.7,0.1,1-0.2c0,0,0.1-0.1,0.1-0.1c0.6-0.9,1.4-0.8,2.1-0.3
	c0.5,0.3,1,0.7,1.4,1.1C20.1,17.5,20.1,18,19.7,18.7z M15.5,9.1c-0.2,0-0.4,0-0.6,0c-0.3,0.1-0.6-0.2-0.7-0.5
	c-0.1-0.3,0.2-0.6,0.5-0.7C15,8,15.3,8,15.5,8C18,8,20,10,20,12.5c0,0.3,0,0.5-0.1,0.7c0,0.3-0.3,0.5-0.6,0.5c0,0-0.1,0-0.1,0
	c-0.3-0.1-0.5-0.3-0.5-0.7c0-0.2,0-0.4,0-0.6C18.9,10.6,17.4,9.1,15.5,9.1z M18,12.9c0,0.3-0.3,0.6-0.6,0.6c-0.3,0-0.6-0.3-0.6-0.6
	c0-0.9-0.8-1.7-1.7-1.7c-0.3,0-0.6-0.3-0.6-0.6c0-0.3,0.3-0.6,0.6-0.6C16.7,10,18,11.3,18,12.9z M21.8,13.6
	c-0.1,0.3-0.3,0.4-0.6,0.4c0,0-0.1,0-0.1,0c-0.3-0.1-0.5-0.4-0.4-0.7c0.1-0.4,0.1-0.7,0.1-1.1c0-2.8-2.3-5-5-5c-0.4,0-0.8,0-1.1,0.1
	c-0.3,0.1-0.6-0.1-0.7-0.4c-0.1-0.3,0.1-0.6,0.4-0.7C14.9,6.1,15.4,6,15.8,6c3.4,0,6.2,2.8,6.2,6.2C22,12.6,21.9,13.1,21.8,13.6z"/>
</svg>
