<?xml version="1.0" encoding="utf-8"?>
<!-- Generator: Adobe Illustrator 27.2.0, SVG Export Plug-In . SVG Version: 6.00 Build 0)  -->
<svg version="1.1" id="Слой_1" xmlns="http://www.w3.org/2000/svg" xmlns:xlink="http://www.w3.org/1999/xlink" x="0px" y="0px"
	 viewBox="0 0 48 48" style="enable-background:new 0 0 48 48;" xml:space="preserve">
<style type="text/css">
	.st0{fill:#0099FF;}
</style>
<path class="st0" d="M38.2,9.8C34.4,6,29.4,4,24,4C13,4,4,13,4,24c0,3.6,1,7,2.6,10L4,44l10.4-2.4c3,1.6,6.2,2.4,9.6,2.4
	c11,0,20-9,20-20C44,18.6,42,13.6,38.2,9.8z M33.8,31.2c-0.4,1.2-2.4,2.2-3.4,2.4c-1,0-1.8,0.4-6-1.2c-5-2-8.2-7.2-8.6-7.6
	c-0.2-0.4-2-2.8-2-5.2s1.2-3.6,1.8-4.2c0.4-0.6,1-0.6,1.4-0.6s0.6,0,1,0s0.8,0,1.2,0.8c0.4,1,1.4,3.4,1.6,3.8s0.2,0.6,0,0.8
	c-0.2,0.2-0.2,0.6-0.4,0.8c-0.2,0.2-0.6,0.6-0.8,0.8c-0.2,0.2-0.6,0.6-0.2,1c0.2,0.6,1.2,2.2,2.8,3.4c2,1.8,3.6,2.2,4,2.4
	c0.6,0.2,0.8,0.2,1-0.2c0.2-0.4,1.2-1.4,1.6-2s0.6-0.4,1.2-0.2c0.6,0.2,3,1.4,3.4,1.6c0.6,0.2,0.8,0.4,1,0.6
	C34.2,29,34.2,30,33.8,31.2z"/>
</svg>
