<svg xmlns="http://www.w3.org/2000/svg" viewBox="0 0 79 79"><style>.st0{fill:#0f43aa}.st1{fill:#fff}.st2{fill:#009aff}.st3{display:none}.st4{display:inline}.st5,.st6{stroke:#0f43aa}.st5{stroke-width:2;stroke-miterlimit:10;fill:none}.st6{fill:#009aff}.st6,.st7,.st8,.st9{stroke-width:2;stroke-miterlimit:10}.st7{stroke:#0041ae;fill:none}.st8,.st9{fill:#fff}.st8{stroke-linejoin:bevel;stroke:#0041ae}.st9{stroke:#009aff}.st10{fill:none}.st11{fill:#91d3fe}.st12{fill:#0f43aa}.st12,.st13,.st14{clip-path:url(#SVGID_1_)}.st13{fill:#fff}.st14{fill:#009aff}.st15,.st16{fill:#fff;stroke:#1542ac;stroke-width:2;stroke-miterlimit:10}.st16{fill:none;stroke:#009aff}</style><g id="Manager"><path class="st0" d="M27.7 24.4c.2 1.2.7 2 1.1 2.5 1.1 7.4 7.3 14.4 13 14.4 6.6 0 12.7-7.5 13.8-14.3.5-.5 1-1.3 1.2-2.5.4-1.4.9-3.8 0-5 0-.1-.1-.1-.1-.2.8-2.9 1.8-9-1.8-13.1-.3-.4-2.4-2.8-6.7-4.1l-2.1-.7C42.7.3 40.6 0 40.5 0H40c-.1 0-.5.1-.8.1-.8-.1-2 .3-2.3.4-.3.1-6.9 2.8-8.9 9-.2.5-1 3.1.1 9.6-.2.1-.3.2-.4.4-.9 1-.4 3.5 0 4.9zm2.6-14.1v-.1c1.6-5.1 7.4-7.4 7.5-7.5.3-.1.8-.2 1.1-.2.6.1 1.2 0 1.6-.1.6.1 2.4.4 5 1.2l2.1.7C51.4 5.5 53 7.6 53 7.6l.1.1c3.4 3.8 1.6 10 1 11.9-.1.4 0 .9.3 1.2.2.2.3.3.6.3 0 .6-.2 1.7-.4 2.6v.1c-.1.7-.3 1.2-.6 1.4-.3.2-.4.5-.5.8-.8 5.7-6.1 12.7-11.5 12.7-4.5 0-9.9-6.4-10.7-12.7 0-.3-.2-.6-.5-.8-.3-.2-.5-.7-.6-1.4v-.1c-.2-.9-.4-1.9-.4-2.5.2 0 .5-.1.6-.3.4-.3.5-.7.4-1.2-1.4-6.8-.5-9.4-.5-9.4z"/><path class="st1" d="M30.3 10.3v-.1c1.6-5.1 7.4-7.4 7.5-7.5.3-.1.8-.2 1.1-.2.6.1 1.2 0 1.6-.1.6.1 2.4.4 5 1.2l2.1.7C51.4 5.5 53 7.6 53 7.6l.1.1c3.4 3.8 1.6 10 1 11.9-.1.4 0 .9.3 1.2.2.2.3.3.6.3 0 .6-.2 1.7-.4 2.6v.1c-.1.7-.3 1.2-.6 1.4-.3.2-.4.5-.5.8-.8 5.7-6.1 12.7-11.5 12.7-4.5 0-9.9-6.4-10.7-12.7 0-.3-.2-.6-.5-.8-.3-.2-.5-.7-.6-1.4v-.1c-.2-.9-.4-1.9-.4-2.5.2 0 .5-.1.6-.3.4-.3.5-.7.4-1.2-1.4-6.8-.5-9.4-.5-9.4z"/><path class="st2" d="M68 46.7c-2.1-2.9-9.2-4.7-12.3-6.1-1.9-1-3.5-2-3.9-3l1.4 11.6-10.5 27-9.9-26.5.2-12.2c-.9 2.8-11.7 6.1-11.7 6.1-3.2 1.2-4.6 3.1-4.6 3.1-4.7 7-5.3 22.7-5.3 22.7.1 3.6 1.6 3.9 1.6 3.9 8.1 3.6 23.9 6.1 30.6 5.6v.1s17.1-.9 28-5.7c4.3-1.1-1.1-22.8-3.6-26.6z"/><path class="st1" d="M50.6 36.8c-2.5 2.6-5.5 4.4-8.8 4.4-2.9 0-5.9-1.8-8.3-4.4l-.5.7-.2 12.2 9.9 26.5 10.5-27-1.4-11.6-1.2-.8z"/><path class="st0" d="M42.7 73.6l3.5-21.7-3.5-2.3-3.6 2.3zM38 42.4l4.7 7.1 4.7-7.1c-5.2 2.2-9.4 0-9.4 0z"/></g></svg>