<?xml version="1.0" encoding="utf-8"?>
<!-- Generator: Adobe Illustrator 27.2.0, SVG Export Plug-In . SVG Version: 6.00 Build 0)  -->
<svg version="1.1" id="Слой_1" xmlns="http://www.w3.org/2000/svg" xmlns:xlink="http://www.w3.org/1999/xlink" x="0px" y="0px"
	 viewBox="0 0 2084 813" style="enable-background:new 0 0 2084 813;" xml:space="preserve">
<style type="text/css">
	.st0{fill:#103AA1;}
	.st1{fill:#1A1A1A;}
</style>
<g transform="translate(0.000000,813.000000) scale(0.100000,-0.100000)">
	<path class="st0" d="M300,8114c-30-8-73-25-95-39c-58-34-132-117-163-183l-27-57V4065V295l27-58C96,123,204,37,328,11
		c75-16,7408-16,7484,0c124,26,245,125,291,239l22,55l3,3740c2,3390,1,3745-14,3795c-40,140-157,248-302,279c-39,8-1050,11-3755,10
		C831,8129,348,8127,300,8114z M7176,5618l-1-1533l-1537-3l-1538-2V2540V1000l-1537,2l-1538,3l-3,1538l-2,1537h1540h1540v1535v1535
		h1538h1539L7176,5618z"/>
	<path class="st0" d="M19614,7023c25-174,105-276,254-324c95-30,288-31,382,0c83,26,151,70,190,124c35,48,70,151,70,208v39h-109
		c-120,0-112,4-126-66c-8-43-61-103-109-125c-54-25-157-25-211,0c-56,25-100,79-115,140l-12,51h-110h-110L19614,7023z"/>
	<path class="st0" d="M9806,6938c-2-7-11-224-20-483c-21-603-43-793-113-947c-48-107-152-170-253-154c-35,6-40,4-44-16
		c-7-30-24-272-21-276c2-2,45-11,96-19c115-20,202-9,293,36c108,53,182,152,235,315c72,218,87,363,117,1109l6,147h374h374v-795v-795
		h170h170v945v945h-690C9956,6950,9809,6947,9806,6938z"/>
	<path class="st0" d="M11690,5780v-720h153h152l395,472l395,473l3-473l2-472h170h170v720v720h-155h-154l-392-467
		c-215-258-396-469-400-471c-5-2-9,205-9,467v471h-165h-165V5780z"/>
	<path class="st0" d="M13460,6228c0-196,4-292,14-339c52-242,244-369,558-369c121,0,249,24,361,68l77,30v-279v-279h170h170l-2,718
		l-3,717l-167,3l-168,2v-315v-316l-44-19c-95-43-166-55-311-55c-138,0-141,0-195,31c-65,37-105,94-120,173c-5,29-10,154-10,277v224
		h-165h-165V6228z"/>
	<path class="st0" d="M15260,5780v-720h170h170v285v285h364h364v-272c0-150,1-279,1-285c1-10,41-13,166-13h165v720v720l-167-2
		l-167-3l1-275c1-151-1-283-4-292c-4-17-30-18-364-18h-359v295v295h-170h-170V5780z"/>
	<path class="st0" d="M17119,6495c0-3-1-322-1-710s1-709,1-715c1-14,748-13,827,1c206,36,346,135,405,286c33,86,39,258,10,350
		c-50,165-181,272-373,302c-67,11-253,20-430,21h-108v235v235h-165C17194,6500,17120,6498,17119,6495z M17890,5774
		c118-39,177-145,151-272c-19-94-63-146-151-177c-45-16-117-20-312-17l-128,2v246v247l193-6C17790,5793,17848,5787,17890,5774z"/>
	<path class="st0" d="M18570,5780v-720h170h170v720v720h-170h-170V5780z"/>
	<path class="st0" d="M19360,5780v-720h158l157,1l395,473l395,474l3-474l2-474h165h165v720v720l-152-1h-153l-395-473l-395-472
		l-3,473l-2,473h-170h-170V5780z"/>
	<path class="st0" d="M11487,3255c-129-25-290-88-356-142l-24-19l63-117c35-64,69-117,75-117c7,0,18,6,24,13c20,25,167,87,242,103
		c110,23,287,16,357-15c97-43,154-128,169-250l6-49l-284-5c-229-3-297-8-349-22c-152-41-247-112-302-223c-32-64-33-72-33-182
		c0-106,2-119,28-173c79-160,268-257,502-257c169,0,333,57,409,140c20,22,38,40,41,40s5-36,5-80v-81l157,3l157,3l-1,457
		c0,252-4,483-8,514c-28,225-171,386-400,450C11881,3269,11593,3275,11487,3255z M12040,2352c0-81-2-92-32-142
		c-39-65-118-124-197-146c-81-24-240-16-304,15c-71,35-101,79-105,160c-3,56,0,71,20,100c54,81,127,99,406,100l212,1V2352z"/>
	<path class="st0" d="M18202,3249c-116-24-208-59-294-110l-68-40l51-92c27-51,57-106,66-123l16-32l60,39c33,22,97,51,141,66
		c73,25,95,27,231,28c145,0,152-1,207-28c99-49,158-141,158-248v-47l-277-4c-305-5-378-17-485-75c-148-81-227-243-201-413
		c25-163,130-277,313-341c56-20,85-23,215-23c129-1,160,2,221,21c80,25,165,77,206,126l27,32l1-82v-83h161h160l-3,503l-3,502l-28,81
		c-64,190-207,308-425,350C18543,3277,18317,3273,18202,3249z M18778,2360c4-94-15-145-74-204c-24-25-70-57-102-72
		c-49-24-73-29-164-32c-154-6-242,28-284,110c-32,62-16,167,32,209c65,57,125,67,384,65l205-1L18778,2360z"/>
	<path class="st0" d="M9540,2540v-720h170h170v290v290h128h127l218-290l217-290h195c107,0,195,2,195,5s-122,168-272,367
		c-149,199-271,367-271,373c0,9,322,443,506,683c7,9-28,12-169,12h-179l-209-285c-115-157-214-289-220-293s-68-7-138-8l-128-1v294
		v293h-170h-170V2540z"/>
	<path class="st0" d="M12800,2540v-720h165h165v575v575h355h355v-575v-575h170h170v720v720h-690h-690V2540z"/>
	<path class="st0" d="M14630,2540v-720h158l157,1l390,469c215,258,393,469,398,469c4,1,7-210,7-469v-470h165h165v720v720l-152-1
		h-153l-395-473l-395-472l-3,473l-2,473h-170h-170V2540z"/>
	<path class="st0" d="M16322,3118l3-143l253-3l252-2v-575v-575h170h170v575v575h250h250v145v145h-675h-676L16322,3118z"/>
	<path class="st0" d="M19670,3228c0-86-31-676-41-777c-13-134-37-222-79-279c-39-54-81-75-152-75h-57l-5-41c-3-23-7-85-10-138l-4-98
		l41-12c23-7,87-13,142-13c118,0,167,19,239,91c117,119,172,327,196,739c6,99,13,217,16,263l6,82h269h269v-575v-575h170h170v720v720
		h-585h-585V3228z"/>
	<path class="st1" d="M17693,1065c-73-20-142-57-181-98l-33-34l46-37l45-37l42,36c97,82,277,88,353,11c42-41,51-90,30-164
		c-15-55-25-65-251-287c-233-229-234-230-234-272v-43h335h335v55v55h-237h-238l187,186c223,221,243,252,243,379c0,94-22,144-82,194
		C17976,1073,17815,1098,17693,1065z"/>
	<path class="st1" d="M18563,1066c-179-58-276-218-276-456c0-225,78-377,232-449c48-22,70-26,146-26c82,0,97,3,157,33
		c102,50,169,139,204,269c20,77,20,259,0,336c-50,187-174,296-344,304C18635,1079,18589,1074,18563,1066z M18756,941
		c52-24,109-90,131-155c26-74,25-290-1-365c-62-180-271-229-389-91c-57,67-72,123-72,275s15,208,72,275c45,53,102,80,168,80
		C18693,960,18733,951,18756,941z"/>
	<path class="st1" d="M19453,1066c-179-58-276-218-276-456c0-225,78-377,232-449c48-22,70-26,146-26c82,0,97,3,157,33
		c102,50,169,139,204,269c20,77,20,259,0,336c-50,187-174,296-344,304C19525,1079,19479,1074,19453,1066z M19646,941
		c52-24,109-90,131-155c26-74,25-290-1-365c-62-180-271-229-389-91c-57,67-72,123-72,275s15,208,72,275c45,53,102,80,168,80
		C19583,960,19623,951,19646,941z"/>
	<path class="st1" d="M20385,1067c-113-30-215-109-264-206c-72-141-73-401-1-541c66-130,203-199,366-187c203,15,332,169,294,351
		c-31,148-161,234-339,224c-92-6-160-33-209-85l-35-38l5,81c8,105,36,172,99,228c59,53,117,71,224,70c59,0,91-6,121-21l41-20l26,53
		l26,53l-57,21C20611,1077,20458,1086,20385,1067z M20569,569c104-58,119-193,32-272c-87-78-231-75-316,7c-47,45-62,90-50,152
		c8,46,68,110,120,130C20413,607,20516,599,20569,569z"/>
	<path class="st1" d="M10635,839c-75-7-170-39-207-68l-22-19l24-46c14-25,27-45,30-43c110,65,241,85,323,49c52-23,87-77,87-137v-35
		h-133c-253,0-350-57-350-205c0-131,121-215,290-202c73,5,169,45,180,74c10,27,23,12,23-27v-40h60h60v230c0,128-5,252-11,280
		C10959,789,10832,857,10635,839z M10870,394c0-53-3-59-43-99c-111-112-331-71-314,58c11,80,47,95,230,96l127,1V394z"/>
	<path class="st1" d="M11919,839c-62-7-150-49-180-87l-19-25v57v56h-65h-65V420V0h65h65v122v122l33-32c57-55,120-77,222-77
		c76,0,99,5,146,27c157,72,232,230,195,409C12277,756,12121,862,11919,839z M12071,707c141-75,169-290,52-398
		c-131-122-340-69-389,97c-38,131,16,260,131,310C11916,738,12020,734,12071,707z"/>
	<path class="st1" d="M15498,839c-117-13-214-85-267-198c-23-49-26-68-26-156c1-88,4-107,28-157c35-71,109-140,185-169
		c46-19,78-23,162-23c93-1,111,2,160,25c30,14,70,38,87,53l33,28l-33,39c-35,42-48,47-68,23c-21-25-83-52-136-60
		c-135-18-267,61-289,175l-6,31h287h288l-5,73C15884,733,15720,864,15498,839z M15648,714c20-8,50-27,66-42c28-26,65-94,66-119
		c0-10-52-13-226-13h-226l6,32C15358,693,15522,767,15648,714z"/>
	<path class="st1" d="M16715,839c-122-12-232-89-283-197c-23-49-27-70-27-152c0-88,3-101,33-162c59-119,163-185,308-195
		c115-9,240,41,293,116l22,30l-47,30l-48,29l-43-38c-152-133-393-23-393,179c0,79,16,126,58,173c49,54,102,78,177,78
		c71,0,131-25,171-69l27-31l36,22c67,39,67,41,25,88C16954,818,16846,852,16715,839z"/>
	<path class="st1" d="M9540,490V140h65h65v145v145h199c150,0,200-3,203-12c2-7,3-73,3-145l-2-133h64h63v350v350h-65h-65l2-147l3-148
		l-203-3l-202-2v150v150h-65h-65V490z"/>
	<path class="st1" d="M12500,489V138l208,4l208,3l59,30c85,44,120,101,119,199c0,78-14,114-61,158c-53,50-95,61-255,66l-148,4v119
		v119h-65h-65V489z M12900,488c76-39,91-130,34-197c-33-40-77-51-201-51h-103v135v135h113C12840,510,12862,507,12900,488z"/>
	<path class="st1" d="M13200,490V140h65h65v350v350h-65h-65V490z"/>
	<path class="st1" d="M13580,490V140h65h65v145v145h199c150,0,200-3,203-12c2-7,3-73,3-145l-2-133h64h63v350v350h-65h-65l2-147
		l3-148l-203-3l-202-2v150v150h-65h-65V490z"/>
	<path class="st1" d="M14490,490V140h65h65v150v150h73h74l119-150l119-150h73c39,0,72,2,72,5s-33,47-73,98c-40,50-103,131-140,179
		l-67,86l130,161c71,88,130,163,130,166s-30,5-67,3l-67-3l-110-142l-111-142h-77l-78-1v145v145h-65h-65V490z"/>
</g>
</svg>
