<?xml version="1.0" encoding="utf-8"?>
<!-- Generator: Adobe Illustrator 27.2.0, SVG Export Plug-In . SVG Version: 6.00 Build 0)  -->
<svg version="1.1" id="Слой_1" xmlns="http://www.w3.org/2000/svg" xmlns:xlink="http://www.w3.org/1999/xlink" x="0px" y="0px"
	 viewBox="0 0 33 30" style="enable-background:new 0 0 33 30;" xml:space="preserve">
<style type="text/css">
	.st0{fill:#103AA1;}
</style>
<g transform="translate(0.000000,30.000000) scale(0.100000,-0.100000)">
	<path class="st0" d="M70,225l-74-75l74-75c41-42,80-74,87-73c14,3,153,137,153,147c0,11-144,151-155,151C149,300,111,266,70,225z
		 M185,180l-29-30l29-30l29-30l-29-30l-29-30l-30,30L96,90l29,30l29,30l-29,30l-29,30l29,30l29,30l30-30l30-30L185,180z"/>
	<path class="st0" d="M295,31c-7-12,12-24,25-16c11,7,4,25-10,25C305,40,299,36,295,31z"/>
</g>
</svg>
